<svg width="120" height="40" viewBox="0 0 120 40" fill="none" xmlns="http://www.w3.org/2000/svg">
<path d="M9.06032 38.9583C8.7583 38.9583 8.46357 38.9544 8.16391 38.9477C7.54314 38.9396 6.92383 38.8853 6.31105 38.7853C5.73966 38.6864 5.18613 38.5025 4.66873 38.2397C4.15608 37.9791 3.6885 37.6373 3.2839 37.2274C2.87345 36.8225 2.53172 36.3527 2.27228 35.8369C2.00997 35.3177 1.82844 34.7612 1.73401 34.1868C1.63203 33.5695 1.57685 32.9454 1.56896 32.3198C1.56267 32.1098 1.55444 31.4106 1.55444 31.4106V8.40862C1.55444 8.40862 1.56321 7.72016 1.56901 7.51789C1.57656 6.89325 1.63142 6.2701 1.73309 5.65381C1.8277 5.0778 2.00937 4.51969 2.27182 3.99881C2.53032 3.48333 2.87014 3.01326 3.27812 2.60682C3.68564 2.19652 4.15472 1.85298 4.66825 1.58872C5.18446 1.32672 5.73693 1.14415 6.30717 1.0471C6.92197 0.946099 7.54343 0.891493 8.16635 0.88374L9.06081 0.871582H110.934L111.84 0.884228C112.457 0.891595 113.073 0.945714 113.682 1.04612C114.258 1.14439 114.816 1.32824 115.338 1.59164C116.367 2.1242 117.204 2.96676 117.732 4.00124C117.99 4.51853 118.169 5.07208 118.263 5.64312C118.365 6.26446 118.423 6.89251 118.435 7.52228C118.438 7.80427 118.438 8.10717 118.438 8.40862C118.446 8.78201 118.446 9.13742 118.446 9.49575V30.3351C118.446 30.6968 118.446 31.0498 118.438 31.4057C118.438 31.7295 118.438 32.0261 118.434 32.3314C118.422 32.95 118.366 33.5668 118.264 34.177C118.172 34.7556 117.991 35.3165 117.729 35.8399C117.468 36.3501 117.128 36.8158 116.722 37.2197C116.317 37.6317 115.849 37.9755 115.335 38.2378C114.815 38.5027 114.257 38.6872 113.682 38.7853C113.069 38.8858 112.45 38.9401 111.829 38.9477C111.538 38.9544 111.234 38.9583 110.939 38.9583L109.865 38.9603L9.06032 38.9583Z" fill="white"/>
<path d="M25.468 19.8045C25.4791 18.9402 25.7076 18.0928 26.1324 17.3411C26.5571 16.5894 27.1642 15.9579 27.8972 15.5052C27.4316 14.8372 26.8173 14.2874 26.1031 13.8996C25.3889 13.5117 24.5945 13.2965 23.783 13.271C22.052 13.0885 20.3738 14.3115 19.4917 14.3115C18.5925 14.3115 17.2344 13.2891 15.7719 13.3194C14.8259 13.3501 13.904 13.6264 13.096 14.1214C12.2879 14.6164 11.6213 15.3132 11.161 16.1439C9.16745 19.6111 10.6545 24.7066 12.5642 27.5092C13.5197 28.8816 14.6364 30.4145 16.0976 30.3602C17.5274 30.3006 18.0614 29.4443 19.7874 29.4443C21.4973 29.4443 21.9983 30.3602 23.4891 30.3256C25.0234 30.3006 25.9901 28.9472 26.912 27.5618C27.5985 26.584 28.1268 25.5032 28.4773 24.3596C27.5859 23.981 26.8252 23.3471 26.2901 22.537C25.755 21.727 25.469 20.7766 25.468 19.8045Z" fill="black"/>
<path d="M22.6521 11.4279C23.4886 10.4191 23.9008 9.12254 23.801 7.81348C22.5229 7.94831 21.3423 8.56188 20.4945 9.53193C20.0799 10.0058 19.7625 10.5571 19.5602 11.1544C19.3579 11.7516 19.2747 12.383 19.3155 13.0125C19.9548 13.0191 20.5872 12.8799 21.1651 12.6055C21.7431 12.331 22.2515 11.9283 22.6521 11.4279V11.4279Z" fill="black"/>
<path d="M42.6226 27.0238H37.9304L36.8036 30.366H34.8162L39.2605 18.001H41.3254L45.7697 30.366H43.7484L42.6226 27.0238ZM38.4164 25.4816H42.1357L40.3022 20.0576H40.2508L38.4164 25.4816Z" fill="black"/>
<path d="M55.3681 25.8589C55.3681 28.6604 53.8754 30.4603 51.6227 30.4603C51.0521 30.4902 50.4846 30.3582 49.9852 30.0793C49.4858 29.8003 49.0746 29.3858 48.7989 28.883H48.7563V33.3483H46.9141V21.3509H48.6972V22.8503H48.7311C49.0195 22.35 49.4376 21.9376 49.9408 21.6569C50.444 21.3763 51.0135 21.2379 51.5888 21.2565C53.8667 21.2566 55.3681 23.0652 55.3681 25.8589ZM53.4746 25.8589C53.4746 24.0337 52.5356 22.8338 51.1029 22.8338C49.6953 22.8338 48.7486 24.059 48.7486 25.8589C48.7486 27.6753 49.6953 28.8918 51.1029 28.8918C52.5356 28.8918 53.4746 27.7006 53.4746 25.8589H53.4746Z" fill="black"/>
<path d="M65.2468 25.8589C65.2468 28.6604 63.7536 30.4603 61.5009 30.4603C60.9303 30.4902 60.3627 30.3582 59.8633 30.0793C59.3639 29.8003 58.9528 29.3858 58.6771 28.883H58.6345V33.3483H56.7922V21.3509H58.5754V22.8503H58.6093C58.8977 22.35 59.3158 21.9376 59.819 21.6569C60.3222 21.3763 60.8917 21.2379 61.467 21.2565C63.7449 21.2566 65.2468 23.0652 65.2468 25.8589ZM63.3528 25.8589C63.3528 24.0337 62.4138 22.8338 60.9811 22.8338C59.5735 22.8338 58.6267 24.059 58.6267 25.8589C58.6267 27.6753 59.5735 28.8918 60.9811 28.8918C62.4138 28.8918 63.3528 27.7006 63.3528 25.8589V25.8589Z" fill="black"/>
<path d="M71.7742 26.9209C71.9107 28.1471 73.0966 28.9522 74.7171 28.9522C76.2699 28.9522 77.387 28.147 77.387 27.0414C77.387 26.0817 76.7133 25.507 75.1179 25.1132L73.5226 24.7271C71.2622 24.1787 70.2128 23.1168 70.2128 21.3938C70.2128 19.2603 72.0637 17.7949 74.691 17.7949C77.2931 17.7949 79.0763 19.2603 79.1363 21.3938H77.2767C77.1654 20.1598 76.1499 19.4149 74.6658 19.4149C73.1818 19.4149 72.1663 20.1685 72.1663 21.2654C72.1663 22.1396 72.8149 22.654 74.4015 23.0478L75.7578 23.3823C78.2834 23.9822 79.3319 25.0013 79.3319 26.81C79.3319 29.1233 77.4984 30.5721 74.5806 30.5721C71.8507 30.5721 70.0075 29.1573 69.8884 26.9208L71.7742 26.9209Z" fill="black"/>
<path d="M83.3097 19.2173V21.3507H85.0164V22.8161H83.3097V27.786C83.3097 28.5581 83.6514 28.9179 84.4016 28.9179C84.6043 28.9143 84.8065 28.9 85.0077 28.8751V30.3317C84.6703 30.395 84.3275 30.4237 83.9844 30.4173C82.1674 30.4173 81.4587 29.7318 81.4587 27.9834V22.8161H80.1538V21.3507H81.4587V19.2173H83.3097Z" fill="black"/>
<path d="M86.0037 25.8591C86.0037 23.0226 87.6668 21.2402 90.2602 21.2402C92.8623 21.2402 94.5177 23.0226 94.5177 25.8591C94.5177 28.7034 92.8711 30.478 90.2602 30.478C87.6503 30.478 86.0037 28.7034 86.0037 25.8591ZM92.6407 25.8591C92.6407 23.9133 91.7529 22.7649 90.2602 22.7649C88.7675 22.7649 87.8797 23.9221 87.8797 25.8591C87.8797 27.8126 88.7675 28.9523 90.2602 28.9523C91.7529 28.9523 92.6406 27.8126 92.6406 25.8591H92.6407Z" fill="black"/>
<path d="M96.0366 21.3508H97.7937V22.8852H97.8363C97.9552 22.406 98.2347 21.9825 98.6278 21.6858C99.0209 21.3892 99.5037 21.2376 99.995 21.2564C100.207 21.2557 100.419 21.2789 100.626 21.3255V23.0564C100.358 22.9741 100.079 22.9363 99.7985 22.9445C99.5309 22.9336 99.2641 22.981 99.0164 23.0835C98.7687 23.1859 98.5461 23.341 98.3637 23.538C98.1813 23.7351 98.0436 23.9694 97.9599 24.225C97.8762 24.4806 97.8485 24.7513 97.8788 25.0186V30.3658H96.0366L96.0366 21.3508Z" fill="black"/>
<path d="M109.12 27.7183C108.872 29.3549 107.286 30.478 105.256 30.478C102.645 30.478 101.024 28.7209 101.024 25.9019C101.024 23.0742 102.653 21.2402 105.178 21.2402C107.661 21.2402 109.223 22.9536 109.223 25.687V26.321H102.884V26.4328C102.855 26.7646 102.896 27.0988 103.005 27.4133C103.114 27.7278 103.289 28.0154 103.517 28.2569C103.746 28.4984 104.023 28.6883 104.33 28.8141C104.637 28.9399 104.967 28.9986 105.298 28.9863C105.733 29.0273 106.17 28.926 106.544 28.6976C106.917 28.4691 107.207 28.1257 107.371 27.7183L109.12 27.7183ZM102.893 25.0277H107.379C107.396 24.7294 107.351 24.4309 107.247 24.1509C107.143 23.8708 106.983 23.6154 106.776 23.4006C106.57 23.1857 106.321 23.0161 106.046 22.9024C105.771 22.7886 105.475 22.7332 105.178 22.7397C104.878 22.7379 104.581 22.7958 104.303 22.91C104.026 23.0243 103.773 23.1926 103.561 23.4053C103.348 23.6181 103.18 23.8709 103.065 24.1494C102.95 24.4279 102.892 24.7264 102.893 25.0277V25.0277Z" fill="black"/>
<path d="M37.1075 11.2058H37.8984C38.0346 11.2228 38.1728 11.2114 38.3043 11.1721C38.4358 11.1328 38.5578 11.0666 38.6625 10.9776C38.7673 10.8886 38.8526 10.7788 38.913 10.6551C38.9735 10.5313 39.0077 10.3964 39.0136 10.2587C39.0136 9.71075 38.6032 9.3568 37.9071 9.3568C37.7676 9.33722 37.6257 9.34592 37.4896 9.38237C37.3535 9.41882 37.2261 9.48229 37.1148 9.56904C37.0035 9.65578 36.9107 9.76404 36.8418 9.88742C36.7729 10.0108 36.7292 10.1468 36.7135 10.2874H35.8451C35.8601 10.0322 35.9272 9.78279 36.0422 9.55476C36.1573 9.32673 36.3178 9.12493 36.5139 8.96192C36.71 8.79891 36.9373 8.67819 37.1819 8.60728C37.4264 8.53636 37.6828 8.51677 37.9352 8.54971C39.0998 8.54971 39.9198 9.20461 39.9198 10.1474C39.9225 10.4632 39.8173 10.7704 39.6217 11.0177C39.4262 11.265 39.1521 11.4375 38.8452 11.5063V11.5763C39.209 11.5925 39.5516 11.7527 39.7981 12.0219C40.0447 12.2912 40.1751 12.6475 40.1608 13.013C40.1339 13.2758 40.055 13.5305 39.9288 13.7622C39.8026 13.994 39.6316 14.1981 39.4259 14.3626C39.2201 14.5271 38.9837 14.6487 38.7306 14.7203C38.4775 14.7918 38.2126 14.8119 37.9517 14.7794C37.6902 14.8152 37.4241 14.7977 37.1695 14.7281C36.9148 14.6584 36.6767 14.538 36.4694 14.3739C36.2621 14.2098 36.0898 14.0055 35.9627 13.7731C35.8357 13.5407 35.7565 13.285 35.73 13.0213H36.6119C36.6651 13.5896 37.185 13.9563 37.9517 13.9563C38.7184 13.9563 39.2189 13.5445 39.2189 12.9639C39.2189 12.3752 38.7474 12.0124 37.9236 12.0124H37.1075V11.2058Z" fill="black"/>
<path d="M41.1628 13.3677C41.1628 12.5606 41.7621 12.0953 42.8231 12.0292L44.0322 11.9592V11.5722C44.0322 11.0986 43.7214 10.8312 43.1183 10.8312C42.6266 10.8312 42.2868 11.0125 42.188 11.3295H41.3352C41.4252 10.5594 42.1474 10.0654 43.1599 10.0654C44.279 10.0654 44.9102 10.625 44.9102 11.5722V14.6357H44.0612V14.0056H43.9915C43.85 14.2316 43.6514 14.4159 43.4158 14.5395C43.1803 14.6632 42.9163 14.7219 42.6507 14.7096C42.4634 14.7291 42.274 14.709 42.0948 14.6506C41.9156 14.5922 41.7506 14.4966 41.6104 14.3702C41.4702 14.2438 41.358 14.0892 41.2809 13.9166C41.2038 13.7439 41.1636 13.5569 41.1628 13.3677V13.3677ZM44.0322 12.9845V12.6097L42.9421 12.6797C42.3274 12.721 42.0486 12.9311 42.0486 13.3263C42.0486 13.7299 42.3971 13.9647 42.8763 13.9647C43.0167 13.979 43.1586 13.9648 43.2934 13.9229C43.4282 13.8809 43.5533 13.8122 43.6611 13.7208C43.7689 13.6293 43.8574 13.517 43.9211 13.3905C43.9849 13.2641 44.0226 13.126 44.0322 12.9845V12.9845Z" fill="black"/>
<path d="M47.2479 10.8967V14.6356H46.3669V10.1519H49.306V10.8967L47.2479 10.8967Z" fill="black"/>
<path d="M54.6448 12.3919C54.6448 13.8164 53.9274 14.7096 52.8006 14.7096C52.524 14.7286 52.2478 14.6678 52.0044 14.5343C51.761 14.4009 51.5607 14.2004 51.427 13.9565H51.3573V16.1264H50.4763V10.152H51.3243V10.893H51.3902C51.5263 10.6405 51.7293 10.4307 51.9766 10.2868C52.224 10.143 52.5062 10.0706 52.7919 10.0776C53.9274 10.0776 54.6448 10.9668 54.6448 12.3919ZM53.7387 12.3919C53.7387 11.4448 53.2924 10.8725 52.546 10.8725C51.8046 10.8725 51.3408 11.4569 51.3408 12.3958C51.3408 13.3303 51.8045 13.9152 52.5422 13.9152C53.2924 13.9151 53.7387 13.3429 53.7387 12.3919Z" fill="black"/>
<path d="M55.8181 16.2415V15.4796C55.9134 15.4918 56.0094 15.4973 56.1055 15.4961C56.2932 15.5101 56.4794 15.454 56.6284 15.3385C56.7774 15.223 56.8787 15.0563 56.9129 14.8704L56.9787 14.6521L55.363 10.1519H56.3224L57.4415 13.7132H57.5112L58.6264 10.1519H59.5606L57.8965 14.8208C57.5151 15.9118 57.093 16.2619 56.183 16.2619C56.1094 16.2619 55.9003 16.2536 55.8181 16.2415Z" fill="black"/>
<path d="M60.2471 13.3629H61.1241C61.2103 13.7582 61.5791 13.9643 62.0951 13.9643C62.6817 13.9643 63.0419 13.7047 63.0419 13.3011C63.0419 12.8689 62.7185 12.6627 62.0951 12.6627H61.4271V11.9753H62.0835C62.6159 11.9753 62.887 11.7696 62.887 11.3948C62.887 11.0656 62.6246 10.8142 62.0835 10.8142C61.5907 10.8142 61.2306 11.0243 61.1735 11.3782H60.3245C60.388 10.9715 60.6078 10.6061 60.9368 10.3605C61.2657 10.1149 61.6775 10.0088 62.0835 10.065C63.1445 10.065 63.7514 10.5468 63.7514 11.3043C63.7564 11.5153 63.6891 11.7215 63.5608 11.8886C63.4325 12.0557 63.2511 12.1735 63.0467 12.2223V12.2923C63.29 12.3238 63.5133 12.444 63.6743 12.6299C63.8352 12.8159 63.9226 13.0547 63.9199 13.3011C63.9199 14.1535 63.1977 14.7174 62.0951 14.7174C61.1203 14.7174 60.3284 14.2686 60.2471 13.3629Z" fill="black"/>
<path d="M65.1882 14.6356V10.1519H66.0614V13.2358H66.1311L68.1882 10.1519H69.0614V14.6356H68.1882V11.5351H68.1224L66.0614 14.6356L65.1882 14.6356Z" fill="black"/>
<path d="M73.8719 10.8967H72.4663V14.6355H71.5844V10.8967H70.1787V10.1519H73.8719V10.8967Z" fill="black"/>
<path d="M78.6175 13.4251C78.4974 13.8349 78.2379 14.1893 77.8842 14.4264C77.5305 14.6635 77.1051 14.7682 76.6823 14.7223C76.3882 14.7301 76.096 14.6735 75.8259 14.5565C75.5557 14.4395 75.3142 14.2648 75.118 14.0446C74.9218 13.8244 74.7757 13.564 74.6898 13.2814C74.6038 12.9987 74.5801 12.7007 74.6204 12.408C74.5812 12.1144 74.6053 11.8157 74.691 11.5323C74.7768 11.2488 74.9221 10.9872 75.1173 10.765C75.3124 10.5429 75.5528 10.3655 75.8222 10.2448C76.0915 10.1241 76.3835 10.063 76.6784 10.0655C77.9205 10.0655 78.6707 10.9179 78.6707 12.3258V12.6346H75.5187V12.6842C75.5048 12.8488 75.5252 13.0144 75.5788 13.1706C75.6324 13.3267 75.7179 13.4699 75.8299 13.5909C75.9419 13.7119 76.0778 13.808 76.2289 13.873C76.38 13.9381 76.5431 13.9707 76.7075 13.9687C76.9181 13.994 77.1314 13.9558 77.3203 13.859C77.5092 13.7622 77.6652 13.6112 77.7685 13.4251L78.6175 13.4251ZM75.5187 11.9802H77.7723C77.7835 11.8298 77.7631 11.6787 77.7127 11.5366C77.6623 11.3946 77.5828 11.2647 77.4794 11.1553C77.376 11.0459 77.251 10.9595 77.1124 10.9015C76.9738 10.8435 76.8247 10.8153 76.6746 10.8186C76.5222 10.8166 76.3709 10.8452 76.2297 10.9028C76.0885 10.9605 75.9602 11.0459 75.8525 11.1542C75.7447 11.2625 75.6597 11.3914 75.6023 11.5332C75.545 11.6751 75.5166 11.8271 75.5187 11.9802H75.5187Z" fill="black"/>
<path d="M82.3521 10.1519H84.3646C85.2378 10.1519 85.7499 10.5962 85.7499 11.292C85.7513 11.5127 85.6771 11.7273 85.5399 11.8997C85.4026 12.0721 85.2105 12.1919 84.9958 12.2391V12.3091C85.2565 12.3256 85.5009 12.4421 85.6785 12.6345C85.8562 12.8268 85.9535 13.0804 85.9503 13.3427C85.9503 14.125 85.3646 14.6355 84.385 14.6355H82.3521V10.1519ZM83.2252 10.8311V11.9921H84.0984C84.6309 11.9921 84.8855 11.7864 84.8855 11.4072C84.8855 11.0576 84.6638 10.8311 84.1962 10.8311L83.2252 10.8311ZM83.2252 12.6426V13.9564H84.2698C84.7906 13.9564 85.0694 13.7254 85.0694 13.3015C85.0694 12.8527 84.7538 12.6427 84.1594 12.6427L83.2252 12.6426Z" fill="black"/>
</svg>
