<svg width="120" height="36" viewBox="0 0 120 36" fill="none" xmlns="http://www.w3.org/2000/svg">
<g clip-path="url(#clip0_313_2124)">
<path d="M115.318 0.683105H4.68158C2.23746 0.683105 0.256104 2.62138 0.256104 5.01237V30.988C0.256104 33.379 2.23746 35.3173 4.68158 35.3173H115.318C117.763 35.3173 119.744 33.379 119.744 30.988V5.01237C119.744 2.62138 117.763 0.683105 115.318 0.683105Z" fill="white"/>
<path d="M60.5665 19.5152C59.8208 19.517 59.0923 19.735 58.4733 20.1417C57.8542 20.5484 57.3723 21.1256 57.0885 21.8002C56.8048 22.4749 56.7319 23.2167 56.8791 23.9319C57.0263 24.647 57.387 25.3034 57.9155 25.8181C58.4441 26.3327 59.1168 26.6825 59.8485 26.8231C60.5802 26.9638 61.3382 26.889 62.0265 26.6082C62.7148 26.3275 63.3025 25.8533 63.7154 25.2458C64.1282 24.6383 64.3477 23.9246 64.3459 23.1951C64.3531 22.7085 64.2602 22.2254 64.0726 21.7746C63.885 21.3238 63.6066 20.9145 63.2539 20.5712C62.9013 20.2278 62.4816 19.9574 62.02 19.776C61.5583 19.5946 61.064 19.5059 60.5665 19.5152V19.5152ZM60.5665 25.429C60.1095 25.4603 59.6533 25.3563 59.2575 25.1306C58.8616 24.905 58.5443 24.568 58.3467 24.1635C58.1492 23.7591 58.0807 23.3059 58.15 22.8628C58.2192 22.4197 58.4232 22.0072 58.7353 21.6791C59.0473 21.3509 59.4531 21.1221 59.8999 21.0225C60.3466 20.9229 60.8136 20.9571 61.2403 21.1206C61.6669 21.2841 62.0334 21.5694 62.292 21.9394C62.5507 22.3094 62.6897 22.7469 62.6908 23.1951C62.705 23.4791 62.661 23.7631 62.5613 24.0302C62.4616 24.2973 62.3083 24.5422 62.1103 24.7504C61.9123 24.9586 61.6737 25.1259 61.4086 25.2424C61.1434 25.359 60.8571 25.4224 60.5665 25.429ZM52.3175 19.5152C51.5717 19.517 50.8433 19.735 50.2242 20.1417C49.6051 20.5484 49.1232 21.1256 48.8395 21.8002C48.5557 22.4749 48.4828 23.2167 48.63 23.9319C48.7772 24.647 49.1379 25.3034 49.6664 25.8181C50.195 26.3327 50.8677 26.6825 51.5994 26.8231C52.3312 26.9638 53.0891 26.889 53.7774 26.6082C54.4657 26.3275 55.0534 25.8533 55.4663 25.2458C55.8791 24.6383 56.0986 23.9246 56.0968 23.1951C56.104 22.7085 56.0111 22.2254 55.8235 21.7746C55.6359 21.3238 55.3575 20.9145 55.0048 20.5712C54.6522 20.2278 54.2326 19.9574 53.7709 19.776C53.3092 19.5946 52.8149 19.5059 52.3175 19.5152V19.5152ZM52.3175 25.429C51.8604 25.4603 51.4043 25.3563 51.0084 25.1306C50.6125 24.905 50.2952 24.568 50.0977 24.1635C49.9001 23.7591 49.8316 23.3059 49.9009 22.8628C49.9702 22.4197 50.1741 22.0072 50.4862 21.6791C50.7983 21.3509 51.204 21.1221 51.6508 21.0225C52.0975 20.9229 52.5646 20.9571 52.9912 21.1206C53.4178 21.2841 53.7843 21.5694 54.043 21.9394C54.3016 22.3094 54.4406 22.7469 54.4417 23.1951C54.4559 23.4791 54.4119 23.7631 54.3122 24.0302C54.2125 24.2973 54.0592 24.5422 53.8612 24.7504C53.6632 24.9586 53.4246 25.1259 53.1595 25.2424C52.8944 25.359 52.6081 25.4224 52.3175 25.429ZM42.5106 20.6495V22.2081H46.3342C46.2743 22.9421 45.9623 23.6348 45.4491 24.1735C45.0656 24.5558 44.6043 24.8551 44.095 25.052C43.5858 25.2488 43.04 25.339 42.4929 25.3165C41.3661 25.3165 40.2855 24.8786 39.4888 24.0992C38.6921 23.3198 38.2445 22.2626 38.2445 21.1604C38.2445 20.0581 38.6921 19.001 39.4888 18.2216C40.2855 17.4421 41.3661 17.0043 42.4929 17.0043C43.5731 16.9886 44.6162 17.3899 45.396 18.1212L46.5201 17.0216C45.9926 16.5112 45.3662 16.1089 44.6777 15.8383C43.9892 15.5677 43.2525 15.4342 42.5106 15.4457C41.7238 15.4158 40.9388 15.5415 40.2028 15.8154C39.4668 16.0893 38.795 16.5058 38.2274 17.0398C37.6599 17.5738 37.2084 18.2144 36.9 18.9232C36.5916 19.632 36.4326 20.3944 36.4326 21.1647C36.4326 21.935 36.5916 22.6974 36.9 23.4062C37.2084 24.115 37.6599 24.7556 38.2274 25.2896C38.795 25.8236 39.4668 26.2401 40.2028 26.514C40.9388 26.7879 41.7238 26.9136 42.5106 26.8837C43.2677 26.9132 44.0227 26.7858 44.7259 26.5098C45.4291 26.2337 46.0647 25.8152 46.5909 25.2818C47.5204 24.283 48.0156 22.9693 47.9716 21.6193C47.9748 21.2943 47.9482 20.9698 47.892 20.6495H42.5106ZM82.6143 21.8617C82.3834 21.1974 81.9518 20.6173 81.3765 20.1983C80.8011 19.7793 80.1093 19.5411 79.3925 19.5152C78.9084 19.5143 78.4292 19.6105 77.9845 19.798C77.5399 19.9854 77.1393 20.2601 76.8075 20.605C76.4757 20.9498 76.2197 21.3577 76.0554 21.8032C75.891 22.2487 75.8219 22.7224 75.8521 23.1951C75.8446 23.9855 76.0986 24.7571 76.5762 25.3946C77.0539 26.0321 77.7296 26.5014 78.5023 26.7323C79.2751 26.9631 80.1035 26.9433 80.8637 26.6756C81.624 26.4079 82.2753 25.9069 82.7205 25.2472L81.4371 24.3813C81.2458 24.6933 80.9744 24.9509 80.6499 25.1286C80.3254 25.3063 79.9591 25.3979 79.5872 25.3944C79.2036 25.4099 78.8242 25.3115 78.4988 25.1122C78.1734 24.9128 77.9172 24.6218 77.7639 24.2774L82.8001 22.2427L82.6143 21.8617ZM77.4807 23.0912C77.4628 22.8223 77.4999 22.5525 77.5898 22.2978C77.6798 22.043 77.8208 21.8084 78.0046 21.6076C78.1884 21.4068 78.4113 21.2439 78.6603 21.1285C78.9092 21.013 79.1792 20.9473 79.4545 20.9352C79.7397 20.9182 80.0236 20.9839 80.2708 21.1241C80.518 21.2642 80.7174 21.4726 80.8441 21.7232L77.4807 23.0912ZM73.3916 26.6585H75.0467V15.8354H73.3916V26.6585ZM70.6832 20.3378H70.6212C70.374 20.0623 70.0688 19.8424 69.7266 19.6929C69.3845 19.5435 69.0133 19.4681 68.6386 19.472C67.6714 19.5178 66.7592 19.926 66.0913 20.6119C65.4233 21.2978 65.0507 22.2088 65.0507 23.1562C65.0507 24.1035 65.4233 25.0145 66.0913 25.7004C66.7592 26.3863 67.6714 26.7945 68.6386 26.8404C69.0139 26.8477 69.3861 26.7739 69.7289 26.6243C70.0716 26.4746 70.3763 26.2527 70.6212 25.9745H70.6832V26.5027C70.6832 27.914 69.9132 28.6673 68.674 28.6673C68.2601 28.6584 67.8582 28.5294 67.5194 28.2966C67.1805 28.0638 66.9201 27.7378 66.7711 27.3599L65.3372 27.94C65.6023 28.5913 66.0632 29.1486 66.659 29.5382C67.2548 29.9278 67.9574 30.1314 68.674 30.122C70.6124 30.122 72.2144 29.005 72.2144 26.2862V19.7317H70.6832V20.3378ZM68.7802 25.429C68.2003 25.3937 67.656 25.1434 67.2581 24.7291C66.8603 24.3149 66.6388 23.7679 66.6388 23.1995C66.6388 22.6311 66.8603 22.084 67.2581 21.6698C67.656 21.2555 68.2003 21.0053 68.7802 20.9699C69.0637 20.9818 69.3418 21.0495 69.5979 21.1687C69.8541 21.288 70.0832 21.4564 70.2714 21.664C70.4597 21.8716 70.6034 22.1142 70.6939 22.3772C70.7844 22.6402 70.8199 22.9184 70.7982 23.1951C70.8224 23.4728 70.7887 23.7524 70.6993 24.017C70.6098 24.2815 70.4664 24.5256 70.2778 24.7344C70.0891 24.9433 69.8592 25.1125 69.6018 25.2319C69.3444 25.3512 69.0649 25.4183 68.7802 25.429V25.429ZM90.3677 15.8354H86.4025V26.6585H88.0576V22.5544H90.3677C90.8394 22.5875 91.313 22.5253 91.7591 22.3715C92.2051 22.2177 92.614 21.9756 92.9601 21.6604C93.3063 21.3452 93.5824 20.9636 93.7712 20.5394C93.96 20.1152 94.0574 19.6575 94.0574 19.1949C94.0574 18.7322 93.96 18.2745 93.7712 17.8504C93.5824 17.4262 93.3063 17.0446 92.9601 16.7294C92.614 16.4142 92.2051 16.1721 91.7591 16.0183C91.313 15.8645 90.8394 15.8022 90.3677 15.8354V15.8354ZM90.3677 21.0305H88.0576V17.342H90.4031C90.6518 17.342 90.8981 17.3899 91.1279 17.483C91.3577 17.5761 91.5665 17.7126 91.7424 17.8847C91.9183 18.0567 92.0578 18.261 92.153 18.4858C92.2482 18.7106 92.2972 18.9516 92.2972 19.1949C92.2972 19.4382 92.2482 19.6792 92.153 19.904C92.0578 20.1288 91.9183 20.333 91.7424 20.5051C91.5665 20.6772 91.3577 20.8136 91.1279 20.9068C90.8981 20.9999 90.6518 21.0478 90.4031 21.0478L90.3677 21.0305ZM100.582 19.4806C99.9789 19.4443 99.3785 19.5815 98.8547 19.8755C98.3309 20.1694 97.9066 20.6071 97.6343 21.1344L99.0947 21.7318C99.2423 21.4716 99.4637 21.2587 99.7323 21.1188C100.001 20.979 100.305 20.9183 100.608 20.9439C100.818 20.9199 101.031 20.9371 101.235 20.9944C101.438 21.0517 101.627 21.1481 101.792 21.2779C101.957 21.4076 102.094 21.5682 102.194 21.7502C102.295 21.9322 102.358 22.132 102.378 22.3379V22.4418C101.846 22.1682 101.254 22.0255 100.652 22.0262C99.077 22.0262 97.4662 22.8921 97.4662 24.4679C97.4817 24.8029 97.566 25.1314 97.7139 25.4338C97.8617 25.7363 98.0703 26.0066 98.327 26.2287C98.5838 26.4509 98.8836 26.6202 99.2085 26.7268C99.5335 26.8333 99.8771 26.8749 100.219 26.849C100.634 26.8715 101.048 26.7855 101.418 26.5999C101.788 26.4143 102.101 26.1357 102.325 25.7927H102.378V26.6585H103.972V22.4938C103.972 20.5976 102.502 19.4979 100.617 19.4979L100.582 19.4806ZM100.378 25.4117C99.8382 25.4117 99.0859 25.1433 99.0859 24.4939C99.0859 23.6281 100.024 23.3337 100.856 23.3337C101.382 23.321 101.901 23.4466 102.361 23.6973C102.305 24.1675 102.077 24.6021 101.719 24.9205C101.361 25.2389 100.897 25.4196 100.414 25.429L100.378 25.4117ZM109.778 19.7317L107.884 24.4246H107.831L105.866 19.7317H104.096L107.043 26.2949L105.361 29.9401H107.087L111.619 19.7317H109.778ZM94.9082 26.6585H96.5545V15.8354H94.9082V26.6585Z" fill="black"/>
<path d="M9.49646 7.21198C9.2048 7.54933 9.05598 7.98299 9.08047 8.42417V27.5769C9.05035 28.0188 9.19986 28.4544 9.49646 28.789L9.55842 28.8583L20.5247 18.1304V17.8706L9.55842 7.15137L9.49646 7.21198Z" fill="url(#paint0_linear_313_2124)"/>
<path d="M24.1538 21.7061L20.5249 18.1302V17.8704L24.1538 14.2944L24.2334 14.3464L28.5793 16.7535C29.8184 17.4375 29.8184 18.5631 28.5793 19.2558L24.2511 21.6628L24.1538 21.7061Z" fill="url(#paint1_linear_313_2124)"/>
<path d="M24.2597 21.6539L20.5246 18L9.49634 28.7885C9.74644 29.0063 10.0666 29.1316 10.4012 29.1427C10.7359 29.1538 11.0639 29.0499 11.3285 28.8491L24.2597 21.6539" fill="url(#paint2_linear_313_2124)"/>
<path d="M24.2597 14.3465L11.3285 7.1599C11.0656 6.95635 10.7378 6.84997 10.4027 6.85947C10.0676 6.86897 9.7467 6.99375 9.49634 7.21185L20.5246 18.0004L24.2597 14.3465Z" fill="url(#paint3_linear_313_2124)"/>
<path opacity="0.2" d="M24.1535 21.5762L11.3285 28.7195C11.0735 28.9077 10.7628 29.0095 10.4434 29.0095C10.124 29.0095 9.81325 28.9077 9.55829 28.7195V28.7195L9.49634 28.7801L9.55829 28.8493C9.81325 29.0376 10.124 29.1394 10.4434 29.1394C10.7628 29.1394 11.0735 29.0376 11.3285 28.8493L24.2597 21.6541L24.1535 21.5762Z" fill="black"/>
<path opacity="0.12" d="M9.49657 28.6676C9.21227 28.3242 9.07295 27.8874 9.10713 27.4468V27.5767C9.07701 28.0186 9.22652 28.4542 9.52312 28.7888L9.58508 28.7282L9.49657 28.6676Z" fill="black"/>
<path opacity="0.12" d="M28.5793 19.1256L24.1538 21.576L24.2335 21.6539L28.5793 19.2468C28.8358 19.1407 29.0583 18.9689 29.2235 18.7495C29.3886 18.5301 29.4901 18.2711 29.5175 18C29.4621 18.2464 29.3484 18.4766 29.1855 18.6721C29.0225 18.8677 28.8149 19.023 28.5793 19.1256Z" fill="black"/>
<path opacity="0.25" d="M11.3285 7.28113L28.579 16.8748C28.8145 16.9774 29.0222 17.1327 29.1851 17.3283C29.3481 17.5238 29.4618 17.754 29.5172 18.0004C29.4898 17.7293 29.3882 17.4703 29.2231 17.2509C29.058 17.0315 28.8355 16.8597 28.579 16.7536L11.3285 7.15991C10.0982 6.46723 9.08032 7.03869 9.08032 8.42406V8.55393C9.10688 7.16857 10.0982 6.59711 11.3285 7.28113Z" fill="white"/>
<path d="M38.0915 12.6261C37.6005 12.3543 37.195 11.9562 36.9189 11.4749C36.6389 10.9788 36.4919 10.4214 36.4919 9.85468C36.4919 9.28797 36.6389 8.73052 36.9189 8.23446C37.195 7.75318 37.6005 7.35506 38.0915 7.0833C38.5946 6.80612 39.1641 6.66474 39.7414 6.67363C40.1768 6.66373 40.6089 6.74801 41.0071 6.92045C41.4052 7.09289 41.7595 7.34923 42.0447 7.67117L41.3725 8.31024C41.1765 8.07501 40.9317 7.88304 40.6544 7.74695C40.371 7.61609 40.0611 7.54957 39.7477 7.55236C39.3423 7.54704 38.9425 7.64517 38.5877 7.83708C38.2355 8.02793 37.9453 8.31185 37.7502 8.65641C37.5508 9.02865 37.4467 9.44262 37.4467 9.86287C37.4467 10.2831 37.5508 10.6971 37.7502 11.0693C37.9451 11.414 38.2354 11.698 38.5877 11.8887C38.9424 12.0812 39.3422 12.18 39.7477 12.1754C40.0935 12.1774 40.4349 12.1005 40.745 11.9508C41.055 11.8011 41.3251 11.5828 41.5338 11.3131L42.2226 11.9624C41.9251 12.3099 41.5535 12.5896 41.1338 12.7817C40.6507 12.9931 40.124 13.0916 39.5953 13.0696C39.0665 13.0475 38.5503 12.9055 38.0873 12.6547L38.0915 12.6261Z" fill="black"/>
<path d="M43.3071 6.80029H44.2661V9.76012H44.3185L46.8017 6.80029H48.0057V6.8515L45.3654 9.90555L48.1355 12.8551V12.9063H46.8792L44.3101 10.1104H44.2577V12.9063H43.3071V6.80029Z" fill="black"/>
<path d="M51.0921 6.80029H52.1809L54.5428 12.9063H53.4959L52.9201 11.3373H50.3677L49.7981 12.9063H48.7512L51.0921 6.80029ZM52.5997 10.4688L51.9024 8.59667L51.6679 7.89614H51.6156L51.379 8.59667L50.6817 10.4688H52.5997Z" fill="black"/>
<path d="M58.1527 10.1862C57.7536 10.5269 57.2374 10.7069 56.708 10.6901C56.353 10.6952 56.0019 10.6173 55.6841 10.4627C55.3861 10.3156 55.1381 10.0872 54.9701 9.80518C54.7902 9.49977 54.6996 9.15183 54.7083 8.79945V6.80029H55.6778V8.64378C55.6674 8.80131 55.6916 8.9592 55.7486 9.10686C55.8057 9.25452 55.8943 9.38855 56.0086 9.49998C56.2523 9.71153 56.571 9.82111 56.8964 9.80518C57.1373 9.80959 57.3759 9.75958 57.5938 9.65904C57.8117 9.5585 58.003 9.41014 58.1527 9.2255V6.80029H59.1033V12.9063H58.1527V10.1862Z" fill="black"/>
<path d="M62.3004 6.80029H63.3913L65.7532 12.9063H64.7062L64.1325 11.3373H61.578L61.0022 12.9063H59.9553L62.3004 6.80029ZM63.8101 10.4688L63.1128 8.59667L62.8762 7.89614H62.8239L62.5894 8.59667L61.8921 10.4688H63.8101Z" fill="black"/>
<path d="M67.3737 7.68722H65.6233V6.80029H70.0769V7.68722H68.3327V12.9063H67.3737V7.68722Z" fill="black"/>
<path d="M71.0693 6.80029H72.0304V8.98585H73.3537C73.7282 8.98232 74.0986 9.06291 74.4362 9.22141C74.682 9.3448 74.899 9.51655 75.0736 9.7259C75.2483 9.93524 75.3768 10.1776 75.4511 10.4379C75.5254 10.6981 75.5439 10.9706 75.5055 11.2382C75.4671 11.5058 75.3725 11.7627 75.2277 11.9928C75.0323 12.2859 74.7586 12.5211 74.4362 12.6728C74.0987 12.832 73.7284 12.9133 73.3537 12.9104H71.0693V6.80029ZM73.4249 12.0276C73.6359 12.0316 73.8439 11.9785 74.0258 11.874C74.1952 11.7762 74.3337 11.6344 74.4258 11.4643C74.5178 11.3009 74.566 11.1173 74.566 10.9307C74.566 10.7441 74.5178 10.5606 74.4258 10.3971C74.3327 10.2278 74.1945 10.0862 74.0258 9.98748C73.8452 9.87921 73.6367 9.82377 73.4249 9.82771H72.0304V12.0194L73.4249 12.0276Z" fill="black"/>
<path d="M78.6115 6.80029H79.56V10.178L79.5076 11.3537H79.56L82.3594 6.80029H83.4482V12.9063H82.4976V9.44467L82.55 8.26689H82.4976L79.6563 12.9063H78.6094L78.6115 6.80029Z" fill="black"/>
<path d="M85.3266 12.6501C84.9224 12.3728 84.6357 11.9605 84.5205 11.4908L85.3936 11.1508C85.4528 11.4408 85.6072 11.7041 85.8333 11.9004C86.0472 12.0809 86.3215 12.1779 86.6039 12.1729C86.9053 12.179 87.1981 12.0745 87.4247 11.88C87.5327 11.7904 87.6192 11.6786 87.6778 11.5526C87.7365 11.4265 87.7659 11.2893 87.7639 11.1508C87.7643 10.9661 87.7066 10.7859 87.5985 10.6346C87.4835 10.4736 87.3266 10.3456 87.1441 10.2638C86.9485 10.1708 86.7334 10.1238 86.5159 10.1266H86.0218V9.30727H86.4845C86.7675 9.31681 87.0448 9.22831 87.2676 9.05737C87.3694 8.97402 87.4498 8.86857 87.5025 8.74944C87.5552 8.63031 87.5787 8.50079 87.5712 8.37118C87.5725 8.25383 87.5468 8.1377 87.496 8.03135C87.4453 7.925 87.3708 7.83114 87.2781 7.75669C87.0752 7.58831 86.8154 7.49994 86.5494 7.50884C86.3073 7.50177 86.0713 7.58361 85.8878 7.73825C85.7134 7.88303 85.5837 8.07239 85.513 8.28515L84.6755 7.94309C84.8099 7.59207 85.0402 7.28388 85.3413 7.05207C85.69 6.78543 86.124 6.64827 86.5662 6.66493C86.9148 6.65801 87.26 6.73244 87.5733 6.88205C87.8538 7.0162 88.0919 7.22218 88.2622 7.47812C88.4289 7.73439 88.5154 8.03266 88.5114 8.33636C88.5224 8.60673 88.4533 8.87444 88.3125 9.10735C88.1718 9.34026 87.9653 9.52846 87.7178 9.64934V9.70054C88.0057 9.82578 88.2548 10.0229 88.4402 10.272C88.6322 10.5381 88.7306 10.858 88.7208 11.1835C88.7247 11.5186 88.6286 11.8474 88.4444 12.1299C88.2607 12.4166 87.9999 12.6483 87.6906 12.7997C87.3586 12.9645 86.9908 13.0481 86.6185 13.0434C86.1567 13.0464 85.7052 12.9089 85.3266 12.6501Z" fill="black"/>
</g>
<defs>
<linearGradient id="paint0_linear_313_2124" x1="19.5511" y1="8.22503" x2="5.02563" y2="23.0733" gradientUnits="userSpaceOnUse">
<stop stop-color="#00A0FF"/>
<stop offset="0.01" stop-color="#00A1FF"/>
<stop offset="0.26" stop-color="#00BEFF"/>
<stop offset="0.51" stop-color="#00D2FF"/>
<stop offset="0.76" stop-color="#00DFFF"/>
<stop offset="1" stop-color="#00E3FF"/>
</linearGradient>
<linearGradient id="paint1_linear_313_2124" x1="30.199" y1="18.0003" x2="8.78855" y2="18.0003" gradientUnits="userSpaceOnUse">
<stop stop-color="#FFE000"/>
<stop offset="0.41" stop-color="#FFBD00"/>
<stop offset="0.78" stop-color="#FFA500"/>
<stop offset="1" stop-color="#FF9C00"/>
</linearGradient>
<linearGradient id="paint2_linear_313_2124" x1="22.2329" y1="19.9915" x2="2.53059" y2="40.1227" gradientUnits="userSpaceOnUse">
<stop stop-color="#FF3A44"/>
<stop offset="1" stop-color="#C31162"/>
</linearGradient>
<linearGradient id="paint3_linear_313_2124" x1="6.71714" y1="0.839165" x2="15.5121" y2="9.82956" gradientUnits="userSpaceOnUse">
<stop stop-color="#32A071"/>
<stop offset="0.07" stop-color="#2DA771"/>
<stop offset="0.48" stop-color="#15CF74"/>
<stop offset="0.8" stop-color="#06E775"/>
<stop offset="1" stop-color="#00F076"/>
</linearGradient>
<clipPath id="clip0_313_2124">
<rect width="119.488" height="34.6341" fill="white" transform="translate(0.256104 0.683105)"/>
</clipPath>
</defs>
</svg>
