<svg width="308" height="27" viewBox="0 0 308 27" fill="none" xmlns="http://www.w3.org/2000/svg">
<path d="M46.8386 20.1009H32.1856L29.1617 26.7018H25.1149L37.5888 0.319336H41.4799L53.9983 26.7018H49.8625L46.8386 20.1009ZM45.46 17.0772L39.5232 4.15215L33.5864 17.0772H45.46Z" fill="#2F3140"/>
<path d="M153.1 15.2886C154.056 16.3745 154.546 17.7799 154.546 19.4834C154.546 21.7618 153.678 23.5504 151.922 24.8067C150.165 26.063 147.63 26.7018 144.295 26.7018H131.688V0.319336H143.539C146.563 0.319336 148.92 0.894247 150.61 2.06538C152.3 3.23652 153.145 4.91869 153.145 7.09062C153.145 8.51727 152.767 9.75231 152.033 10.7531C151.277 11.7539 150.232 12.5204 148.853 13.0102C150.743 13.4361 152.144 14.2026 153.1 15.2886ZM135.601 11.9242H143.272C145.185 11.9242 146.652 11.5622 147.653 10.8383C148.653 10.1143 149.165 9.04963 149.165 7.64427C149.165 6.2389 148.653 5.15292 147.63 4.42894C146.608 3.68368 145.14 3.3217 143.25 3.3217H135.579V11.9242H135.601ZM150.565 19.2066C150.565 17.6947 150.032 16.5875 148.965 15.8635C147.897 15.1395 146.319 14.7988 144.228 14.7988H135.601V23.7421H144.228C148.453 23.7208 150.565 22.2089 150.565 19.2066Z" fill="#2F3140"/>
<path d="M188.943 25.254C186.72 24.0828 184.963 22.4645 183.696 20.399C182.428 18.3336 181.784 16.0339 181.784 13.5C181.784 10.9661 182.428 8.66641 183.696 6.60095C184.963 4.53549 186.72 2.91718 188.943 1.74605C191.167 0.574911 193.679 0 196.459 0C199.216 0 201.706 0.574911 203.93 1.74605C206.153 2.91718 207.91 4.5142 209.155 6.57966C210.422 8.62383 211.045 10.9235 211.045 13.5C211.045 16.0765 210.422 18.3762 209.155 20.4204C207.888 22.4645 206.153 24.0828 203.93 25.254C201.706 26.4251 199.216 27 196.459 27C193.679 27 191.189 26.4251 188.943 25.254ZM201.929 22.3368C203.552 21.4637 204.819 20.25 205.753 18.6956C206.687 17.1412 207.154 15.4164 207.154 13.5213C207.154 11.6049 206.687 9.88012 205.753 8.347C204.819 6.79258 203.552 5.57886 201.929 4.70583C200.305 3.8328 198.504 3.38565 196.481 3.38565C194.458 3.38565 192.634 3.8328 190.989 4.70583C189.344 5.57886 188.054 6.79258 187.12 8.347C186.186 9.90141 185.719 11.6262 185.719 13.5213C185.719 15.4377 186.186 17.1625 187.12 18.6956C188.054 20.25 189.344 21.4637 190.989 22.3368C192.634 23.2098 194.458 23.6569 196.481 23.6569C198.482 23.6569 200.305 23.2098 201.929 22.3368Z" fill="#2F3140"/>
<path d="M249.334 25.254C247.11 24.0828 245.354 22.4645 244.086 20.399C242.819 18.3336 242.174 16.0339 242.174 13.5C242.174 10.9661 242.819 8.66641 244.086 6.60095C245.354 4.53549 247.11 2.91718 249.334 1.74605C251.557 0.574911 254.07 0 256.849 0C259.606 0 262.097 0.574911 264.32 1.74605C266.544 2.91718 268.3 4.5142 269.545 6.57966C270.813 8.62383 271.435 10.9235 271.435 13.5C271.435 16.0765 270.813 18.3762 269.545 20.4204C268.278 22.4645 266.544 24.0828 264.32 25.254C262.097 26.4251 259.606 27 256.849 27C254.07 27 251.579 26.4251 249.334 25.254ZM262.319 22.3368C263.942 21.4637 265.21 20.25 266.143 18.6956C267.077 17.1412 267.544 15.4164 267.544 13.5213C267.544 11.6049 267.077 9.88012 266.143 8.347C265.21 6.79258 263.942 5.57886 262.319 4.70583C260.696 3.8328 258.895 3.38565 256.871 3.38565C254.848 3.38565 253.025 3.8328 251.379 4.70583C249.734 5.57886 248.444 6.79258 247.51 8.347C246.577 9.90141 246.11 11.6262 246.11 13.5213C246.11 15.4377 246.577 17.1625 247.51 18.6956C248.444 20.25 249.734 21.4637 251.379 22.3368C253.025 23.2098 254.848 23.6569 256.871 23.6569C258.873 23.6569 260.696 23.2098 262.319 22.3368Z" fill="#2F3140"/>
<path d="M93.2877 19.9944V0.319336H89.4188V23.4227H77.9677V0.319336H74.121V23.4227H62.6477V0.319336H58.7566V26.7018H90.2193L93.2877 19.9944Z" fill="#2F3140"/>
<path d="M179.649 0.361912V0.319336H156.947V3.59852H166.352V26.7018H170.221V3.59852H178.181L179.649 0.361912Z" fill="#2F3140"/>
<path d="M4.14725 13.0528V3.51334H19.5562L21.0459 0.404515V0.319336H0.256104V21.2933L4.14725 13.0528Z" fill="#2F3140"/>
<path d="M20.2232 13.0098C18.5111 11.7109 16.0207 11.0508 12.7522 11.0508H9.88385L8.50527 14.0319H11.9073C16.5322 14.0319 18.8446 15.6289 18.8446 18.8229C18.8446 20.4412 18.2442 21.6549 17.0658 22.4853C15.8873 23.3158 14.1752 23.7203 11.9073 23.7203H4.1472V23.5074L3.63579 24.6359L2.67969 26.7014H12.0629C15.5093 26.7014 18.1553 26.02 20.0008 24.6359C21.8463 23.2519 22.7802 21.2716 22.7802 18.6738C22.7802 16.2038 21.913 14.33 20.2232 13.0098Z" fill="#2F3140"/>
<path d="M114.189 0.319336H110.52L98.046 26.7018H102.093L114.189 0.319336Z" fill="#2F3140"/>
<path d="M122.394 17.0767H110.564L110.542 17.1406L109.186 20.1003H119.77L122.816 26.7013H126.952L122.394 17.0767Z" fill="#2F3140"/>
<path d="M307.212 0.276855H306.189L301.297 10.881L303.432 7.45274L303.476 26.6807H307.256L307.212 0.276855Z" fill="#2F3140"/>
<path d="M292.381 18.3976L281.152 0.276855H277.906V26.6807H281.686V7.55921L290.691 21.9535L292.381 18.3976Z" fill="#2F3140"/>
<path d="M235.792 0.319336L225.853 13.4999L235.97 26.6805L235.992 26.7018H240.484L230.167 13.0954L240.017 0.319336H235.792Z" fill="#2F3140"/>
<path d="M221.317 11.7752V0.319336H217.448V26.7018H221.317V15.097V11.7752Z" fill="#2F3140"/>
</svg>
