<svg width="144" height="143" viewBox="0 0 144 143" fill="none" xmlns="http://www.w3.org/2000/svg">
<g clip-path="url(#clip0_313_1416)">
<mask id="mask0_313_1416" style="mask-type:luminance" maskUnits="userSpaceOnUse" x="0" y="0" width="144" height="143">
<path d="M137.536 0H5.9761C2.81703 0 0.256104 2.56093 0.256104 5.72V137.28C0.256104 140.439 2.81703 143 5.9761 143H137.536C140.695 143 143.256 140.439 143.256 137.28V5.72C143.256 2.56093 140.695 0 137.536 0Z" fill="white"/>
</mask>
<g mask="url(#mask0_313_1416)">
<path d="M143.256 0H0.256104V143H143.256V0Z" fill="white"/>
<g clip-path="url(#clip1_313_1416)">
<path d="M47.5491 10.9549V12.8011C47.5491 13.481 48.0999 14.0276 48.7799 14.0276H50.626C51.3103 14.0276 51.8568 13.4767 51.8568 12.7968V10.9549C51.8525 10.2707 51.3017 9.72412 50.6217 9.72412H48.7799C48.0999 9.72412 47.5491 10.275 47.5491 10.9549Z" fill="#2F3140"/>
<path d="M60.2012 14.0273H55.8977V11.1871C55.8977 10.379 56.5528 9.7239 57.3609 9.7239H60.2012V14.0273Z" fill="#2F3140"/>
<path d="M64.3755 9.72412H60.072V14.0276H64.3755V9.72412Z" fill="#2F3140"/>
<path d="M68.5498 9.72412H64.2463V14.0276H68.5498V9.72412Z" fill="#2F3140"/>
<path d="M72.7243 9.72412H68.4209V14.0276H72.7243V9.72412Z" fill="#2F3140"/>
<path d="M76.8987 9.72412H72.5952V14.0276H76.8987V9.72412Z" fill="#2F3140"/>
<path d="M76.7695 14.0273V9.7239H79.6098C80.4179 9.7239 81.073 10.379 81.073 11.1871V14.0273H76.7695Z" fill="#2F3140"/>
<path d="M60.2012 13.8984V18.2019H57.3609C56.5528 18.2019 55.8977 17.5468 55.8977 16.7387V13.8984H60.2012Z" fill="#2F3140"/>
<path d="M60.072 13.8984H64.3755V16.7387C64.3755 17.5468 63.7204 18.2019 62.9123 18.2019H60.072V13.8984Z" fill="#2F3140"/>
<path d="M51.8525 22.376H47.5491V19.5357C47.5491 18.7276 48.2042 18.0725 49.0123 18.0725H51.8525V22.376Z" fill="#2F3140"/>
<path d="M51.7234 22.376V18.0725H54.5637C55.3718 18.0725 56.0268 18.7276 56.0268 19.5357V22.376H51.7234Z" fill="#2F3140"/>
<path d="M67.2373 22.29V22.376H68.5499V21.0635H68.4638C68.4638 21.7434 67.9129 22.29 67.2373 22.29Z" fill="#2F3140"/>
<path d="M68.4209 22.376V19.5357C68.4209 18.7276 69.076 18.0725 69.8841 18.0725H71.2612C72.0693 18.0725 72.7243 18.7276 72.7243 19.5357V22.376H68.4209Z" fill="#2F3140"/>
<path d="M76.7695 19.3035V21.1497C76.7695 21.8297 77.3204 22.3762 78.0003 22.3762H79.8465C80.5307 22.3762 81.0773 21.8254 81.0773 21.1454V19.3035C81.073 18.6193 80.5221 18.0728 79.8422 18.0728H78.0003C77.3204 18.0728 76.7695 18.6236 76.7695 19.3035Z" fill="#2F3140"/>
<path d="M89.4216 22.376H86.5814C85.7733 22.376 85.1182 21.7209 85.1182 20.9128V19.5357C85.1182 18.7276 85.7733 18.0725 86.5814 18.0725H89.4216V22.376Z" fill="#2F3140"/>
<path d="M89.2925 22.376V18.0725H92.1328C92.9408 18.0725 93.5959 18.7276 93.5959 19.5357V22.376H89.2925Z" fill="#2F3140"/>
<path d="M46.3657 26.4648V26.5508H47.6783V25.2383H47.5922C47.5922 25.9182 47.0414 26.4648 46.3657 26.4648Z" fill="#2F3140"/>
<path d="M51.8525 22.2471H47.5491V26.5505H51.8525V22.2471Z" fill="#2F3140"/>
<path d="M56.0268 22.2471H51.7234V26.5505H56.0268V22.2471Z" fill="#2F3140"/>
<path d="M68.5498 26.5503H64.2464V23.71C64.2464 22.9019 64.9014 22.2468 65.7095 22.2468H68.5498V26.5503Z" fill="#2F3140"/>
<path d="M72.7243 22.2471H68.4209V26.5505H72.7243V22.2471Z" fill="#2F3140"/>
<path d="M72.5952 26.5503V22.2468H75.4355C76.2436 22.2468 76.8987 22.9019 76.8987 23.71V26.5503H72.5952Z" fill="#2F3140"/>
<path d="M80.9438 23.4779V25.324C80.9438 26.004 81.4947 26.5505 82.1746 26.5505H84.0208C84.7051 26.5505 85.2516 25.9997 85.2516 25.3197V23.4779C85.2473 22.7936 84.6965 22.2471 84.0165 22.2471H82.1746C81.4947 22.2471 80.9438 22.7979 80.9438 23.4779Z" fill="#2F3140"/>
<path d="M93.4668 23.4779V25.324C93.4668 26.004 94.0176 26.5505 94.6976 26.5505H96.5438C97.228 26.5505 97.7745 25.9997 97.7745 25.3197V23.4779C97.7702 22.7936 97.2194 22.2471 96.5395 22.2471H94.6976C94.0176 22.2471 93.4668 22.7979 93.4668 23.4779Z" fill="#2F3140"/>
<path d="M47.6782 30.7246H44.8379C44.0299 30.7246 43.3748 30.0695 43.3748 29.2614V27.8843C43.3748 27.0762 44.0299 26.4212 44.8379 26.4212H47.6782V30.7246Z" fill="#2F3140"/>
<path d="M51.8525 26.4214H47.5491V30.7248H51.8525V26.4214Z" fill="#2F3140"/>
<path d="M51.7234 26.4214H56.0268V29.2617C56.0268 30.0697 55.3718 30.7248 54.5637 30.7248H51.7234V26.4214Z" fill="#2F3140"/>
<path d="M68.5498 26.4214V30.7248H65.7095C64.9014 30.7248 64.2464 30.0697 64.2464 29.2617V26.4214H68.5498Z" fill="#2F3140"/>
<path d="M68.4209 26.4214H72.7243V29.2617C72.7243 30.0697 72.0693 30.7248 71.2612 30.7248H68.4209V26.4214Z" fill="#2F3140"/>
<path d="M76.7695 27.6522V29.4984C76.7695 30.1783 77.3204 30.7248 78.0003 30.7248H79.8465C80.5307 30.7248 81.0773 30.174 81.0773 29.494V27.6522C81.073 26.9679 80.5221 26.4214 79.8422 26.4214H78.0003C77.3204 26.4214 76.7695 26.9722 76.7695 27.6522Z" fill="#2F3140"/>
<path d="M88.1091 30.6391V30.7251H89.4217V29.4126H89.3356C89.3356 30.0925 88.7848 30.6391 88.1091 30.6391Z" fill="#2F3140"/>
<path d="M89.2925 30.7246V27.8843C89.2925 27.0762 89.9476 26.4212 90.7557 26.4212H92.1328C92.9408 26.4212 93.5959 27.0762 93.5959 27.8843V30.7246H89.2925Z" fill="#2F3140"/>
<path d="M51.8525 30.5957V33.436C51.8525 34.2441 51.1975 34.8992 50.3894 34.8992H49.0123C48.2042 34.8992 47.5491 34.2441 47.5491 33.436V30.5957H51.8525Z" fill="#2F3140"/>
<path d="M55.8977 31.8265V33.6727C55.8977 34.3526 56.4485 34.8992 57.1285 34.8992H58.9747C59.6589 34.8992 60.2055 34.3483 60.2055 33.6684V31.8265C60.2012 31.1422 59.6503 30.5957 58.9704 30.5957H57.1285C56.4485 30.5957 55.8977 31.1465 55.8977 31.8265Z" fill="#2F3140"/>
<path d="M72.5952 31.8265V33.6727C72.5952 34.3526 73.1461 34.8992 73.826 34.8992H75.6722C76.3564 34.8992 76.903 34.3483 76.903 33.6684V31.8265C76.8987 31.1422 76.3478 30.5957 75.6679 30.5957H73.826C73.1461 30.5957 72.5952 31.1465 72.5952 31.8265Z" fill="#2F3140"/>
<path d="M85.2473 34.8989H82.407C81.599 34.8989 80.9439 34.2438 80.9439 33.4358V32.0587C80.9439 31.2506 81.599 30.5955 82.407 30.5955H85.2473V34.8989Z" fill="#2F3140"/>
<path d="M89.4216 30.5957H85.1182V34.8992H89.4216V30.5957Z" fill="#2F3140"/>
<path d="M93.5959 30.5957H89.2925V34.8992H93.5959V30.5957Z" fill="#2F3140"/>
<path d="M93.4668 34.8989V30.5955H96.3071C97.1152 30.5955 97.7702 31.2506 97.7702 32.0587V34.8989H93.4668Z" fill="#2F3140"/>
<path d="M43.3748 39.0732V36.233C43.3748 35.4249 44.0298 34.7698 44.8379 34.7698H46.215C47.0231 34.7698 47.6782 35.4249 47.6782 36.233V39.0732H43.3748Z" fill="#2F3140"/>
<path d="M51.7234 36.0008V37.847C51.7234 38.5269 52.2742 39.0735 52.9542 39.0735H54.8004C55.4846 39.0735 56.0311 38.5226 56.0311 37.8427V36.0008C56.0268 35.3166 55.476 34.77 54.7961 34.77H52.9542C52.2742 34.77 51.7234 35.3209 51.7234 36.0008Z" fill="#2F3140"/>
<path d="M60.072 36.0008V37.847C60.072 38.5269 60.6229 39.0735 61.3028 39.0735H63.149C63.8332 39.0735 64.3798 38.5226 64.3798 37.8427V36.0008C64.3755 35.3166 63.8246 34.77 63.1447 34.77H61.3028C60.6229 34.77 60.072 35.3209 60.072 36.0008Z" fill="#2F3140"/>
<path d="M68.4209 36.0008V37.847C68.4209 38.5269 68.9717 39.0735 69.6517 39.0735H71.4979C72.1821 39.0735 72.7286 38.5226 72.7286 37.8427V36.0008C72.7243 35.3166 72.1735 34.77 71.4936 34.77H69.6517C68.9717 34.77 68.4209 35.3209 68.4209 36.0008Z" fill="#2F3140"/>
<path d="M75.5859 38.9877V39.0738H76.8985V37.7612H76.8124C76.8124 38.4412 76.2616 38.9877 75.5859 38.9877Z" fill="#2F3140"/>
<path d="M76.7695 39.0732V36.233C76.7695 35.4249 77.4246 34.7698 78.2327 34.7698H79.6098C80.4179 34.7698 81.073 35.4249 81.073 36.233V39.0732H76.7695Z" fill="#2F3140"/>
<path d="M89.4216 34.77V37.6103C89.4216 38.4184 88.7665 39.0735 87.9585 39.0735H86.5814C85.7733 39.0735 85.1182 38.4184 85.1182 37.6103V34.77H89.4216Z" fill="#2F3140"/>
<path d="M97.7702 34.77H93.4668V39.0735H97.7702V34.77Z" fill="#2F3140"/>
<path d="M42.1914 43.162V43.2481H43.504V41.9355H43.4179C43.4179 42.6155 42.867 43.162 42.1914 43.162Z" fill="#2F3140"/>
<path d="M47.6782 38.9443H43.3748V43.2478H47.6782V38.9443Z" fill="#2F3140"/>
<path d="M47.5491 43.2476V38.9441H50.3893C51.1974 38.9441 51.8525 39.5992 51.8525 40.4073V43.2476H47.5491Z" fill="#2F3140"/>
<path d="M76.8987 43.2476H72.5952V40.4073C72.5952 39.5992 73.2503 38.9441 74.0584 38.9441H76.8987V43.2476Z" fill="#2F3140"/>
<path d="M81.073 38.9443H76.7695V43.2478H81.073V38.9443Z" fill="#2F3140"/>
<path d="M97.7703 38.9443V41.7846C97.7703 42.5927 97.1152 43.2478 96.3071 43.2478H94.93C94.1219 43.2478 93.4668 42.5927 93.4668 41.7846V38.9443H97.7703Z" fill="#2F3140"/>
<path d="M22.6321 47.4219H18.3286V44.5816C18.3286 43.7735 18.9837 43.1184 19.7918 43.1184H22.6321V47.4219Z" fill="#2F3140"/>
<path d="M22.5029 47.4219V43.1184H25.3432C26.1513 43.1184 26.8064 43.7735 26.8064 44.5816V47.4219H22.5029Z" fill="#2F3140"/>
<path d="M39.3296 47.4219H36.4893C35.6812 47.4219 35.0261 46.7668 35.0261 45.9587V44.5816C35.0261 43.7735 35.6812 43.1184 36.4893 43.1184H39.3296V47.4219Z" fill="#2F3140"/>
<path d="M43.5039 43.1187H39.2004V47.4221H43.5039V43.1187Z" fill="#2F3140"/>
<path d="M47.6782 43.1187H43.3748V47.4221H47.6782V43.1187Z" fill="#2F3140"/>
<path d="M51.8525 43.1187H47.5491V47.4221H51.8525V43.1187Z" fill="#2F3140"/>
<path d="M76.8987 43.1187V47.4221H74.0584C73.2503 47.4221 72.5952 46.767 72.5952 45.9589V43.1187H76.8987Z" fill="#2F3140"/>
<path d="M81.073 43.1187H76.7695V47.4221H81.073V43.1187Z" fill="#2F3140"/>
<path d="M83.9348 47.3363V47.4224H85.2474V46.1099H85.1613C85.1613 46.7898 84.6105 47.3363 83.9348 47.3363Z" fill="#2F3140"/>
<path d="M89.4216 47.4219H85.1182V44.5816C85.1182 43.7735 85.7733 43.1184 86.5814 43.1184H89.4216V47.4219Z" fill="#2F3140"/>
<path d="M89.2925 47.4219V43.1184H92.1328C92.9408 43.1184 93.5959 43.7735 93.5959 44.5816V47.4219H89.2925Z" fill="#2F3140"/>
<path d="M96.4578 47.3363V47.4224H97.7703V46.1099H97.6842C97.6842 46.7898 97.1334 47.3363 96.4578 47.3363Z" fill="#2F3140"/>
<path d="M101.945 47.4219H97.6411V44.5816C97.6411 43.7735 98.2962 43.1184 99.1043 43.1184H101.945V47.4219Z" fill="#2F3140"/>
<path d="M101.816 47.4219V43.1184H104.656C105.464 43.1184 106.119 43.7735 106.119 44.5816V47.4219H101.816Z" fill="#2F3140"/>
<path d="M108.981 47.3363V47.4224H110.293V46.1099H110.207C110.207 46.7898 109.656 47.3363 108.981 47.3363Z" fill="#2F3140"/>
<path d="M110.164 47.4219V44.5816C110.164 43.7735 110.819 43.1184 111.627 43.1184H113.005C113.813 43.1184 114.468 43.7735 114.468 44.5816V47.4219H110.164Z" fill="#2F3140"/>
<path d="M22.6321 47.2935H18.3286V51.5969H22.6321V47.2935Z" fill="#2F3140"/>
<path d="M26.8064 47.2935H22.5029V51.5969H26.8064V47.2935Z" fill="#2F3140"/>
<path d="M30.9807 47.2935H26.6772V51.5969H30.9807V47.2935Z" fill="#2F3140"/>
<path d="M30.8518 51.5967V47.2932H33.6921C34.5002 47.2932 35.1553 47.9483 35.1553 48.7564V51.5967H30.8518Z" fill="#2F3140"/>
<path d="M51.8525 47.2935V50.1337C51.8525 50.9418 51.1975 51.5969 50.3894 51.5969H49.0123C48.2042 51.5969 47.5491 50.9418 47.5491 50.1337V47.2935H51.8525Z" fill="#2F3140"/>
<path d="M54.7144 51.5107V51.5967H56.0269V50.2842H55.9408C55.9408 50.9641 55.39 51.5107 54.7144 51.5107Z" fill="#2F3140"/>
<path d="M60.2012 51.5967H55.8977V48.7564C55.8977 47.9483 56.5528 47.2932 57.3609 47.2932H60.2012V51.5967Z" fill="#2F3140"/>
<path d="M64.3755 47.2935H60.072V51.5969H64.3755V47.2935Z" fill="#2F3140"/>
<path d="M68.5498 47.2935H64.2463V51.5969H68.5498V47.2935Z" fill="#2F3140"/>
<path d="M68.4209 51.5967V47.2932H71.2612C72.0693 47.2932 72.7243 47.9483 72.7243 48.7564V51.5967H68.4209Z" fill="#2F3140"/>
<path d="M81.073 47.2935V51.5969H78.2327C77.4246 51.5969 76.7696 50.9418 76.7696 50.1337V47.2935H81.073Z" fill="#2F3140"/>
<path d="M85.2473 47.2935H80.9438V51.5969H85.2473V47.2935Z" fill="#2F3140"/>
<path d="M85.1182 47.2935H89.4216V50.1337C89.4216 50.9418 88.7665 51.5969 87.9584 51.5969H85.1182V47.2935Z" fill="#2F3140"/>
<path d="M92.2834 51.5107V51.5967H93.596V50.2842H93.5099C93.5099 50.9641 92.9591 51.5107 92.2834 51.5107Z" fill="#2F3140"/>
<path d="M97.7703 51.5967H93.4668V48.7564C93.4668 47.9483 94.1219 47.2932 94.93 47.2932H97.7703V51.5967Z" fill="#2F3140"/>
<path d="M101.945 47.2935H97.6411V51.5969H101.945V47.2935Z" fill="#2F3140"/>
<path d="M106.119 47.2935H101.816V51.5969H106.119V47.2935Z" fill="#2F3140"/>
<path d="M110.293 47.2935H105.99V51.5969H110.293V47.2935Z" fill="#2F3140"/>
<path d="M114.468 47.2935H110.164V51.5969H114.468V47.2935Z" fill="#2F3140"/>
<path d="M114.339 51.5967V47.2932H117.179C117.987 47.2932 118.642 47.9483 118.642 48.7564V51.5967H114.339Z" fill="#2F3140"/>
<path d="M126.862 48.5242V50.3704C126.862 51.0504 127.412 51.5969 128.092 51.5969H129.939C130.623 51.5969 131.169 51.0461 131.169 50.3661V48.5242C131.165 47.84 130.614 47.2935 129.934 47.2935H128.092C127.412 47.2935 126.862 47.8443 126.862 48.5242Z" fill="#2F3140"/>
<path d="M22.6321 51.4678V54.308C22.6321 55.1161 21.977 55.7712 21.1689 55.7712H19.7918C18.9837 55.7712 18.3286 55.1161 18.3286 54.308V51.4678H22.6321Z" fill="#2F3140"/>
<path d="M30.9807 51.4678V54.308C30.9807 55.1161 30.3256 55.7712 29.5175 55.7712H28.1404C27.3324 55.7712 26.6773 55.1161 26.6773 54.308V51.4678H30.9807Z" fill="#2F3140"/>
<path d="M35.0261 52.6986V54.5447C35.0261 55.2247 35.577 55.7712 36.2569 55.7712H38.1031C38.7873 55.7712 39.3339 55.2204 39.3339 54.5404V52.6986C39.3296 52.0143 38.7787 51.4678 38.0988 51.4678H36.2569C35.577 51.4678 35.0261 52.0186 35.0261 52.6986Z" fill="#2F3140"/>
<path d="M43.3748 52.6986V54.5447C43.3748 55.2247 43.9256 55.7712 44.6055 55.7712H46.4517C47.136 55.7712 47.6825 55.2204 47.6825 54.5404V52.6986C47.6782 52.0143 47.1274 51.4678 46.4474 51.4678H44.6055C43.9256 51.4678 43.3748 52.0186 43.3748 52.6986Z" fill="#2F3140"/>
<path d="M56.0269 55.771H51.7234V52.9307C51.7234 52.1226 52.3785 51.4675 53.1866 51.4675H56.0269V55.771Z" fill="#2F3140"/>
<path d="M60.2012 51.4678H55.8977V55.7712H60.2012V51.4678Z" fill="#2F3140"/>
<path d="M72.7244 51.4678V54.308C72.7244 55.1161 72.0693 55.7712 71.2612 55.7712H69.8841C69.076 55.7712 68.4209 55.1161 68.4209 54.308V51.4678H72.7244Z" fill="#2F3140"/>
<path d="M93.5959 55.771H90.7557C89.9476 55.771 89.2925 55.1159 89.2925 54.3078V52.9307C89.2925 52.1226 89.9476 51.4675 90.7557 51.4675H93.5959V55.771Z" fill="#2F3140"/>
<path d="M97.7702 51.4678H93.4668V55.7712H97.7702V51.4678Z" fill="#2F3140"/>
<path d="M106.119 51.4678V54.308C106.119 55.1161 105.464 55.7712 104.656 55.7712H103.279C102.471 55.7712 101.816 55.1161 101.816 54.308V51.4678H106.119Z" fill="#2F3140"/>
<path d="M114.468 51.4678V55.7712H111.627C110.819 55.7712 110.164 55.1161 110.164 54.308V51.4678H114.468Z" fill="#2F3140"/>
<path d="M118.642 51.4678H114.339V55.7712H118.642V51.4678Z" fill="#2F3140"/>
<path d="M122.816 51.4678H118.513V55.7712H122.816V51.4678Z" fill="#2F3140"/>
<path d="M122.687 55.771V51.4675H125.528C126.336 51.4675 126.991 52.1226 126.991 52.9307V55.771H122.687Z" fill="#2F3140"/>
<path d="M14.1543 59.9453V57.105C14.1543 56.2969 14.8094 55.6419 15.6175 55.6419H16.9946C17.8027 55.6419 18.4577 56.2969 18.4577 57.105V59.9453H14.1543Z" fill="#2F3140"/>
<path d="M30.8518 56.8729V58.7191C30.8518 59.399 31.4026 59.9455 32.0826 59.9455H33.9288C34.613 59.9455 35.1596 59.3947 35.1596 58.7148V56.8729C35.1553 56.1886 34.6044 55.6421 33.9245 55.6421H32.0826C31.4026 55.6421 30.8518 56.1929 30.8518 56.8729Z" fill="#2F3140"/>
<path d="M39.2004 56.8729V58.7191C39.2004 59.399 39.7513 59.9455 40.4312 59.9455H42.2774C42.9617 59.9455 43.5082 59.3947 43.5082 58.7148V56.8729C43.5039 56.1886 42.953 55.6421 42.2731 55.6421H40.4312C39.7513 55.6421 39.2004 56.1929 39.2004 56.8729Z" fill="#2F3140"/>
<path d="M56.0268 55.6421H51.7234V59.9455H56.0268V55.6421Z" fill="#2F3140"/>
<path d="M55.8977 55.6421H60.2012V58.4824C60.2012 59.2905 59.5461 59.9455 58.738 59.9455H55.8977V55.6421Z" fill="#2F3140"/>
<path d="M63.063 59.8593V59.9454H64.3755V58.6328H64.2895C64.2895 59.3128 63.7386 59.8593 63.063 59.8593Z" fill="#2F3140"/>
<path d="M64.2463 59.9453V57.105C64.2463 56.2969 64.9014 55.6419 65.7095 55.6419H67.0866C67.8947 55.6419 68.5498 56.2969 68.5498 57.105V59.9453H64.2463Z" fill="#2F3140"/>
<path d="M72.5952 59.9453V57.105C72.5952 56.2969 73.2503 55.6419 74.0584 55.6419H75.4355C76.2436 55.6419 76.8987 56.2969 76.8987 57.105V59.9453H72.5952Z" fill="#2F3140"/>
<path d="M85.1182 56.8729V58.7191C85.1182 59.399 85.669 59.9455 86.349 59.9455H88.1951C88.8794 59.9455 89.4259 59.3947 89.4259 58.7148V56.8729C89.4216 56.1886 88.8708 55.6421 88.1908 55.6421H86.349C85.669 55.6421 85.1182 56.1929 85.1182 56.8729Z" fill="#2F3140"/>
<path d="M97.7703 55.6421V58.4824C97.7703 59.2905 97.1152 59.9455 96.3071 59.9455H94.93C94.1219 59.9455 93.4668 59.2905 93.4668 58.4824V55.6421H97.7703Z" fill="#2F3140"/>
<path d="M125.678 59.8593V59.9454H126.991V58.6328H126.905C126.905 59.3128 126.354 59.8593 125.678 59.8593Z" fill="#2F3140"/>
<path d="M126.862 59.9453V57.105C126.862 56.2969 127.517 55.6419 128.325 55.6419H129.702C130.51 55.6419 131.165 56.2969 131.165 57.105V59.9453H126.862Z" fill="#2F3140"/>
<path d="M12.9709 64.0336V64.1197H14.2835V62.8071H14.1974C14.1974 63.4871 13.6466 64.0336 12.9709 64.0336Z" fill="#2F3140"/>
<path d="M18.4577 59.8164H14.1543V64.1199H18.4577V59.8164Z" fill="#2F3140"/>
<path d="M35.0261 61.0472V62.8934C35.0261 63.5733 35.577 64.1199 36.2569 64.1199H38.1031C38.7873 64.1199 39.3339 63.569 39.3339 62.8891V61.0472C39.3296 60.3629 38.7787 59.8164 38.0988 59.8164H36.2569C35.577 59.8164 35.0261 60.3672 35.0261 61.0472Z" fill="#2F3140"/>
<path d="M42.1914 64.0336V64.1197H43.504V62.8071H43.4179C43.4179 63.4871 42.867 64.0336 42.1914 64.0336Z" fill="#2F3140"/>
<path d="M43.3748 64.1196V61.2794C43.3748 60.4713 44.0298 59.8162 44.8379 59.8162H46.215C47.0231 59.8162 47.6782 60.4713 47.6782 61.2794V64.1196H43.3748Z" fill="#2F3140"/>
<path d="M56.0269 59.8164V62.6567C56.0269 63.4648 55.3718 64.1199 54.5637 64.1199H53.1866C52.3785 64.1199 51.7234 63.4648 51.7234 62.6567V59.8164H56.0269Z" fill="#2F3140"/>
<path d="M64.3755 64.1196H61.5352C60.7271 64.1196 60.072 63.4645 60.072 62.6565V61.2794C60.072 60.4713 60.7271 59.8162 61.5352 59.8162H64.3755V64.1196Z" fill="#2F3140"/>
<path d="M68.5498 59.8164H64.2463V64.1199H68.5498V59.8164Z" fill="#2F3140"/>
<path d="M76.8987 59.8164H72.5952V64.1199H76.8987V59.8164Z" fill="#2F3140"/>
<path d="M80.9438 64.1196V61.2794C80.9438 60.4713 81.5989 59.8162 82.407 59.8162H83.7841C84.5922 59.8162 85.2473 60.4713 85.2473 61.2794V64.1196H80.9438Z" fill="#2F3140"/>
<path d="M89.2925 64.1196V61.2794C89.2925 60.4713 89.9476 59.8162 90.7557 59.8162H92.1328C92.9408 59.8162 93.5959 60.4713 93.5959 61.2794V64.1196H89.2925Z" fill="#2F3140"/>
<path d="M97.6411 61.0472V62.8934C97.6411 63.5733 98.192 64.1199 98.8719 64.1199H100.718C101.402 64.1199 101.949 63.569 101.949 62.8891V61.0472C101.945 60.3629 101.394 59.8164 100.714 59.8164H98.8719C98.192 59.8164 97.6411 60.3672 97.6411 61.0472Z" fill="#2F3140"/>
<path d="M104.806 64.0336V64.1197H106.119V62.8071H106.033C106.033 63.4871 105.482 64.0336 104.806 64.0336Z" fill="#2F3140"/>
<path d="M105.99 64.1196V61.2794C105.99 60.4713 106.645 59.8162 107.453 59.8162H108.83C109.638 59.8162 110.293 60.4713 110.293 61.2794V64.1196H105.99Z" fill="#2F3140"/>
<path d="M118.642 64.1196H114.339V61.2794C114.339 60.4713 114.994 59.8162 115.802 59.8162H118.642V64.1196Z" fill="#2F3140"/>
<path d="M122.816 59.8164H118.513V64.1199H122.816V59.8164Z" fill="#2F3140"/>
<path d="M126.991 59.8164H122.687V64.1199H126.991V59.8164Z" fill="#2F3140"/>
<path d="M131.165 59.8164H126.862V64.1199H131.165V59.8164Z" fill="#2F3140"/>
<path d="M14.2834 68.2939H11.4432C10.6351 68.2939 9.98 67.6389 9.98 66.8308V65.4537C9.98 64.6456 10.6351 63.9905 11.4432 63.9905H14.2834V68.2939Z" fill="#2F3140"/>
<path d="M18.4577 63.9907H14.1543V68.2942H18.4577V63.9907Z" fill="#2F3140"/>
<path d="M22.6321 63.9907H18.3286V68.2942H22.6321V63.9907Z" fill="#2F3140"/>
<path d="M26.8064 63.9907H22.5029V68.2942H26.8064V63.9907Z" fill="#2F3140"/>
<path d="M26.6772 68.2939V63.9905H29.5175C30.3256 63.9905 30.9807 64.6456 30.9807 65.4537V68.2939H26.6772Z" fill="#2F3140"/>
<path d="M43.5039 68.2939H40.6636C39.8555 68.2939 39.2005 67.6389 39.2005 66.8308V65.4537C39.2005 64.6456 39.8555 63.9905 40.6636 63.9905H43.5039V68.2939Z" fill="#2F3140"/>
<path d="M47.6782 63.9907H43.3748V68.2942H47.6782V63.9907Z" fill="#2F3140"/>
<path d="M54.7144 68.2079V68.294H56.0269V66.9814H55.9408C55.9408 67.6614 55.39 68.2079 54.7144 68.2079Z" fill="#2F3140"/>
<path d="M55.8977 68.2939V65.4537C55.8977 64.6456 56.5528 63.9905 57.3609 63.9905H58.738C59.5461 63.9905 60.2012 64.6456 60.2012 65.4537V68.2939H55.8977Z" fill="#2F3140"/>
<path d="M68.5498 63.9907V66.831C68.5498 67.6391 67.8947 68.2942 67.0866 68.2942H65.7095C64.9014 68.2942 64.2464 67.6391 64.2464 66.831V63.9907H68.5498Z" fill="#2F3140"/>
<path d="M71.4116 68.2079V68.294H72.7242V66.9814H72.6381C72.6381 67.6614 72.0873 68.2079 71.4116 68.2079Z" fill="#2F3140"/>
<path d="M76.8987 63.9907H72.5952V68.2942H76.8987V63.9907Z" fill="#2F3140"/>
<path d="M85.2473 63.9907V66.831C85.2473 67.6391 84.5922 68.2942 83.7841 68.2942H82.407C81.599 68.2942 80.9439 67.6391 80.9439 66.831V63.9907H85.2473Z" fill="#2F3140"/>
<path d="M93.5959 63.9907H89.2925V68.2942H93.5959V63.9907Z" fill="#2F3140"/>
<path d="M106.119 68.2939H103.279C102.471 68.2939 101.816 67.6389 101.816 66.8308V65.4537C101.816 64.6456 102.471 63.9905 103.279 63.9905H106.119V68.2939Z" fill="#2F3140"/>
<path d="M110.293 63.9907H105.99V68.2942H110.293V63.9907Z" fill="#2F3140"/>
<path d="M113.155 68.2079V68.294H114.468V66.9814H114.382C114.382 67.6614 113.831 68.2079 113.155 68.2079Z" fill="#2F3140"/>
<path d="M118.642 63.9907H114.339V68.2942H118.642V63.9907Z" fill="#2F3140"/>
<path d="M122.816 63.9907H118.513V68.2942H122.816V63.9907Z" fill="#2F3140"/>
<path d="M126.991 63.9907H122.687V68.2942H126.991V63.9907Z" fill="#2F3140"/>
<path d="M131.165 63.9907H126.862V68.2942H131.165V63.9907Z" fill="#2F3140"/>
<path d="M22.6321 68.165V72.4685H19.7918C18.9837 72.4685 18.3286 71.8134 18.3286 71.0053V68.165H22.6321Z" fill="#2F3140"/>
<path d="M26.8064 68.165H22.5029V72.4685H26.8064V68.165Z" fill="#2F3140"/>
<path d="M26.6772 68.165H30.9807V71.0053C30.9807 71.8134 30.3256 72.4685 29.5175 72.4685H26.6772V68.165Z" fill="#2F3140"/>
<path d="M35.0261 69.3958V71.242C35.0261 71.9219 35.577 72.4685 36.2569 72.4685H38.1031C38.7873 72.4685 39.3339 71.9176 39.3339 71.2377V69.3958C39.3296 68.7116 38.7787 68.165 38.0988 68.165H36.2569C35.577 68.165 35.0261 68.7159 35.0261 69.3958Z" fill="#2F3140"/>
<path d="M47.6782 68.165H43.3748V72.4685H47.6782V68.165Z" fill="#2F3140"/>
<path d="M51.8525 68.165H47.5491V72.4685H51.8525V68.165Z" fill="#2F3140"/>
<path d="M56.0268 68.165H51.7234V72.4685H56.0268V68.165Z" fill="#2F3140"/>
<path d="M60.2012 68.165H55.8977V72.4685H60.2012V68.165Z" fill="#2F3140"/>
<path d="M60.072 72.4683V68.1648H62.9123C63.7204 68.1648 64.3755 68.8199 64.3755 69.628V72.4683H60.072Z" fill="#2F3140"/>
<path d="M72.7244 72.4683H68.4209V69.628C68.4209 68.8199 69.076 68.1648 69.8841 68.1648H72.7244V72.4683Z" fill="#2F3140"/>
<path d="M76.8987 68.165H72.5952V72.4685H76.8987V68.165Z" fill="#2F3140"/>
<path d="M76.7695 72.4683V68.1648H79.6098C80.4179 68.1648 81.073 68.8199 81.073 69.628V72.4683H76.7695Z" fill="#2F3140"/>
<path d="M93.5959 68.165H89.2925V72.4685H93.5959V68.165Z" fill="#2F3140"/>
<path d="M97.6411 69.3958V71.242C97.6411 71.9219 98.192 72.4685 98.8719 72.4685H100.718C101.402 72.4685 101.949 71.9176 101.949 71.2377V69.3958C101.945 68.7116 101.394 68.165 100.714 68.165H98.8719C98.192 68.165 97.6411 68.7159 97.6411 69.3958Z" fill="#2F3140"/>
<path d="M110.293 68.165V72.4685H107.453C106.645 72.4685 105.99 71.8134 105.99 71.0053V68.165H110.293Z" fill="#2F3140"/>
<path d="M114.468 68.165H110.164V72.4685H114.468V68.165Z" fill="#2F3140"/>
<path d="M118.642 68.165H114.339V72.4685H118.642V68.165Z" fill="#2F3140"/>
<path d="M126.991 68.165V72.4685H124.15C123.342 72.4685 122.687 71.8134 122.687 71.0053V68.165H126.991Z" fill="#2F3140"/>
<path d="M126.862 68.165H131.165V71.0053C131.165 71.8134 130.51 72.4685 129.702 72.4685H126.862V68.165Z" fill="#2F3140"/>
<path d="M26.8064 72.3394V75.1796C26.8064 75.9877 26.1513 76.6428 25.3432 76.6428H23.9661C23.158 76.6428 22.5029 75.9877 22.5029 75.1796V72.3394H26.8064Z" fill="#2F3140"/>
<path d="M47.6782 72.3394V75.1796C47.6782 75.9877 47.0231 76.6428 46.2151 76.6428H44.8379C44.0299 76.6428 43.3748 75.9877 43.3748 75.1796V72.3394H47.6782Z" fill="#2F3140"/>
<path d="M60.2012 72.3394V76.6428H57.3609C56.5528 76.6428 55.8977 75.9877 55.8977 75.1796V72.3394H60.2012Z" fill="#2F3140"/>
<path d="M60.072 72.3394H64.3755V75.1796C64.3755 75.9877 63.7204 76.6428 62.9123 76.6428H60.072V72.3394Z" fill="#2F3140"/>
<path d="M67.2373 76.5566V76.6426H68.5499V75.3301H68.4638C68.4638 76.01 67.9129 76.5566 67.2373 76.5566Z" fill="#2F3140"/>
<path d="M72.7243 72.3394H68.4209V76.6428H72.7243V72.3394Z" fill="#2F3140"/>
<path d="M93.5959 72.3394V75.1796C93.5959 75.9877 92.9409 76.6428 92.1328 76.6428H90.7557C89.9476 76.6428 89.2925 75.9877 89.2925 75.1796V72.3394H93.5959Z" fill="#2F3140"/>
<path d="M101.816 73.5701V75.4163C101.816 76.0963 102.367 76.6428 103.046 76.6428H104.893C105.577 76.6428 106.123 76.092 106.123 75.412V73.5701C106.119 72.8859 105.568 72.3394 104.888 72.3394H103.046C102.367 72.3394 101.816 72.8902 101.816 73.5701Z" fill="#2F3140"/>
<path d="M114.468 72.3394H110.164V76.6428H114.468V72.3394Z" fill="#2F3140"/>
<path d="M118.642 72.3394H114.339V76.6428H118.642V72.3394Z" fill="#2F3140"/>
<path d="M14.2834 80.8169H11.4432C10.6351 80.8169 9.98 80.1618 9.98 79.3537V77.9766C9.98 77.1685 10.6351 76.5134 11.4432 76.5134H14.2834V80.8169Z" fill="#2F3140"/>
<path d="M14.1543 80.8169V76.5134H16.9946C17.8027 76.5134 18.4577 77.1685 18.4577 77.9766V80.8169H14.1543Z" fill="#2F3140"/>
<path d="M26.6772 77.7445V79.5906C26.6772 80.2706 27.2281 80.8171 27.908 80.8171H29.7542C30.4385 80.8171 30.985 80.2663 30.985 79.5863V77.7445C30.9807 77.0602 30.4299 76.5137 29.7499 76.5137H27.908C27.2281 76.5137 26.6772 77.0645 26.6772 77.7445Z" fill="#2F3140"/>
<path d="M35.0261 77.7445V79.5906C35.0261 80.2706 35.577 80.8171 36.2569 80.8171H38.1031C38.7873 80.8171 39.3339 80.2663 39.3339 79.5863V77.7445C39.3296 77.0602 38.7787 76.5137 38.0988 76.5137H36.2569C35.577 76.5137 35.0261 77.0645 35.0261 77.7445Z" fill="#2F3140"/>
<path d="M51.7234 77.7445V79.5906C51.7234 80.2706 52.2742 80.8171 52.9542 80.8171H54.8004C55.4846 80.8171 56.0311 80.2663 56.0311 79.5863V77.7445C56.0268 77.0602 55.476 76.5137 54.7961 76.5137H52.9542C52.2742 76.5137 51.7234 77.0645 51.7234 77.7445Z" fill="#2F3140"/>
<path d="M68.5498 80.8169H65.7095C64.9014 80.8169 64.2464 80.1618 64.2464 79.3537V77.9766C64.2464 77.1685 64.9014 76.5134 65.7095 76.5134H68.5498V80.8169Z" fill="#2F3140"/>
<path d="M68.4209 76.5137H72.7243V79.3539C72.7243 80.162 72.0693 80.8171 71.2612 80.8171H68.4209V76.5137Z" fill="#2F3140"/>
<path d="M75.5859 80.7309V80.8169H76.8985V79.5044H76.8124C76.8124 80.1843 76.2616 80.7309 75.5859 80.7309Z" fill="#2F3140"/>
<path d="M76.7695 80.8169V77.9766C76.7695 77.1685 77.4246 76.5134 78.2327 76.5134H79.6098C80.4179 76.5134 81.073 77.1685 81.073 77.9766V80.8169H76.7695Z" fill="#2F3140"/>
<path d="M97.7703 80.8169H94.93C94.1219 80.8169 93.4668 80.1618 93.4668 79.3537V77.9766C93.4668 77.1685 94.1219 76.5134 94.93 76.5134H97.7703V80.8169Z" fill="#2F3140"/>
<path d="M97.6411 80.8169V76.5134H100.481C101.289 76.5134 101.945 77.1685 101.945 77.9766V80.8169H97.6411Z" fill="#2F3140"/>
<path d="M110.293 80.8169H105.99V77.9766C105.99 77.1685 106.645 76.5134 107.453 76.5134H110.293V80.8169Z" fill="#2F3140"/>
<path d="M114.468 76.5137H110.164V80.8171H114.468V76.5137Z" fill="#2F3140"/>
<path d="M114.339 76.5137H118.642V79.3539C118.642 80.162 117.987 80.8171 117.179 80.8171H114.339V76.5137Z" fill="#2F3140"/>
<path d="M18.4578 80.688V83.5283C18.4578 84.3364 17.8027 84.9914 16.9946 84.9914H15.6175C14.8094 84.9914 14.1543 84.3364 14.1543 83.5283V80.688H18.4578Z" fill="#2F3140"/>
<path d="M30.8518 81.9188V83.765C30.8518 84.4449 31.4026 84.9914 32.0826 84.9914H33.9288C34.613 84.9914 35.1596 84.4406 35.1596 83.7606V81.9188C35.1553 81.2345 34.6044 80.688 33.9245 80.688H32.0826C31.4026 80.688 30.8518 81.2388 30.8518 81.9188Z" fill="#2F3140"/>
<path d="M42.1914 84.9052V84.9913H43.504V83.6787H43.4179C43.4179 84.3587 42.867 84.9052 42.1914 84.9052Z" fill="#2F3140"/>
<path d="M43.3748 84.9917V82.1514C43.3748 81.3433 44.0298 80.6883 44.8379 80.6883H46.215C47.0231 80.6883 47.6782 81.3433 47.6782 82.1514V84.9917H43.3748Z" fill="#2F3140"/>
<path d="M60.072 81.9188V83.765C60.072 84.4449 60.6229 84.9914 61.3028 84.9914H63.149C63.8332 84.9914 64.3798 84.4406 64.3798 83.7606V81.9188C64.3755 81.2345 63.8246 80.688 63.1447 80.688H61.3028C60.6229 80.688 60.072 81.2388 60.072 81.9188Z" fill="#2F3140"/>
<path d="M76.8987 84.9917H74.0584C73.2503 84.9917 72.5952 84.3366 72.5952 83.5285V82.1514C72.5952 81.3433 73.2503 80.6883 74.0584 80.6883H76.8987V84.9917Z" fill="#2F3140"/>
<path d="M81.073 80.688H76.7695V84.9914H81.073V80.688Z" fill="#2F3140"/>
<path d="M89.4216 84.9917H86.5814C85.7733 84.9917 85.1182 84.3366 85.1182 83.5285V82.1514C85.1182 81.3433 85.7733 80.6883 86.5814 80.6883H89.4216V84.9917Z" fill="#2F3140"/>
<path d="M89.2925 84.9917V80.6883H92.1328C92.9408 80.6883 93.5959 81.3433 93.5959 82.1514V84.9917H89.2925Z" fill="#2F3140"/>
<path d="M110.293 80.688V83.5283C110.293 84.3364 109.638 84.9914 108.83 84.9914H107.453C106.645 84.9914 105.99 84.3364 105.99 83.5283V80.688H110.293Z" fill="#2F3140"/>
<path d="M9.97998 86.0931V87.9393C9.97998 88.6192 10.5308 89.1658 11.2108 89.1658H13.0569C13.7412 89.1658 14.2877 88.6149 14.2877 87.935V86.0931C14.2834 85.4088 13.7326 84.8623 13.0526 84.8623H11.2108C10.5308 84.8623 9.97998 85.4131 9.97998 86.0931Z" fill="#2F3140"/>
<path d="M22.5029 86.0931V87.9393C22.5029 88.6192 23.0538 89.1658 23.7337 89.1658H25.5799C26.2641 89.1658 26.8107 88.6149 26.8107 87.935V86.0931C26.8064 85.4088 26.2555 84.8623 25.5756 84.8623H23.7337C23.0538 84.8623 22.5029 85.4131 22.5029 86.0931Z" fill="#2F3140"/>
<path d="M39.3296 89.1655H36.4893C35.6812 89.1655 35.0261 88.5104 35.0261 87.7024V86.3253C35.0261 85.5172 35.6812 84.8621 36.4893 84.8621H39.3296V89.1655Z" fill="#2F3140"/>
<path d="M43.5039 84.8623H39.2004V89.1658H43.5039V84.8623Z" fill="#2F3140"/>
<path d="M47.6782 84.8623H43.3748V89.1658H47.6782V84.8623Z" fill="#2F3140"/>
<path d="M54.7144 89.0795V89.1656H56.0269V87.853H55.9408C55.9408 88.533 55.39 89.0795 54.7144 89.0795Z" fill="#2F3140"/>
<path d="M55.8977 89.1655V86.3253C55.8977 85.5172 56.5528 84.8621 57.3609 84.8621H58.738C59.5461 84.8621 60.2012 85.5172 60.2012 86.3253V89.1655H55.8977Z" fill="#2F3140"/>
<path d="M68.5498 89.1655H64.2464V86.3253C64.2464 85.5172 64.9014 84.8621 65.7095 84.8621H68.5498V89.1655Z" fill="#2F3140"/>
<path d="M68.4209 89.1655V84.8621H71.2612C72.0693 84.8621 72.7243 85.5172 72.7243 86.3253V89.1655H68.4209Z" fill="#2F3140"/>
<path d="M75.5859 89.0795V89.1656H76.8985V87.853H76.8124C76.8124 88.533 76.2616 89.0795 75.5859 89.0795Z" fill="#2F3140"/>
<path d="M81.073 84.8623H76.7695V89.1658H81.073V84.8623Z" fill="#2F3140"/>
<path d="M80.9438 89.1655V84.8621H83.7841C84.5922 84.8621 85.2473 85.5172 85.2473 86.3253V89.1655H80.9438Z" fill="#2F3140"/>
<path d="M93.4668 86.0931V87.9393C93.4668 88.6192 94.0176 89.1658 94.6976 89.1658H96.5438C97.228 89.1658 97.7745 88.6149 97.7745 87.935V86.0931C97.7702 85.4088 97.2194 84.8623 96.5395 84.8623H94.6976C94.0176 84.8623 93.4668 85.4131 93.4668 86.0931Z" fill="#2F3140"/>
<path d="M100.632 89.0795V89.1656H101.945V87.853H101.859C101.859 88.533 101.308 89.0795 100.632 89.0795Z" fill="#2F3140"/>
<path d="M101.816 89.1655V86.3253C101.816 85.5172 102.471 84.8621 103.279 84.8621H104.656C105.464 84.8621 106.119 85.5172 106.119 86.3253V89.1655H101.816Z" fill="#2F3140"/>
<path d="M30.9807 93.3398H26.6773V90.4996C26.6773 89.6915 27.3324 89.0364 28.1404 89.0364H30.9807V93.3398Z" fill="#2F3140"/>
<path d="M30.8518 93.3398V89.0364H33.6921C34.5002 89.0364 35.1553 89.6915 35.1553 90.4996V93.3398H30.8518Z" fill="#2F3140"/>
<path d="M47.6782 89.0366V93.3401H44.8379C44.0299 93.3401 43.3748 92.685 43.3748 91.8769V89.0366H47.6782Z" fill="#2F3140"/>
<path d="M51.8525 89.0366H47.5491V93.3401H51.8525V89.0366Z" fill="#2F3140"/>
<path d="M56.0268 89.0366H51.7234V93.3401H56.0268V89.0366Z" fill="#2F3140"/>
<path d="M60.2012 89.0366H55.8977V93.3401H60.2012V89.0366Z" fill="#2F3140"/>
<path d="M68.5498 89.0366V93.3401H65.7095C64.9014 93.3401 64.2464 92.685 64.2464 91.8769V89.0366H68.5498Z" fill="#2F3140"/>
<path d="M72.7243 89.0366H68.4209V93.3401H72.7243V89.0366Z" fill="#2F3140"/>
<path d="M76.8987 89.0366H72.5952V93.3401H76.8987V89.0366Z" fill="#2F3140"/>
<path d="M81.073 89.0366H76.7695V93.3401H81.073V89.0366Z" fill="#2F3140"/>
<path d="M89.2925 90.2674V92.1136C89.2925 92.7935 89.8433 93.3401 90.5233 93.3401H92.3694C93.0537 93.3401 93.6002 92.7892 93.6002 92.1093V90.2674C93.5959 89.5832 93.0451 89.0366 92.3651 89.0366H90.5233C89.8433 89.0366 89.2925 89.5875 89.2925 90.2674Z" fill="#2F3140"/>
<path d="M96.4578 93.2538V93.3399H97.7703V92.0273H97.6842C97.6842 92.7073 97.1334 93.2538 96.4578 93.2538Z" fill="#2F3140"/>
<path d="M101.945 93.3398H97.6411V90.4996C97.6411 89.6915 98.2962 89.0364 99.1043 89.0364H101.945V93.3398Z" fill="#2F3140"/>
<path d="M106.119 89.0366H101.816V93.3401H106.119V89.0366Z" fill="#2F3140"/>
<path d="M108.981 93.2538V93.3399H110.293V92.0273H110.207C110.207 92.7073 109.656 93.2538 108.981 93.2538Z" fill="#2F3140"/>
<path d="M114.468 93.3398H110.164V90.4996C110.164 89.6915 110.819 89.0364 111.627 89.0364H114.468V93.3398Z" fill="#2F3140"/>
<path d="M118.642 89.0366H114.339V93.3401H118.642V89.0366Z" fill="#2F3140"/>
<path d="M122.816 89.0366H118.513V93.3401H122.816V89.0366Z" fill="#2F3140"/>
<path d="M122.687 93.3398V89.0364H125.528C126.336 89.0364 126.991 89.6915 126.991 90.4996V93.3398H122.687Z" fill="#2F3140"/>
<path d="M18.4578 97.5142H15.6175C14.8094 97.5142 14.1543 96.8591 14.1543 96.051V94.6739C14.1543 93.8658 14.8094 93.2107 15.6175 93.2107H18.4578V97.5142Z" fill="#2F3140"/>
<path d="M18.3286 97.5142V93.2107H21.1689C21.977 93.2107 22.6321 93.8658 22.6321 94.6739V97.5142H18.3286Z" fill="#2F3140"/>
<path d="M30.9807 93.2109V97.5144H28.1404C27.3324 97.5144 26.6773 96.8593 26.6773 96.0512V93.2109H30.9807Z" fill="#2F3140"/>
<path d="M35.1553 93.2109H30.8518V97.5144H35.1553V93.2109Z" fill="#2F3140"/>
<path d="M35.0261 97.5142V93.2107H37.8664C38.6745 93.2107 39.3296 93.8658 39.3296 94.6739V97.5142H35.0261Z" fill="#2F3140"/>
<path d="M56.0269 93.2109V97.5144H53.1866C52.3785 97.5144 51.7234 96.8593 51.7234 96.0512V93.2109H56.0269Z" fill="#2F3140"/>
<path d="M60.2012 93.2109H55.8977V97.5144H60.2012V93.2109Z" fill="#2F3140"/>
<path d="M81.073 93.2109V96.0512C81.073 96.8593 80.4179 97.5144 79.6098 97.5144H78.2327C77.4246 97.5144 76.7696 96.8593 76.7696 96.0512V93.2109H81.073Z" fill="#2F3140"/>
<path d="M85.1182 97.5142V94.6739C85.1182 93.8658 85.7732 93.2107 86.5813 93.2107H87.9584C88.7665 93.2107 89.4216 93.8658 89.4216 94.6739V97.5142H85.1182Z" fill="#2F3140"/>
<path d="M97.7703 97.5142H93.4668V94.6739C93.4668 93.8658 94.1219 93.2107 94.93 93.2107H97.7703V97.5142Z" fill="#2F3140"/>
<path d="M101.945 93.2109H97.6411V97.5144H101.945V93.2109Z" fill="#2F3140"/>
<path d="M106.119 93.2109H101.816V97.5144H106.119V93.2109Z" fill="#2F3140"/>
<path d="M110.293 93.2109H105.99V97.5144H110.293V93.2109Z" fill="#2F3140"/>
<path d="M114.468 93.2109H110.164V97.5144H114.468V93.2109Z" fill="#2F3140"/>
<path d="M118.642 93.2109H114.339V97.5144H118.642V93.2109Z" fill="#2F3140"/>
<path d="M122.816 93.2109H118.513V97.5144H122.816V93.2109Z" fill="#2F3140"/>
<path d="M126.991 93.2109H122.687V97.5144H126.991V93.2109Z" fill="#2F3140"/>
<path d="M126.862 97.5142V93.2107H129.702C130.51 93.2107 131.165 93.8658 131.165 94.6739V97.5142H126.862Z" fill="#2F3140"/>
<path d="M43.3748 101.688V98.8482C43.3748 98.0401 44.0298 97.385 44.8379 97.385H46.215C47.0231 97.385 47.6782 98.0401 47.6782 98.8482V101.688H43.3748Z" fill="#2F3140"/>
<path d="M60.2012 97.3853H55.8977V101.689H60.2012V97.3853Z" fill="#2F3140"/>
<path d="M63.063 101.603V101.689H64.3755V100.376H64.2895C64.2895 101.056 63.7386 101.603 63.063 101.603Z" fill="#2F3140"/>
<path d="M64.2463 101.688V98.8482C64.2463 98.0401 64.9014 97.385 65.7095 97.385H67.0866C67.8947 97.385 68.5498 98.0401 68.5498 98.8482V101.688H64.2463Z" fill="#2F3140"/>
<path d="M72.5952 98.616V100.462C72.5952 101.142 73.1461 101.689 73.826 101.689H75.6722C76.3564 101.689 76.903 101.138 76.903 100.458V98.616C76.8987 97.9318 76.3478 97.3853 75.6679 97.3853H73.826C73.1461 97.3853 72.5952 97.9361 72.5952 98.616Z" fill="#2F3140"/>
<path d="M89.4216 97.3853H85.1182V101.689H89.4216V97.3853Z" fill="#2F3140"/>
<path d="M92.2834 101.603V101.689H93.596V100.376H93.5099C93.5099 101.056 92.9591 101.603 92.2834 101.603Z" fill="#2F3140"/>
<path d="M97.7702 97.3853H93.4668V101.689H97.7702V97.3853Z" fill="#2F3140"/>
<path d="M114.468 97.3853H110.164V101.689H114.468V97.3853Z" fill="#2F3140"/>
<path d="M114.339 97.3853H118.642V100.226C118.642 101.034 117.987 101.689 117.179 101.689H114.339V97.3853Z" fill="#2F3140"/>
<path d="M126.991 97.3853H122.687V101.689H126.991V97.3853Z" fill="#2F3140"/>
<path d="M126.862 97.3853H131.165V100.226C131.165 101.034 130.51 101.689 129.702 101.689H126.862V97.3853Z" fill="#2F3140"/>
<path d="M47.6782 101.56V104.4C47.6782 105.208 47.0231 105.863 46.2151 105.863H44.8379C44.0299 105.863 43.3748 105.208 43.3748 104.4V101.56H47.6782Z" fill="#2F3140"/>
<path d="M56.0269 105.863H53.1866C52.3785 105.863 51.7234 105.208 51.7234 104.4V103.023C51.7234 102.214 52.3785 101.559 53.1866 101.559H56.0269V105.863Z" fill="#2F3140"/>
<path d="M60.2012 101.56H55.8977V105.863H60.2012V101.56Z" fill="#2F3140"/>
<path d="M64.3755 101.56H60.072V105.863H64.3755V101.56Z" fill="#2F3140"/>
<path d="M68.5498 101.56H64.2463V105.863H68.5498V101.56Z" fill="#2F3140"/>
<path d="M68.4209 105.863V101.559H71.2612C72.0693 101.559 72.7243 102.214 72.7243 103.023V105.863H68.4209Z" fill="#2F3140"/>
<path d="M83.9348 105.777V105.863H85.2474V104.551H85.1613C85.1613 105.231 84.6105 105.777 83.9348 105.777Z" fill="#2F3140"/>
<path d="M89.4216 101.56H85.1182V105.863H89.4216V101.56Z" fill="#2F3140"/>
<path d="M93.5959 101.56H89.2925V105.863H93.5959V101.56Z" fill="#2F3140"/>
<path d="M97.7702 101.56H93.4668V105.863H97.7702V101.56Z" fill="#2F3140"/>
<path d="M101.816 102.79V104.637C101.816 105.316 102.367 105.863 103.046 105.863H104.893C105.577 105.863 106.123 105.312 106.123 104.632V102.79C106.119 102.106 105.568 101.56 104.888 101.56H103.046C102.367 101.56 101.816 102.11 101.816 102.79Z" fill="#2F3140"/>
<path d="M114.468 101.56H110.164V105.863H114.468V101.56Z" fill="#2F3140"/>
<path d="M122.816 105.863H119.976C119.168 105.863 118.513 105.208 118.513 104.4V103.023C118.513 102.214 119.168 101.559 119.976 101.559H122.816V105.863Z" fill="#2F3140"/>
<path d="M122.687 101.56H126.991V104.4C126.991 105.208 126.336 105.863 125.528 105.863H122.687V101.56Z" fill="#2F3140"/>
<path d="M76.8987 110.037H74.0584C73.2503 110.037 72.5952 109.382 72.5952 108.574V107.197C72.5952 106.389 73.2503 105.734 74.0584 105.734H76.8987V110.037Z" fill="#2F3140"/>
<path d="M81.073 105.734H76.7695V110.037H81.073V105.734Z" fill="#2F3140"/>
<path d="M85.2473 105.734H80.9438V110.037H85.2473V105.734Z" fill="#2F3140"/>
<path d="M85.1182 105.734H89.4216V108.574C89.4216 109.382 88.7665 110.037 87.9584 110.037H85.1182V105.734Z" fill="#2F3140"/>
<path d="M97.7702 105.734H93.4668V110.037H97.7702V105.734Z" fill="#2F3140"/>
<path d="M108.981 109.952V110.038H110.293V108.725H110.207C110.207 109.405 109.656 109.952 108.981 109.952Z" fill="#2F3140"/>
<path d="M114.468 105.734H110.164V110.037H114.468V105.734Z" fill="#2F3140"/>
<path d="M125.678 109.952V110.038H126.991V108.725H126.905C126.905 109.405 126.354 109.952 125.678 109.952Z" fill="#2F3140"/>
<path d="M126.862 110.037V107.197C126.862 106.389 127.517 105.734 128.325 105.734H129.702C130.51 105.734 131.165 106.389 131.165 107.197V110.037H126.862Z" fill="#2F3140"/>
<path d="M51.7234 114.211V111.371C51.7234 110.563 52.3785 109.908 53.1866 109.908H54.5637C55.3718 109.908 56.0268 110.563 56.0268 111.371V114.211H51.7234Z" fill="#2F3140"/>
<path d="M60.072 111.139V112.985C60.072 113.665 60.6229 114.212 61.3028 114.212H63.149C63.8332 114.212 64.3798 113.661 64.3798 112.981V111.139C64.3755 110.455 63.8246 109.908 63.1447 109.908H61.3028C60.6229 109.908 60.072 110.459 60.072 111.139Z" fill="#2F3140"/>
<path d="M85.2473 109.908H80.9438V114.212H85.2473V109.908Z" fill="#2F3140"/>
<path d="M97.7703 109.908V114.212H94.93C94.1219 114.212 93.4668 113.557 93.4668 112.748V109.908H97.7703Z" fill="#2F3140"/>
<path d="M101.945 109.908H97.6411V114.212H101.945V109.908Z" fill="#2F3140"/>
<path d="M106.119 109.908H101.816V114.212H106.119V109.908Z" fill="#2F3140"/>
<path d="M110.293 109.908H105.99V114.212H110.293V109.908Z" fill="#2F3140"/>
<path d="M114.468 109.908H110.164V114.212H114.468V109.908Z" fill="#2F3140"/>
<path d="M118.642 109.908H114.339V114.212H118.642V109.908Z" fill="#2F3140"/>
<path d="M122.816 109.908H118.513V114.212H122.816V109.908Z" fill="#2F3140"/>
<path d="M126.991 109.908H122.687V114.212H126.991V109.908Z" fill="#2F3140"/>
<path d="M126.862 109.908H131.165V112.748C131.165 113.557 130.51 114.212 129.702 114.212H126.862V109.908Z" fill="#2F3140"/>
<path d="M43.3748 118.386V115.545C43.3748 114.737 44.0298 114.082 44.8379 114.082H46.215C47.0231 114.082 47.6782 114.737 47.6782 115.545V118.386H43.3748Z" fill="#2F3140"/>
<path d="M50.54 118.3V118.386H51.8526V117.074H51.7665C51.7665 117.754 51.2157 118.3 50.54 118.3Z" fill="#2F3140"/>
<path d="M56.0268 114.083H51.7234V118.386H56.0268V114.083Z" fill="#2F3140"/>
<path d="M64.2463 118.386V115.545C64.2463 114.737 64.9014 114.082 65.7095 114.082H67.0866C67.8947 114.082 68.5498 114.737 68.5498 115.545V118.386H64.2463Z" fill="#2F3140"/>
<path d="M81.073 118.386H78.2327C77.4246 118.386 76.7696 117.731 76.7696 116.923V115.545C76.7696 114.737 77.4246 114.082 78.2327 114.082H81.073V118.386Z" fill="#2F3140"/>
<path d="M85.2473 114.083H80.9438V118.386H85.2473V114.083Z" fill="#2F3140"/>
<path d="M89.4216 114.083H85.1182V118.386H89.4216V114.083Z" fill="#2F3140"/>
<path d="M89.2925 118.386V114.082H92.1328C92.9408 114.082 93.5959 114.737 93.5959 115.545V118.386H89.2925Z" fill="#2F3140"/>
<path d="M114.468 114.083V118.386H111.627C110.819 118.386 110.164 117.731 110.164 116.923V114.083H114.468Z" fill="#2F3140"/>
<path d="M114.339 114.083H118.642V116.923C118.642 117.731 117.987 118.386 117.179 118.386H114.339V114.083Z" fill="#2F3140"/>
<path d="M126.991 114.083V116.923C126.991 117.731 126.336 118.386 125.528 118.386H124.15C123.342 118.386 122.687 117.731 122.687 116.923V114.083H126.991Z" fill="#2F3140"/>
<path d="M47.6782 118.257V122.56H44.8379C44.0299 122.56 43.3748 121.905 43.3748 121.097V118.257H47.6782Z" fill="#2F3140"/>
<path d="M51.8525 118.257H47.5491V122.56H51.8525V118.257Z" fill="#2F3140"/>
<path d="M56.0268 118.257H51.7234V122.56H56.0268V118.257Z" fill="#2F3140"/>
<path d="M55.8977 122.561V118.257H58.738C59.5461 118.257 60.2012 118.912 60.2012 119.72V122.561H55.8977Z" fill="#2F3140"/>
<path d="M68.5498 118.257V121.097C68.5498 121.905 67.8947 122.56 67.0866 122.56H65.7095C64.9014 122.56 64.2464 121.905 64.2464 121.097V118.257H68.5498Z" fill="#2F3140"/>
<path d="M72.5952 119.488V121.334C72.5952 122.014 73.1461 122.56 73.826 122.56H75.6722C76.3564 122.56 76.903 122.009 76.903 121.329V119.488C76.8987 118.803 76.3478 118.257 75.6679 118.257H73.826C73.1461 118.257 72.5952 118.808 72.5952 119.488Z" fill="#2F3140"/>
<path d="M85.2473 118.257V122.56H82.407C81.599 122.56 80.9439 121.905 80.9439 121.097V118.257H85.2473Z" fill="#2F3140"/>
<path d="M89.4216 118.257H85.1182V122.56H89.4216V118.257Z" fill="#2F3140"/>
<path d="M93.4668 122.561V119.72C93.4668 118.912 94.1219 118.257 94.93 118.257H96.3071C97.1152 118.257 97.7702 118.912 97.7702 119.72V122.561H93.4668Z" fill="#2F3140"/>
<path d="M105.99 119.488V121.334C105.99 122.014 106.541 122.56 107.221 122.56H109.067C109.751 122.56 110.298 122.009 110.298 121.329V119.488C110.293 118.803 109.743 118.257 109.063 118.257H107.221C106.541 118.257 105.99 118.808 105.99 119.488Z" fill="#2F3140"/>
<path d="M118.513 119.488V121.334C118.513 122.014 119.064 122.56 119.744 122.56H121.59C122.274 122.56 122.821 122.009 122.821 121.329V119.488C122.816 118.803 122.266 118.257 121.586 118.257H119.744C119.064 118.257 118.513 118.808 118.513 119.488Z" fill="#2F3140"/>
<path d="M126.862 119.488V121.334C126.862 122.014 127.412 122.56 128.092 122.56H129.939C130.623 122.56 131.169 122.009 131.169 121.329V119.488C131.165 118.803 130.614 118.257 129.934 118.257H128.092C127.412 118.257 126.862 118.808 126.862 119.488Z" fill="#2F3140"/>
<path d="M60.072 126.735V123.895C60.072 123.087 60.7271 122.431 61.5352 122.431H62.9123C63.7204 122.431 64.3755 123.087 64.3755 123.895V126.735H60.072Z" fill="#2F3140"/>
<path d="M68.4209 126.735V123.895C68.4209 123.087 69.076 122.431 69.8841 122.431H71.2612C72.0693 122.431 72.7243 123.087 72.7243 123.895V126.735H68.4209Z" fill="#2F3140"/>
<path d="M89.4216 122.432H85.1182V126.735H89.4216V122.432Z" fill="#2F3140"/>
<path d="M97.7702 122.432H93.4668V126.735H97.7702V122.432Z" fill="#2F3140"/>
<path d="M101.816 123.662V125.509C101.816 126.189 102.367 126.735 103.046 126.735H104.893C105.577 126.735 106.123 126.184 106.123 125.504V123.662C106.119 122.978 105.568 122.432 104.888 122.432H103.046C102.367 122.432 101.816 122.982 101.816 123.662Z" fill="#2F3140"/>
<path d="M110.164 123.662V125.509C110.164 126.189 110.715 126.735 111.395 126.735H113.241C113.926 126.735 114.472 126.184 114.472 125.504V123.662C114.468 122.978 113.917 122.432 113.237 122.432H111.395C110.715 122.432 110.164 122.982 110.164 123.662Z" fill="#2F3140"/>
<path d="M122.687 126.735V123.895C122.687 123.087 123.342 122.431 124.15 122.431H125.528C126.336 122.431 126.991 123.087 126.991 123.895V126.735H122.687Z" fill="#2F3140"/>
<path d="M47.5491 127.837V129.683C47.5491 130.363 48.0999 130.909 48.7799 130.909H50.626C51.3103 130.909 51.8568 130.359 51.8568 129.679V127.837C51.8525 127.152 51.3017 126.606 50.6217 126.606H48.7799C48.0999 126.606 47.5491 127.157 47.5491 127.837Z" fill="#2F3140"/>
<path d="M64.3755 126.606V129.446C64.3755 130.254 63.7204 130.909 62.9123 130.909H61.5352C60.7271 130.909 60.072 130.254 60.072 129.446V126.606H64.3755Z" fill="#2F3140"/>
<path d="M72.7244 126.606V130.909H69.8841C69.076 130.909 68.4209 130.254 68.4209 129.446V126.606H72.7244Z" fill="#2F3140"/>
<path d="M76.8987 126.606H72.5952V130.909H76.8987V126.606Z" fill="#2F3140"/>
<path d="M76.7695 130.909V126.606H79.6098C80.4179 126.606 81.073 127.261 81.073 128.069V130.909H76.7695Z" fill="#2F3140"/>
<path d="M89.4216 126.606V129.446C89.4216 130.254 88.7665 130.909 87.9585 130.909H86.5814C85.7733 130.909 85.1182 130.254 85.1182 129.446V126.606H89.4216Z" fill="#2F3140"/>
<path d="M97.7703 126.606V130.909H94.93C94.1219 130.909 93.4668 130.254 93.4668 129.446V126.606H97.7703Z" fill="#2F3140"/>
<path d="M97.6411 130.909V126.606H100.481C101.289 126.606 101.945 127.261 101.945 128.069V130.909H97.6411Z" fill="#2F3140"/>
<path d="M105.99 127.837V129.683C105.99 130.363 106.541 130.909 107.221 130.909H109.067C109.751 130.909 110.298 130.359 110.298 129.679V127.837C110.293 127.152 109.743 126.606 109.063 126.606H107.221C106.541 126.606 105.99 127.157 105.99 127.837Z" fill="#2F3140"/>
<path d="M126.991 126.606V129.446C126.991 130.254 126.336 130.909 125.528 130.909H124.15C123.342 130.909 122.687 130.254 122.687 129.446V126.606H126.991Z" fill="#2F3140"/>
<path fill-rule="evenodd" clip-rule="evenodd" d="M35.8007 29.4051V20.1668C35.8007 16.0662 35.2429 15.0657 35.003 14.8252C34.7626 14.5853 33.762 14.0275 29.6609 14.0275H20.4232C16.3221 14.0275 15.3215 14.5853 15.0816 14.8252C14.8417 15.0657 14.2834 16.0662 14.2834 20.1668V29.4051C14.2834 33.5062 14.8417 34.5067 15.0816 34.7472C15.3215 34.9865 16.3221 35.5449 20.4232 35.5449H29.6609C33.762 35.5449 34.7626 34.9865 35.003 34.7472C35.2429 34.5067 35.8007 33.5062 35.8007 29.4051ZM29.6609 9.72412C38.0961 9.72412 40.1041 11.7322 40.1041 20.1668C40.1041 28.6019 40.1041 20.9704 40.1041 29.4051C40.1041 37.8402 38.0961 39.8483 29.6609 39.8483C21.2263 39.8483 28.8578 39.8483 20.4232 39.8483C11.988 39.8483 9.97998 37.8402 9.97998 29.4051C9.97998 20.9704 9.97998 24.8774 9.97998 20.1668C9.97998 11.7322 11.988 9.72412 20.4232 9.72412C28.8578 9.72412 21.2263 9.72412 29.6609 9.72412ZM27.0215 18.331C30.6367 18.331 31.4972 19.1921 31.4972 22.8062C31.4972 26.4214 31.4972 23.151 31.4972 26.7656C31.4972 30.3803 30.6367 31.2414 27.0215 31.2414C23.4068 31.2414 26.6773 31.2414 23.0626 31.2414C19.4479 31.2414 18.5869 30.3803 18.5869 26.7656C18.5869 23.151 18.5869 24.8252 18.5869 22.8062C18.5869 19.1921 19.4479 18.331 23.0626 18.331C26.6773 18.331 23.4068 18.331 27.0215 18.331Z" fill="#2F3140"/>
<path fill-rule="evenodd" clip-rule="evenodd" d="M126.69 29.4051V20.1668C126.69 16.0662 126.132 15.0657 125.892 14.8252C125.651 14.5853 124.651 14.0275 120.55 14.0275H111.312C107.211 14.0275 106.21 14.5853 105.971 14.8252C105.731 15.0657 105.172 16.0662 105.172 20.1668V29.4051C105.172 33.5062 105.731 34.5067 105.971 34.7472C106.21 34.9865 107.211 35.5449 111.312 35.5449H120.55C124.651 35.5449 125.651 34.9865 125.892 34.7472C126.132 34.5067 126.69 33.5062 126.69 29.4051ZM120.55 9.72412C128.985 9.72412 130.993 11.7322 130.993 20.1668C130.993 28.6019 130.993 20.9704 130.993 29.4051C130.993 37.8402 128.985 39.8483 120.55 39.8483C112.115 39.8483 119.747 39.8483 111.312 39.8483C102.877 39.8483 100.869 37.8402 100.869 29.4051C100.869 20.9704 100.869 24.8774 100.869 20.1668C100.869 11.7322 102.877 9.72412 111.312 9.72412C119.747 9.72412 112.115 9.72412 120.55 9.72412ZM117.91 18.331C121.526 18.331 122.386 19.1921 122.386 22.8062C122.386 26.4214 122.386 23.151 122.386 26.7656C122.386 30.3803 121.526 31.2414 117.91 31.2414C114.296 31.2414 117.566 31.2414 113.952 31.2414C110.337 31.2414 109.476 30.3803 109.476 26.7656C109.476 23.151 109.476 24.8252 109.476 22.8062C109.476 19.1921 110.337 18.331 113.952 18.331C117.566 18.331 114.296 18.331 117.91 18.331Z" fill="#2F3140"/>
<path fill-rule="evenodd" clip-rule="evenodd" d="M35.8007 120.294V111.055C35.8007 106.955 35.2429 105.954 35.003 105.714C34.7626 105.474 33.762 104.916 29.6609 104.916H20.4232C16.3221 104.916 15.3215 105.474 15.0816 105.714C14.8417 105.954 14.2834 106.955 14.2834 111.055V120.294C14.2834 124.395 14.8417 125.395 15.0816 125.636C15.3215 125.875 16.3221 126.434 20.4232 126.434H29.6609C33.762 126.434 34.7626 125.875 35.003 125.636C35.2429 125.395 35.8007 124.395 35.8007 120.294ZM29.6609 100.613C38.0961 100.613 40.1041 102.621 40.1041 111.055C40.1041 119.491 40.1041 111.859 40.1041 120.294C40.1041 128.729 38.0961 130.737 29.6609 130.737C21.2263 130.737 28.8578 130.737 20.4232 130.737C11.988 130.737 9.97998 128.729 9.97998 120.294C9.97998 111.859 9.97998 115.766 9.97998 111.055C9.97998 102.621 11.988 100.613 20.4232 100.613C28.8578 100.613 21.2263 100.613 29.6609 100.613ZM27.0215 109.22C30.6367 109.22 31.4972 110.081 31.4972 113.695C31.4972 117.31 31.4972 114.04 31.4972 117.654C31.4972 121.269 30.6367 122.13 27.0215 122.13C23.4068 122.13 26.6773 122.13 23.0626 122.13C19.4479 122.13 18.5869 121.269 18.5869 117.654C18.5869 114.04 18.5869 115.714 18.5869 113.695C18.5869 110.081 19.4479 109.22 23.0626 109.22C26.6773 109.22 23.4068 109.22 27.0215 109.22Z" fill="#2F3140"/>
</g>
</g>
</g>
<defs>
<clipPath id="clip0_313_1416">
<rect width="143" height="143" fill="white" transform="translate(0.256104)"/>
</clipPath>
<clipPath id="clip1_313_1416">
<rect width="123.552" height="123.552" fill="white" transform="translate(9.97998 9.72412)"/>
</clipPath>
</defs>
</svg>
