<svg width="120" height="40" viewBox="0 0 120 40" fill="none" xmlns="http://www.w3.org/2000/svg">
<g clip-path="url(#clip0_313_2125)">
<path d="M115.318 0.170898H4.68158C2.23746 0.170898 0.256104 2.39992 0.256104 5.14956V35.0215C0.256104 37.7711 2.23746 40.0002 4.68158 40.0002H115.318C117.763 40.0002 119.744 37.7711 119.744 35.0215V5.14956C119.744 2.39992 117.763 0.170898 115.318 0.170898Z" fill="white"/>
<g clip-path="url(#clip1_313_2125)">
<path fill-rule="evenodd" clip-rule="evenodd" d="M23.0756 32.5658C17.5005 32.5658 14.7129 32.5658 12.981 30.8486C11.249 29.1314 11.249 26.3676 11.249 20.84L11.249 19.8629C11.249 14.3353 11.249 11.5715 12.981 9.8543C14.7129 8.13721 17.5005 8.13721 23.0755 8.13721L24.0611 8.13721C29.6362 8.13721 32.4237 8.13721 34.1557 9.8543C35.8876 11.5715 35.8876 14.3353 35.8876 19.8629V20.84C35.8876 26.3676 35.8876 29.1314 34.1557 30.8486C32.4237 32.5658 29.6362 32.5658 24.0611 32.5658H23.0756Z" fill="#0077FF"/>
<path d="M25.4965 23.192C24.8327 23.0276 24.3672 22.4388 24.3672 21.7635V13.8082C24.3672 13.0412 25.0982 12.4787 25.8522 12.6654L30.627 13.8481C31.2909 14.0125 31.7563 14.6012 31.7563 15.2765V23.2318C31.7563 23.9988 31.0254 24.5613 30.2714 24.3746L25.4965 23.192Z" fill="white"/>
<path d="M16.5097 26.8551C15.8458 26.6906 15.3804 26.1019 15.3804 25.4266V17.4713C15.3804 16.7043 16.1113 16.1418 16.8653 16.3285L21.6402 17.5111C22.304 17.6755 22.7695 18.2643 22.7695 18.9396V26.8949C22.7695 27.6619 22.0385 28.2244 21.2845 28.0377L16.5097 26.8551Z" fill="white"/>
<path d="M21.0033 25.0235C20.3395 24.8591 19.874 24.2703 19.874 23.5951V15.6397C19.874 14.8728 20.605 14.3102 21.359 14.497L26.1339 15.6796C26.7977 15.844 27.2631 16.4328 27.2631 17.108V25.0634C27.2631 25.8304 26.5322 26.3929 25.7782 26.2061L21.0033 25.0235Z" fill="white"/>
<path d="M24.1282 25.8C23.9191 25.7472 23.7703 25.5638 23.763 25.35L23.5553 19.2745C23.4952 18.4705 22.8932 17.831 22.2641 17.6426C22.2287 17.6321 22.191 17.6463 22.1701 17.6764C22.1489 17.707 22.1571 17.7494 22.1867 17.7722C22.3421 17.8914 22.7696 18.2805 22.7696 18.9516L22.7684 25.4583L24.1282 25.8Z" fill="#2B71F6"/>
<path d="M28.6229 23.9665C28.4139 23.9147 28.2649 23.7319 28.2577 23.5185L28.0499 17.4435C27.9898 16.6394 27.3878 15.9999 26.7587 15.8116C26.7234 15.801 26.6857 15.8152 26.6648 15.8454C26.6435 15.876 26.6517 15.9184 26.6814 15.9411C26.8367 16.0604 27.2643 16.4495 27.2643 17.1206L27.263 23.6295L28.6229 23.9665Z" fill="#2B71F6"/>
<path d="M50.0712 26.5319C51.9371 26.0602 53.1631 24.6453 53.1631 22.7937C53.1631 20.5055 51.3149 18.8984 48.7206 18.8984H44.1006V31.2132H46.2329V26.6891H47.7435L51.0484 31.2132H53.554L50.0712 26.5319ZM48.7206 20.8199C50.0533 20.8199 50.9776 21.6234 50.9776 22.7937C50.9776 23.9641 50.0533 24.7676 48.7206 24.7676H46.2329V20.8199H48.7206Z" fill="black"/>
<path d="M58.353 31.3873C59.4724 31.3873 60.503 30.8109 61.0896 29.8501L61.4981 31.2126H63.0265V22.1294H60.9829V27.3872C60.9829 28.6798 60.1122 29.5881 58.9217 29.5881C57.7488 29.5881 56.9313 28.6798 56.9313 27.3872V22.1294H54.8879V27.6143C54.8879 29.7978 56.3805 31.3873 58.353 31.3873Z" fill="black"/>
<path d="M69.5482 31.3878C71.9116 31.3878 73.8664 30.0602 73.8664 27.8593C73.8664 25.3963 71.8228 24.6801 70.0637 24.0862C68.6954 23.6321 67.5049 23.2129 67.5049 22.1124C67.5049 21.1516 68.4109 20.6451 69.4771 20.6451C70.5967 20.6451 71.3964 21.2215 71.8407 22.1997L73.8664 21.8678C73.2266 19.9464 71.6095 18.7236 69.4063 18.7236C67.1317 18.7236 65.319 20.0162 65.319 22.2172C65.319 24.6976 67.3627 25.3788 69.1218 25.9553C70.4724 26.392 71.6806 26.8112 71.6806 27.9291C71.6806 28.9073 70.7745 29.4663 69.5661 29.4663C68.1799 29.4663 67.4338 28.82 66.7764 27.6497L64.7148 27.999C65.319 30.0777 67.2383 31.3878 69.5482 31.3878Z" fill="black"/>
<path d="M79.4253 29.4664C78.7323 29.4664 78.3947 29.1345 78.3947 28.4533V23.8767H81.1489V22.1299H78.3947V19.5098H76.8665L76.3511 22.1299H74.8408V23.8767H76.3511V28.4533C76.3511 30.235 77.3996 31.2132 79.4253 31.2132H81.1489L81.3267 29.4664H79.4253Z" fill="black"/>
<path d="M87.1666 31.3877C90.063 31.3877 92.1064 29.4313 92.1064 26.6714C92.1064 23.9114 90.063 21.9551 87.1666 21.9551C84.2702 21.9551 82.2266 23.9114 82.2266 26.6714C82.2266 29.4313 84.2702 31.3877 87.1666 31.3877ZM87.1666 29.5535C85.4962 29.5535 84.3589 28.3832 84.3589 26.6714C84.3589 24.9595 85.4962 23.7892 87.1666 23.7892C88.837 23.7892 89.974 24.9595 89.974 26.6714C89.974 28.3832 88.837 29.5535 87.1666 29.5535Z" fill="black"/>
<path d="M95.9264 31.2126V25.85C95.9264 24.6972 96.495 24.0508 97.739 24.0508H98.9119L98.7341 22.1294H98.3432C97.2591 22.1294 96.4239 22.4263 95.8021 23.4395L95.4112 22.1294H93.8831V31.2126H95.9264Z" fill="black"/>
<path d="M108.967 26.5666C108.967 23.9464 106.977 21.9551 104.169 21.9551C101.362 21.9551 99.3711 23.9289 99.3711 26.6714C99.3711 29.4138 101.362 31.3877 104.169 31.3877C106.088 31.3877 107.901 30.4968 108.594 28.7675L106.674 28.4531C106.23 29.0994 105.377 29.5535 104.294 29.5535C102.73 29.5535 101.699 28.6103 101.503 27.2129H108.931C108.949 27.0207 108.967 26.8111 108.967 26.5666ZM104.169 23.7019C105.448 23.7019 106.408 24.5054 106.746 25.6408H101.628C101.966 24.4704 102.925 23.7019 104.169 23.7019Z" fill="black"/>
<path d="M44.2732 15.8112V14.0328H44.3905C44.5425 14.0328 44.6641 13.9959 44.7553 13.9221C44.8465 13.8482 44.9225 13.7006 44.9833 13.4791C45.0484 13.2533 45.0983 12.921 45.1331 12.4824L45.322 10.0591H48.2143V14.0328H48.8853V15.8112H48.2143V14.6517H44.9442V15.8112H44.2732ZM47.5434 14.0328V10.6779H45.9409L45.8041 12.515C45.7519 13.2489 45.6173 13.7549 45.4002 14.0328H47.5434Z" fill="black"/>
<path d="M51.0182 14.7168C50.6752 14.7168 50.369 14.643 50.0997 14.4953C49.8305 14.3477 49.6198 14.1414 49.4678 13.8765C49.3158 13.6115 49.2398 13.3097 49.2398 12.971C49.2398 12.6322 49.3158 12.3304 49.4678 12.0655C49.6198 11.8006 49.8305 11.5943 50.0997 11.4466C50.369 11.2946 50.6752 11.2186 51.0182 11.2186C51.3613 11.2186 51.6675 11.2946 51.9368 11.4466C52.206 11.5943 52.4166 11.8006 52.5686 12.0655C52.7206 12.3304 52.7966 12.6322 52.7966 12.971C52.7966 13.3097 52.7206 13.6115 52.5686 13.8765C52.4166 14.1414 52.206 14.3477 51.9368 14.4953C51.6675 14.643 51.3613 14.7168 51.0182 14.7168ZM51.0182 14.1305C51.3483 14.1305 51.6154 14.0241 51.8195 13.8113C52.028 13.5985 52.1322 13.3184 52.1322 12.971C52.1322 12.6235 52.028 12.3434 51.8195 12.1306C51.6154 11.9135 51.3483 11.8049 51.0182 11.8049C50.6882 11.8049 50.4211 11.9135 50.217 12.1306C50.0129 12.3434 49.9108 12.6235 49.9108 12.971C49.9108 13.3141 50.0129 13.5942 50.217 13.8113C50.4211 14.0241 50.6882 14.1305 51.0182 14.1305Z" fill="black"/>
<path d="M55.0317 14.7168C54.6973 14.7168 54.3954 14.643 54.1262 14.4953C53.8613 14.3433 53.655 14.1349 53.5073 13.8699C53.3597 13.605 53.2858 13.3054 53.2858 12.971C53.2858 12.6322 53.3597 12.3304 53.5073 12.0655C53.655 11.8006 53.8613 11.5943 54.1262 11.4466C54.3911 11.2946 54.6929 11.2186 55.0317 11.2186C55.3921 11.2186 55.7135 11.3055 55.9958 11.4792C56.2824 11.6529 56.4865 11.9026 56.6081 12.2283L56.0088 12.3261C55.9306 12.1697 55.8069 12.0438 55.6375 11.9482C55.4725 11.8527 55.2835 11.8049 55.0707 11.8049C54.7407 11.8049 54.4714 11.9135 54.263 12.1306C54.0589 12.3478 53.9568 12.6279 53.9568 12.971C53.9568 13.3141 54.0589 13.5942 54.263 13.8113C54.4714 14.0241 54.7407 14.1305 55.0707 14.1305C55.2922 14.1305 55.4877 14.0806 55.657 13.9807C55.8307 13.8808 55.9567 13.7483 56.0349 13.5833L56.6342 13.681C56.5126 14.0111 56.3041 14.2673 56.0088 14.4497C55.7178 14.6278 55.3921 14.7168 55.0317 14.7168Z" fill="black"/>
<path d="M58.6052 14.6517H57.9668V11.8701H56.8007V11.2838H59.7713V11.8701H58.6052V14.6517Z" fill="black"/>
<path d="M62.7872 11.2838H63.4452L62.0381 15.1598C61.9339 15.4508 61.7971 15.6614 61.6277 15.7917C61.4583 15.922 61.2325 15.9871 60.9502 15.9871H60.4486L60.39 15.4008H60.9893C61.1152 15.4008 61.2129 15.3726 61.2824 15.3161C61.3519 15.264 61.4105 15.1706 61.4583 15.036L61.53 14.8406L60.0317 11.2838H60.7157L61.784 13.883H61.8752L62.7872 11.2838Z" fill="black"/>
<path d="M64.6609 14.6517H64.0225V11.2838H66.8888V14.6517H66.2504V11.8701H64.6609V14.6517Z" fill="black"/>
<path d="M70.0299 12.6583V11.2838H70.6683V14.6517H70.0299V13.2446H68.4079V14.6517H67.7695V11.2838H68.4079V12.6583H70.0299Z" fill="black"/>
<path d="M73.1312 14.7168C72.7881 14.7168 72.482 14.643 72.2127 14.4953C71.9435 14.3477 71.7328 14.1414 71.5808 13.8765C71.4288 13.6115 71.3528 13.3097 71.3528 12.971C71.3528 12.6322 71.4288 12.3304 71.5808 12.0655C71.7328 11.8006 71.9435 11.5943 72.2127 11.4466C72.482 11.2946 72.7881 11.2186 73.1312 11.2186C73.4743 11.2186 73.7805 11.2946 74.0497 11.4466C74.319 11.5943 74.5296 11.8006 74.6816 12.0655C74.8336 12.3304 74.9096 12.6322 74.9096 12.971C74.9096 13.3097 74.8336 13.6115 74.6816 13.8765C74.5296 14.1414 74.319 14.3477 74.0497 14.4953C73.7805 14.643 73.4743 14.7168 73.1312 14.7168ZM73.1312 14.1305C73.4613 14.1305 73.7284 14.0241 73.9325 13.8113C74.1409 13.5985 74.2452 13.3184 74.2452 12.971C74.2452 12.6235 74.1409 12.3434 73.9325 12.1306C73.7284 11.9135 73.4613 11.8049 73.1312 11.8049C72.8012 11.8049 72.5341 11.9135 72.33 12.1306C72.1259 12.3434 72.0238 12.6235 72.0238 12.971C72.0238 13.3141 72.1259 13.5942 72.33 13.8113C72.5341 14.0241 72.8012 14.1305 73.1312 14.1305Z" fill="black"/>
<path d="M79.3936 12.8863C79.5673 12.9514 79.7063 13.0578 79.8105 13.2055C79.9191 13.3488 79.9734 13.5182 79.9734 13.7136C79.9734 13.8917 79.9213 14.0523 79.817 14.1957C79.7172 14.339 79.576 14.4519 79.3936 14.5344C79.2112 14.6126 79.0028 14.6517 78.7682 14.6517H77.1592V11.2838H78.7096C78.9311 11.2838 79.1287 11.3229 79.3024 11.401C79.4761 11.4792 79.6108 11.5856 79.7063 11.7202C79.8062 11.8549 79.8561 12.009 79.8561 12.1827C79.8561 12.3478 79.8149 12.4911 79.7324 12.6127C79.6542 12.7299 79.5413 12.8211 79.3936 12.8863ZM77.7976 11.8245V12.6518H78.7096C78.8573 12.6518 78.9789 12.6149 79.0744 12.541C79.17 12.4629 79.2177 12.363 79.2177 12.2414C79.2177 12.1198 79.17 12.0199 79.0744 11.9417C78.9789 11.8635 78.8573 11.8245 78.7096 11.8245H77.7976ZM78.7682 14.111C78.9376 14.111 79.0744 14.0675 79.1786 13.9807C79.2829 13.8938 79.335 13.7809 79.335 13.6419C79.335 13.503 79.2829 13.3901 79.1786 13.3032C79.0744 13.2163 78.9376 13.1729 78.7682 13.1729H77.7976V14.111H78.7682Z" fill="black"/>
</g>
</g>
<defs>
<clipPath id="clip0_313_2125">
<rect width="119.488" height="39.8293" fill="white" transform="translate(0.256104 0.170898)"/>
</clipPath>
<clipPath id="clip1_313_2125">
<rect width="97.7145" height="24.4286" fill="white" transform="translate(11.249 8.13721)"/>
</clipPath>
</defs>
</svg>
