<svg width="41" height="40" viewBox="0 0 41 40" fill="none" xmlns="http://www.w3.org/2000/svg">
<path d="M20.3052 40C31.378 40 40.3543 31.0457 40.3543 20C40.3543 8.9543 31.378 0 20.3052 0C9.23239 0 0.256104 8.9543 0.256104 20C0.256104 31.0457 9.23239 40 20.3052 40Z" fill="#BBBDCC"/>
<path fill-rule="evenodd" clip-rule="evenodd" d="M9.34381 19.782C15.1837 17.2275 19.0873 15.5764 21.0235 14.7664C26.5823 12.4611 27.7378 12.0562 28.4873 12.0562C28.6434 12.0562 29.0182 12.0873 29.268 12.2742C29.4554 12.43 29.5178 12.6481 29.5491 12.8038C29.5803 12.9596 29.6115 13.3023 29.5803 13.5826C29.268 16.729 27.9876 24.4238 27.3006 27.944C27.0195 29.4393 26.4574 29.9378 25.9265 30.0001C24.771 30.0935 23.8654 29.2213 22.7411 28.5048C20.9923 27.3521 19.9929 26.6356 18.2753 25.5141C16.3079 24.2057 17.5883 23.4892 18.7125 22.3365C18.9936 22.025 24.1464 17.3833 24.2401 16.9471C24.2401 16.8848 24.2713 16.6979 24.1464 16.6044C24.0215 16.511 23.8654 16.5421 23.7404 16.5733C23.5531 16.6044 20.7424 18.4736 15.2773 22.1496C14.4654 22.7104 13.7471 22.9596 13.0913 22.9596C12.373 22.9596 10.999 22.5546 9.96839 22.2119C8.71923 21.8069 7.7199 21.5889 7.81359 20.9035C7.90727 20.5297 8.40694 20.1558 9.34381 19.782Z" fill="white"/>
</svg>
