<svg width="41" height="40" viewBox="0 0 41 40" fill="none" xmlns="http://www.w3.org/2000/svg">
<path d="M0.256104 19.1667C0.256104 10.1314 0.256104 5.61378 3.06299 2.80689C5.86989 0 10.3875 0 19.4228 0H21.0894C30.1247 0 34.6424 0 37.4492 2.80689C40.2561 5.61378 40.2561 10.1314 40.2561 19.1667V20.8333C40.2561 29.8686 40.2561 34.3862 37.4492 37.1931C34.6424 40 30.1247 40 21.0894 40H19.4228C10.3875 40 5.86989 40 3.06299 37.1931C0.256104 34.3862 0.256104 29.8686 0.256104 20.8333L0.256104 19.1667Z" fill="#BBBDCC"/>
<path fill-rule="evenodd" clip-rule="evenodd" d="M10.6948 13.4165H7.88391C7.0808 13.4165 6.92017 13.7958 6.92017 14.2138C6.92017 14.9607 7.87312 18.6645 11.3573 23.5632C13.68 26.9086 16.9526 28.7221 19.9305 28.7221C21.7173 28.7221 21.9383 28.3193 21.9383 27.6255V25.0971C21.9383 24.2915 22.1076 24.1307 22.6733 24.1307C23.0902 24.1307 23.8049 24.3398 25.4726 25.9528C27.3785 27.8645 27.6927 28.7221 28.7646 28.7221H31.5755C32.3787 28.7221 32.7802 28.3193 32.5486 27.5244C32.2951 26.7323 31.3851 25.5828 30.1777 24.2204C29.5225 23.4437 28.5398 22.6074 28.242 22.1892C27.8251 21.6515 27.9442 21.4125 28.242 20.9347C28.242 20.9347 31.6666 16.0957 32.024 14.4529C32.2027 13.8555 32.024 13.4165 31.174 13.4165H28.3631C27.6484 13.4165 27.3189 13.7958 27.1402 14.2138C27.1402 14.2138 25.7108 17.7087 23.6859 19.9788C23.0307 20.6359 22.7329 20.845 22.3755 20.845C22.1968 20.845 21.9382 20.6359 21.9382 20.0386V14.4529C21.9382 13.736 21.7308 13.4165 21.1351 13.4165H16.718C16.2715 13.4165 16.0028 13.7492 16.0028 14.0646C16.0028 14.7441 17.0153 14.9009 17.1197 16.8126V20.9646C17.1197 21.8748 16.9557 22.0399 16.5984 22.0399C15.6455 22.0399 13.3275 18.5294 11.9528 14.5126C11.6834 13.7319 11.4131 13.4165 10.6948 13.4165Z" fill="white"/>
</svg>
