<svg width="41" height="40" viewBox="0 0 41 40" fill="none" xmlns="http://www.w3.org/2000/svg">
<g clip-path="url(#clip0_313_2227)">
<path d="M40.2561 29.8493C40.2561 30.0685 40.2493 30.5411 40.2356 30.911C40.2013 31.8082 40.1328 32.9658 40.0232 33.4931C39.8588 34.2877 39.6191 35.0342 39.2972 35.6575C38.9205 36.3973 38.441 37.0548 37.8657 37.6233C37.2972 38.1918 36.6397 38.6712 35.8999 39.0479C35.2767 39.3699 34.5232 39.6096 33.7219 39.774C33.2013 39.8767 32.0506 39.9521 31.1602 39.9795C30.7903 39.9932 30.3177 40 30.0986 40H10.3999C10.1808 40 9.70816 39.9932 9.3383 39.9795C8.44104 39.9452 7.2835 39.8767 6.7561 39.7671C5.96158 39.6027 5.21501 39.363 4.59172 39.0411C3.85199 38.6644 3.19446 38.1849 2.62597 37.6096C2.05747 37.0411 1.57802 36.3836 1.20131 35.6438C0.879391 35.0205 0.639665 34.2671 0.475282 33.4658C0.372542 32.9452 0.297199 31.7945 0.269802 30.9041C0.262953 30.5411 0.256104 30.0685 0.256104 29.8493V10.1507C0.256104 9.93151 0.262953 9.4589 0.276651 9.08904C0.310898 8.19178 0.379391 7.03425 0.48898 6.50685C0.653364 5.71233 0.89309 4.96575 1.21501 4.34247C1.59172 3.60274 2.07117 2.94521 2.63967 2.37671C3.20816 1.80822 3.86569 1.32877 4.60542 0.952055C5.22871 0.630137 5.98213 0.390411 6.7835 0.226027C7.30405 0.123288 8.45473 0.0479452 9.34514 0.0205479C9.71501 0.00684932 10.1876 0 10.4068 0H30.1054C30.3246 0 30.7972 0.00684932 31.1671 0.0205479C32.0643 0.0547945 33.2219 0.123288 33.7493 0.232877C34.5438 0.39726 35.2903 0.636986 35.9136 0.958904C36.6534 1.33562 37.3109 1.81507 37.8794 2.39041C38.4479 2.9589 38.9273 3.61644 39.304 4.35616C39.626 4.97945 39.8657 5.73288 40.0301 6.53425C40.1328 7.05479 40.2082 8.20548 40.2356 9.09589C40.2493 9.46575 40.2561 9.93836 40.2561 10.1575V29.8493Z" fill="#BBBDCC"/>
<path fill-rule="evenodd" clip-rule="evenodd" d="M30.7767 9.57554C28.0849 6.88376 24.5027 5.39746 20.6876 5.39746C12.8246 5.39746 6.4342 11.7947 6.42735 19.6509C6.42735 22.1646 7.08489 24.6166 8.33146 26.7742L6.31091 34.1646L13.8726 32.1851C15.9547 33.3221 18.2972 33.918 20.6876 33.918H20.6945C28.5506 33.918 34.9479 27.5207 34.9548 19.6646C34.9548 15.8495 33.4684 12.2673 30.7767 9.57554ZM20.6945 31.5071C18.5643 31.5071 16.4753 30.9317 14.6602 29.8564L14.2287 29.6029L9.74242 30.781L10.9411 26.4112L10.6602 25.966C9.4753 24.0824 8.84516 21.8975 8.84516 19.6577C8.84516 13.1235 14.1671 7.80842 20.7013 7.80842C23.8657 7.80842 26.8452 9.0413 29.078 11.281C31.3178 13.5207 32.5506 16.5002 32.5438 19.6646C32.5369 26.192 27.2219 31.5071 20.6945 31.5071ZM27.1945 22.6372C26.8383 22.4591 25.0849 21.5961 24.763 21.4797C24.4342 21.3632 24.2013 21.3016 23.9616 21.6577C23.7219 22.0139 23.0438 22.8153 22.8315 23.055C22.626 23.2947 22.4137 23.3221 22.0575 23.144C21.7013 22.966 20.5506 22.5892 19.1945 21.3769C18.1328 20.4317 17.4205 19.2673 17.215 18.9112C17.0095 18.555 17.1945 18.3632 17.3726 18.1851C17.5301 18.0276 17.7287 17.7673 17.9068 17.5618C18.0849 17.3564 18.1465 17.2057 18.263 16.966C18.3794 16.7262 18.3246 16.5207 18.2356 16.3427C18.1465 16.1646 17.4342 14.4112 17.1397 13.6988C16.852 13.007 16.5575 13.0961 16.3383 13.0892C16.1328 13.0755 15.8931 13.0755 15.6534 13.0755C15.4137 13.0755 15.0301 13.1646 14.7013 13.5207C14.3726 13.8769 13.4547 14.7399 13.4547 16.4934C13.4547 18.2468 14.7287 19.9386 14.9068 20.1783C15.0849 20.418 17.4205 24.0139 20.9958 25.555C21.8452 25.9249 22.5095 26.144 23.0301 26.3084C23.8863 26.5824 24.6602 26.5413 25.2767 26.4523C25.9616 26.3495 27.3863 25.5892 27.6808 24.7605C27.9753 23.9317 27.9753 23.2125 27.8863 23.0687C27.7835 22.9043 27.5506 22.8153 27.1945 22.6372Z" fill="white"/>
</g>
<defs>
<clipPath id="clip0_313_2227">
<rect width="40" height="40" fill="white" transform="translate(0.256104)"/>
</clipPath>
</defs>
</svg>
