<svg width="50" height="50" viewBox="0 0 50 50" fill="none" xmlns="http://www.w3.org/2000/svg">
<path d="M31.2513 45.8333H18.7513C8.33464 45.8333 4.16797 41.6666 4.16797 31.25V18.75C4.16797 8.33329 8.33464 4.16663 18.7513 4.16663H31.2513C41.668 4.16663 45.8346 8.33329 45.8346 18.75V31.25C45.8346 41.6666 41.668 45.8333 31.2513 45.8333Z" stroke="#2F3140" stroke-width="3" stroke-linecap="round" stroke-linejoin="round"/>
<path d="M18.2153 33.6268C17.7703 33.6268 17.3961 33.5192 17.0927 33.304C16.8096 33.0693 16.668 32.7856 16.668 32.4531C16.668 32.101 16.8096 31.8173 17.0927 31.6022C17.3961 31.387 17.7703 31.2794 18.2153 31.2794H27.0745C27.5397 31.2794 27.9139 31.387 28.1971 31.6022C28.5005 31.8173 28.6522 32.101 28.6522 32.4531C28.6522 32.7856 28.5005 33.0693 28.1971 33.304C27.9139 33.5192 27.5397 33.6268 27.0745 33.6268H18.2153ZM18.2153 29.5482C17.7703 29.5482 17.3961 29.421 17.0927 29.1667C16.8096 28.9124 16.668 28.5799 16.668 28.1691C16.668 27.7387 16.8096 27.3964 17.0927 27.1421C17.3961 26.8682 17.7703 26.7313 18.2153 26.7313H22.5236V29.5482H18.2153ZM21.583 37.5C21.138 37.5 20.7638 37.3533 20.4604 37.0599C20.157 36.7665 20.0053 36.4046 20.0053 35.9742V16.1092C20.0053 15.6593 20.157 15.2974 20.4604 15.0235C20.7638 14.7301 21.138 14.5834 21.583 14.5834H27.651C29.168 14.5834 30.513 14.9061 31.6862 15.5517C32.8593 16.1972 33.7695 17.0971 34.4168 18.2512C35.0842 19.3858 35.418 20.6964 35.418 22.1831C35.418 23.6112 35.0842 24.8827 34.4168 25.9977C33.7695 27.1127 32.8593 27.9832 31.6862 28.6092C30.513 29.2352 29.168 29.5482 27.651 29.5482H23.1607V35.9742C23.1607 36.4046 23.009 36.7665 22.7056 37.0599C22.4224 37.3533 22.0482 37.5 21.583 37.5ZM23.1607 26.7313H27.651C28.5814 26.7313 29.4006 26.5356 30.1085 26.1444C30.8164 25.7532 31.3727 25.2152 31.7772 24.5306C32.1817 23.8459 32.384 23.0634 32.384 22.1831C32.384 21.2442 32.1817 20.4226 31.7772 19.7184C31.3727 18.9946 30.8164 18.4273 30.1085 18.0165C29.4006 17.6057 28.5814 17.4003 27.651 17.4003H23.1607V26.7313Z" fill="#2F3140"/>
</svg>
