<svg width="273" height="35" viewBox="0 0 273 35" fill="none" xmlns="http://www.w3.org/2000/svg">
<g clip-path="url(#clip0_255_539)">
<path d="M34.4267 6.13429C36.6644 8.62681 37.4781 12.3157 36.9696 17.7993C36.5627 23.5819 35.1387 27.1711 32.5958 29.4642C29.9512 31.857 25.5774 33.0535 19.0676 33.0535C12.5578 33.0535 8.18399 31.9567 5.53938 29.4642C3.0982 27.1711 1.77589 23.5819 1.26731 17.7993C0.758736 12.3157 1.57246 8.62681 3.81021 6.13429C6.45482 3.24297 11.3372 1.84717 19.1693 1.84717C26.8997 1.84717 31.7821 3.24297 34.4267 6.13429ZM19.1693 1.04956C3.50506 1.04956 -0.563569 6.73249 0.351872 17.899C1.36903 29.1651 5.43766 33.9508 19.0676 33.9508C32.6975 33.9508 36.7661 29.1651 37.7833 17.899C38.8004 6.73249 34.7318 1.04956 19.1693 1.04956Z" fill="#2F3140"/>
<mask id="mask0_255_539" style="mask-type:luminance" maskUnits="userSpaceOnUse" x="0" y="1" width="273" height="34">
<path d="M0.352173 1.24902V34.549H272.442V1.24902" fill="white"/>
</mask>
<g mask="url(#mask0_255_539)">
<path d="M19.1676 2.64526C5.1308 2.64526 1.2656 7.73 2.18104 17.8995C3.09648 27.9692 6.75825 32.2563 19.0659 32.2563C31.3735 32.2563 35.0352 27.9692 35.9507 17.8995C36.8661 7.73 33.2044 2.64526 19.1676 2.64526ZM26.186 5.03808C23.4396 11.8177 20.3882 18.2983 19.4727 20.2923C19.4366 20.3378 19.3903 20.3747 19.3374 20.4001C19.2845 20.4254 19.2265 20.4386 19.1676 20.4386C19.1087 20.4386 19.0506 20.4254 18.9977 20.4001C18.9448 20.3747 18.8986 20.3378 18.8624 20.2923C17.8453 18.1986 14.7938 11.8177 12.1492 5.03808C12.0475 4.93838 12.1492 4.83868 12.2509 4.83868C14.1835 4.43987 16.523 4.24047 19.2693 4.24047C22.0156 4.24047 24.2534 4.43987 26.2877 4.83868C26.186 4.83868 26.2877 4.93838 26.186 5.03808ZM3.70678 17.7001C3.40163 13.0141 4.01193 9.92341 5.84281 7.8297C6.85997 6.73299 8.28399 5.93538 10.2166 5.33718C10.3183 5.33718 10.3183 5.33718 10.3183 5.53658V14.709C10.3183 16.2045 10.7252 17.7001 11.4372 19.0959L17.6418 30.4617C17.7436 30.5614 17.6418 30.6611 17.5401 30.6611C12.6578 30.4617 9.50458 29.5644 7.47026 27.6701C5.33423 25.7758 4.21536 22.6851 3.70678 17.7001ZM34.5267 17.7001C34.1198 22.6851 32.8992 25.7758 30.7632 27.6701C28.7289 29.5644 25.474 30.5614 20.6933 30.6611C20.4899 30.6611 20.4899 30.4617 20.4899 30.4617L26.6945 19.0959C27.4066 17.7001 27.7117 16.2045 27.7117 14.709V5.43688C27.7117 5.23748 27.8134 5.23748 27.9151 5.23748C29.8477 5.83568 31.2718 6.63329 32.2889 7.73C34.2215 9.92341 34.9335 13.0141 34.5267 17.7001Z" fill="#2F3140"/>
</g>
<mask id="mask1_255_539" style="mask-type:luminance" maskUnits="userSpaceOnUse" x="0" y="1" width="273" height="34">
<path d="M0.352173 1.24902V34.549H272.442V1.24902" fill="white"/>
</mask>
<g mask="url(#mask1_255_539)">
<path d="M56.19 24.9775C51.0025 24.9775 47.951 23.1828 47.951 17.799C47.951 12.9137 51.1042 10.9197 56.3935 10.9197H63.1067V14.6086H56.6986C54.1557 14.6086 53.4437 15.3065 53.4437 17.8987C53.4437 20.6903 54.1557 21.3882 56.902 21.3882H63.1067V25.0772H56.19V24.9775Z" fill="#2F3140"/>
</g>
<mask id="mask2_255_539" style="mask-type:luminance" maskUnits="userSpaceOnUse" x="0" y="1" width="273" height="34">
<path d="M0.352173 1.24902V34.549H272.442V1.24902" fill="white"/>
</mask>
<g mask="url(#mask2_255_539)">
<path d="M84.0672 10.8201V24.9776H78.778V19.5937H72.8785V24.9776H67.5892V10.8201H72.8785V15.8051H78.778V10.8201H84.0672Z" fill="#2F3140"/>
</g>
<mask id="mask3_255_539" style="mask-type:luminance" maskUnits="userSpaceOnUse" x="0" y="1" width="273" height="34">
<path d="M0.352173 1.24902V34.549H272.442V1.24902" fill="white"/>
</mask>
<g mask="url(#mask3_255_539)">
<path d="M87.0137 24.9776L92.8115 10.8201H97.6938C98.9144 10.8201 99.423 11.2189 99.7281 12.0165L105.323 24.9776H99.6264L95.9647 16.2039C95.7612 15.6057 95.3544 15.6057 95.1509 16.2039L91.5909 24.9776H87.0137Z" fill="#2F3140"/>
</g>
<mask id="mask4_255_539" style="mask-type:luminance" maskUnits="userSpaceOnUse" x="0" y="1" width="273" height="34">
<path d="M0.352173 1.24902V34.549H272.442V1.24902" fill="white"/>
</mask>
<g mask="url(#mask4_255_539)">
<path d="M119.664 24.1799L112.951 17.9985C112.748 17.6994 112.544 17.7991 112.544 18.1979V24.9776H108.171V10.8201H111.019C112.036 10.8201 112.646 11.0195 113.155 11.4183L120.173 17.7991C120.376 18.0982 120.58 17.8988 120.58 17.5997V10.8201H124.954V24.2796C124.954 24.6785 124.75 24.9776 124.242 24.9776H121.902C120.987 24.9776 120.275 24.6785 119.664 24.1799Z" fill="#2F3140"/>
</g>
<mask id="mask5_255_539" style="mask-type:luminance" maskUnits="userSpaceOnUse" x="0" y="1" width="273" height="34">
<path d="M0.352173 1.24902V34.549H272.442V1.24902" fill="white"/>
</mask>
<g mask="url(#mask5_255_539)">
<path d="M145.501 24.9775H137.466C131.973 24.9775 129.023 23.1829 129.023 17.799C129.023 13.0134 131.871 10.9197 137.567 10.9197H146.111V14.6086H137.771C135.126 14.6086 134.312 15.2068 134.312 17.8987C134.312 20.79 135.024 21.5876 137.771 21.5876H140.924C141.127 21.5876 141.229 21.3882 141.229 21.1888V19.793C141.229 19.5936 141.127 19.3942 140.924 19.3942H138.381V16.4032H145.298C145.705 16.4032 146.01 16.6026 146.01 17.1011V24.2796C146.213 24.6784 145.908 24.9775 145.501 24.9775Z" fill="#2F3140"/>
</g>
<mask id="mask6_255_539" style="mask-type:luminance" maskUnits="userSpaceOnUse" x="0" y="1" width="273" height="34">
<path d="M0.352173 1.24902V34.549H272.442V1.24902" fill="white"/>
</mask>
<g mask="url(#mask6_255_539)">
<path d="M149.268 24.9776L155.066 10.8201H159.847C161.169 10.8201 161.576 11.2189 161.983 12.0165L167.476 24.9776H161.881L158.219 16.2039C158.016 15.6057 157.609 15.6057 157.406 16.2039L153.846 24.9776H149.268Z" fill="#2F3140"/>
</g>
<mask id="mask7_255_539" style="mask-type:luminance" maskUnits="userSpaceOnUse" x="0" y="1" width="273" height="34">
<path d="M0.352173 1.24902V34.549H272.442V1.24902" fill="white"/>
</mask>
<g mask="url(#mask7_255_539)">
<path d="M181.907 24.1799L175.194 17.9985C174.889 17.6994 174.787 17.7991 174.787 18.1979V24.9776H170.414V10.8201H173.16C174.177 10.8201 174.889 11.0195 175.398 11.4183L182.416 17.7991C182.619 18.0982 182.823 17.8988 182.823 17.5997V10.8201H187.197V24.2796C187.197 24.6785 186.993 24.9776 186.485 24.9776H184.145C183.23 24.9776 182.518 24.6785 181.907 24.1799Z" fill="#2F3140"/>
</g>
<mask id="mask8_255_539" style="mask-type:luminance" maskUnits="userSpaceOnUse" x="0" y="1" width="273" height="34">
<path d="M0.352173 1.24902V34.549H272.442V1.24902" fill="white"/>
</mask>
<g mask="url(#mask8_255_539)">
<path d="M195.651 24.9776L201.449 10.8201H206.332C207.552 10.8201 208.061 11.2189 208.366 12.0165L213.96 24.9776H208.264L204.602 16.2039C204.399 15.6057 203.992 15.6057 203.789 16.2039L200.229 24.9776H195.651Z" fill="#2F3140"/>
</g>
<mask id="mask9_255_539" style="mask-type:luminance" maskUnits="userSpaceOnUse" x="0" y="1" width="273" height="34">
<path d="M0.352173 1.24902V34.549H272.442V1.24902" fill="white"/>
</mask>
<g mask="url(#mask9_255_539)">
<path d="M232.263 10.8201V18.9955C232.263 23.9805 229.009 25.4761 224.025 25.4761C219.04 25.4761 215.786 24.0802 215.786 18.9955V10.8201H220.973V18.1979C220.973 21.0892 222.499 21.7871 224.33 21.7871C226.262 21.7871 227.788 21.0892 227.788 18.1979V10.8201H232.263Z" fill="#2F3140"/>
</g>
<mask id="mask10_255_539" style="mask-type:luminance" maskUnits="userSpaceOnUse" x="0" y="1" width="273" height="34">
<path d="M0.352173 1.24902V34.549H272.442V1.24902" fill="white"/>
</mask>
<g mask="url(#mask10_255_539)">
<path d="M235.615 10.8201H251.483V14.6087H246.194V24.9776H240.905V14.6087H235.615V10.8201Z" fill="#2F3140"/>
</g>
<mask id="mask11_255_539" style="mask-type:luminance" maskUnits="userSpaceOnUse" x="0" y="9" width="273" height="34">
<path d="M0.150024 9.17505V42.475H272.24V9.17505" fill="white"/>
</mask>
<g mask="url(#mask11_255_539)">
<path d="M272.542 17.7988C272.542 23.083 269.389 25.3761 263.083 25.3761C256.878 25.3761 253.623 23.083 253.623 17.7988C253.623 12.5147 256.878 10.3213 263.083 10.3213C269.287 10.3213 272.542 12.5147 272.542 17.7988ZM259.014 17.7988C259.014 20.5905 260.031 21.7869 263.083 21.7869C266.134 21.7869 267.05 20.6902 267.05 17.7988C267.05 15.1069 266.032 14.0102 263.083 14.0102C260.031 14.0102 259.014 15.0072 259.014 17.7988Z" fill="#2F3140"/>
</g>
</g>
<defs>
<clipPath id="clip0_255_539">
<rect width="272.7" height="33.3" fill="white" transform="translate(0.150024 0.850098)"/>
</clipPath>
</defs>
</svg>
