<svg width="206" height="30" viewBox="0 0 206 30" fill="none" xmlns="http://www.w3.org/2000/svg">
<path fill-rule="evenodd" clip-rule="evenodd" d="M39.4235 4.63231V6.94848H39.6911H39.9587V4.63231V2.31613H39.6911H39.4235V4.63231ZM51.5118 2.62462C51.7144 2.78863 53.3038 4.05988 55.0438 5.4498C56.7839 6.83962 59.2505 8.81245 60.5253 9.83399C62.5816 11.4816 63.1955 11.8921 63.1799 11.6084C63.1774 11.5629 62.9486 11.3483 62.6715 11.1316C62.2435 10.7968 59.3348 8.48113 54.2474 4.42495C53.5998 3.90866 52.7475 3.22297 52.3532 2.90124C51.9412 2.56484 51.5318 2.31833 51.39 2.32131C51.1613 2.32617 51.1701 2.34811 51.5118 2.62462ZM78.3145 5.9769C75.7915 7.99032 73.3161 9.96326 72.8138 10.3611C68.5928 13.7043 67.0486 14.9546 67.0682 15.0135C67.0926 15.0869 67.2382 15.2042 73.8876 20.5139C76.2717 22.4176 79.2692 24.8131 80.5487 25.8373C82.1958 27.1558 82.9419 27.6892 83.1041 27.6641C83.2868 27.6358 83.1229 27.4614 82.2934 26.8014C81.7217 26.3465 80.6648 25.5027 79.945 24.9264C79.2251 24.3501 77.7311 23.159 76.6248 22.2794C75.5185 21.3998 74.0528 20.2303 73.3675 19.6806C72.6822 19.1309 71.1101 17.8723 69.8739 16.8838C68.6377 15.8953 67.6263 15.0474 67.6263 14.9997C67.6263 14.9189 69.2686 13.5943 77.7943 6.79826C83.9331 1.90495 83.4439 2.31613 83.1272 2.31613C82.9951 2.31613 81.0066 3.82881 78.3145 5.9769ZM122.694 4.63231V6.94848H122.961H123.229V4.63231V2.31613H122.961H122.694V4.63231ZM162.617 4.63231V6.94848H162.884H163.152V4.63231V2.31613H162.884H162.617V4.63231ZM198.568 2.49073C199.438 2.73183 200.166 3.17863 200.893 3.91749C201.586 4.62205 201.977 5.29705 202.26 6.27922C202.411 6.80642 202.432 7.84462 202.431 14.9373C202.429 23.6884 202.439 23.5391 201.826 24.787C201.196 26.0696 199.628 27.2897 198.258 27.5634C197.776 27.6596 197.776 27.6596 198.166 27.6716C198.746 27.6896 199.877 27.2922 200.524 26.8437C201.339 26.2791 201.955 25.5464 202.411 24.6013L202.807 23.7798V15V6.2201L202.405 5.38286C201.974 4.4833 201.273 3.67153 200.434 3.09844C199.887 2.72565 198.733 2.31161 198.273 2.32341C198.088 2.32815 198.19 2.38595 198.568 2.49073ZM10.7927 7.21131C10.1495 7.52466 9.75619 7.93639 9.46345 8.60289C9.27508 9.03161 9.24511 9.3283 9.24308 10.7812C9.24083 12.3549 9.25367 12.4632 9.44205 12.4632C9.6286 12.4632 9.64648 12.3369 9.68715 10.7261C9.72932 9.05532 9.74291 8.96642 10.0437 8.39907C10.3918 7.7426 11.023 7.22609 11.6685 7.06969L12.0771 6.97065L11.7024 6.96061C11.4964 6.9551 11.087 7.06793 10.7927 7.21131ZM94.1165 7.178C93.522 7.45539 93.0973 7.86061 92.7968 8.43745C92.5944 8.82602 92.5626 9.09249 92.5298 10.6709C92.4941 12.3887 92.5013 12.4632 92.7018 12.4632C92.8983 12.4632 92.914 12.3584 92.9611 10.7261C93.0074 9.12734 93.0335 8.94503 93.2885 8.43745C93.6213 7.77514 94.2002 7.28223 94.861 7.09859C95.3426 6.96469 95.3436 6.96337 94.9728 6.9583C94.7667 6.95554 94.3814 7.05447 94.1165 7.178ZM134.2 7.07025C133.61 7.25742 133.041 7.76091 132.733 8.36951C132.442 8.9426 132.434 9.00756 132.434 10.7111C132.434 12.3491 132.447 12.4632 132.634 12.4632C132.819 12.4632 132.838 12.3301 132.883 10.6709C132.926 9.11786 132.963 8.81752 133.162 8.42058C133.452 7.83933 134.063 7.31576 134.681 7.118C135.098 6.98455 135.12 6.96414 134.842 6.96613C134.665 6.96734 134.376 7.01422 134.2 7.07025ZM172.249 15C172.249 22.9779 172.251 23.0514 172.463 23.0514C172.676 23.0514 172.677 22.9779 172.677 15C172.677 7.02205 172.676 6.94848 172.463 6.94848C172.251 6.94848 172.249 7.02205 172.249 15ZM37.2602 14.8346L37.2294 17.2061L37.4702 17.2059L37.711 17.2058V14.8345C37.711 12.552 37.7032 12.4632 37.501 12.4632C37.2998 12.4632 37.2898 12.5628 37.2602 14.8346ZM120.531 14.8346L120.5 17.2061L120.741 17.2059L120.981 17.2058V14.8345C120.981 12.552 120.974 12.4632 120.771 12.4632C120.57 12.4632 120.56 12.5628 120.531 14.8346ZM160.369 14.8422V17.2212L160.61 17.186C160.85 17.1508 160.851 17.1433 160.879 14.8069L160.908 12.4632H160.639H160.369V14.8422ZM9.24072 19.0122C9.24072 21.1663 9.30055 21.4287 9.96565 22.1888C10.4295 22.719 11.0635 23.0498 11.5954 23.0391L11.97 23.0316L11.603 22.9229C10.9802 22.7386 10.3766 22.2282 10.0396 21.6008L9.72279 21.011L9.72258 19.0536C9.72236 17.0974 9.72226 17.0963 9.48154 17.0959C9.24104 17.0955 9.24072 17.098 9.24072 19.0122ZM92.5295 19.1636C92.5637 21.1843 92.571 21.2417 92.8468 21.6727C93.4118 22.5561 94.1613 23.0594 94.8891 23.044L95.2403 23.0366L94.798 22.894C94.1504 22.6852 93.6039 22.2068 93.2872 21.5709C93.0245 21.0439 93.0053 20.8961 92.9604 19.0533C92.9152 17.2013 92.9013 17.0955 92.7035 17.0955C92.5022 17.0955 92.4956 17.173 92.5295 19.1636ZM132.434 19.1133V21.131L132.782 21.7288C133.211 22.467 133.913 22.9482 134.65 23.0106L135.163 23.054L134.681 22.8909C134.058 22.6798 133.45 22.1559 133.16 21.5793C132.955 21.1722 132.924 20.8975 132.883 19.1084C132.839 17.2299 132.822 17.0955 132.635 17.0955C132.445 17.0955 132.434 17.2128 132.434 19.1133ZM61.9536 19.0094C61.4827 19.39 60.0137 20.5636 58.6892 21.6174C57.3647 22.671 56.0161 23.7463 55.6923 24.0067C55.3685 24.2672 54.2163 25.1886 53.1319 26.0544C51.6421 27.2438 51.2151 27.637 51.3848 27.6628C51.6077 27.6967 51.8523 27.5178 54.4485 25.4227C55.0499 24.9375 56.4468 23.8207 57.5526 22.9411C58.6586 22.0615 60.353 20.7091 61.3181 19.9356C62.2832 19.1621 63.1248 18.5294 63.1884 18.5294C63.2521 18.5294 63.2744 18.4797 63.238 18.4191C63.1016 18.1916 62.7856 18.3369 61.9536 19.0094ZM39.4235 25.3676V27.6838H39.6911H39.9587V25.3676V23.0514H39.6911H39.4235V25.3676ZM122.694 25.3676V27.6838H122.961H123.229V25.3676V23.0514H122.961H122.694V25.3676ZM162.617 25.3676V27.6838H162.884H163.152V25.3676V23.0514H162.884H162.617V25.3676Z" fill="#2F3140"/>
<path fill-rule="evenodd" clip-rule="evenodd" d="M7.04648 2.46992C5.24194 3.0558 3.94932 4.36654 3.37938 6.18838C3.20952 6.73125 3.19336 7.49415 3.19336 14.9448C3.19336 21.5565 3.22151 23.2114 3.34149 23.6581C3.71064 25.0325 4.84913 26.5138 5.97093 27.0794C7.22416 27.7113 6.34468 27.6811 23.5561 27.6825L39.4234 27.6838V25.3676V23.0515L25.3221 23.049C9.43168 23.0463 10.782 23.1219 9.96555 22.1889C9.30206 21.4305 9.24063 21.1638 9.24063 19.0398V17.1507H23.235H37.2293L37.2582 14.807L37.2871 12.4632H23.2639H9.24063L9.24298 10.7812C9.24501 9.32834 9.27498 9.03165 9.46336 8.60294C9.75609 7.93643 10.1494 7.5247 10.7926 7.21135L11.3277 6.95073L25.3756 6.94963L39.4234 6.94852V4.63235V2.31617L23.449 2.32356C10.9142 2.32929 7.38246 2.36084 7.04648 2.46992ZM43.1736 2.45757C43.6756 2.86709 45.2069 4.09014 45.7258 4.4958C46.0564 4.75444 46.4714 5.0861 46.648 5.2329C46.8246 5.37981 48.3177 6.57353 49.966 7.88569C51.6143 9.19775 53.1074 10.3878 53.284 10.5301C54.1885 11.2591 56.9075 13.425 57.5503 13.9285C57.9542 14.2448 58.4117 14.6125 58.567 14.7455L58.8496 14.9875L58.4951 15.3246C58.3002 15.5101 58.1198 15.6618 58.0942 15.6618C58.0473 15.6618 55.685 17.5323 55.5852 17.6485C55.5557 17.6828 55.2427 17.935 54.8895 18.2091C53.0479 19.6382 52.4813 20.1101 52.4813 20.2152C52.4813 20.2788 52.4513 20.3 52.4147 20.2622C52.3781 20.2245 52.095 20.4024 51.7857 20.6575C51.4763 20.9126 50.7236 21.5169 50.113 22.0005C49.5024 22.484 48.9787 22.9061 48.9492 22.9386C48.9198 22.9711 48.703 23.1436 48.4676 23.322C48.2321 23.5005 48.0154 23.6771 47.9859 23.7144C47.9565 23.7519 47.5591 24.0651 47.1029 24.4104C46.6468 24.7558 46.2734 25.0876 46.2734 25.1478C46.2734 25.208 46.2373 25.245 46.1931 25.2298C46.1157 25.2032 44.8335 26.1577 44.6145 26.405C44.5556 26.4714 44.3028 26.669 44.0525 26.844C43.8024 27.0191 43.5977 27.2018 43.5977 27.2502C43.5977 27.2986 43.5013 27.3696 43.3836 27.4081C42.712 27.6278 43.4749 27.6838 47.1359 27.6838H51.1024L52.9959 26.1628C54.0374 25.3262 55.0162 24.5445 55.1711 24.4256C55.3259 24.3068 55.9521 23.81 56.5625 23.3217C61.4816 19.3862 62.8655 18.3088 63.0016 18.3088C63.0877 18.3088 63.2242 18.3908 63.3049 18.4909C63.4468 18.6673 65.3874 20.2362 65.7396 20.4596C65.8353 20.5202 65.9522 20.6319 65.9993 20.7077C66.0464 20.7836 66.1507 20.8456 66.2311 20.8456C66.3116 20.8456 66.3935 20.8828 66.4132 20.9283C66.4768 21.0759 67.5454 21.9485 67.6625 21.9485C67.725 21.9485 67.8146 22.0192 67.8616 22.1057C67.9087 22.1921 68.5975 22.7703 69.3922 23.3906C70.7614 24.4594 71.8266 25.3133 72.1691 25.6167C72.2541 25.692 72.5672 25.9383 72.8648 26.164C73.1624 26.3896 73.4766 26.6376 73.5632 26.7149C73.6497 26.7922 73.95 27.0425 74.2305 27.271L74.7408 27.6865L78.7652 27.6576L82.7898 27.6287L80.5061 25.8023C79.25 24.7977 76.2716 22.4182 73.8875 20.5141C67.2226 15.1917 67.0925 15.0868 67.0685 15.0136C67.0561 14.9757 68.4206 13.8529 70.1004 12.5184C73.2024 10.0542 74.7375 8.83091 79.9715 4.65253L82.898 2.31617H78.8121H74.7263L74.2297 2.72977C73.9566 2.95731 73.6595 3.20393 73.5695 3.27805C73.3168 3.48584 71.4812 4.94305 70.409 5.7868C69.8792 6.20382 69.3674 6.62338 69.2716 6.71911C69.1758 6.81496 68.9612 6.99264 68.7949 7.11397C68.6284 7.23529 67.9602 7.75941 67.31 8.27867C66.6598 8.79794 65.4775 9.73643 64.6828 10.3641C63.8881 10.9919 63.2218 11.5472 63.2023 11.5983C63.1085 11.8424 62.6757 11.5572 60.5252 9.83448C56.8692 6.90595 52.4895 3.40676 51.7669 2.83709L51.1061 2.31617L47.0575 2.3197C43.8558 2.32246 43.0434 2.35125 43.1736 2.45757ZM90.2722 2.49132C88.5031 2.98147 87.0106 4.62518 86.5742 6.56404C86.3298 7.65011 86.3295 22.3482 86.5738 23.4341C86.9898 25.2827 88.4491 26.9242 90.166 27.4748C90.7931 27.676 91.4138 27.6838 106.756 27.6838H122.694V25.3676V23.0515H108.616C96.1303 23.0515 94.4926 23.0321 94.1397 22.8802C93.6621 22.6746 93.2285 22.2697 92.8467 21.6728C92.5713 21.2423 92.5636 21.1823 92.5297 19.1912L92.495 17.1507H106.497H120.5L120.529 14.807L120.557 12.4632H106.525H92.4925L92.5297 10.671C92.5625 9.09253 92.5943 8.82606 92.7967 8.43749C93.0972 7.86066 93.5219 7.45544 94.1164 7.17805C94.593 6.95569 94.7446 6.95338 108.646 6.95095L122.694 6.94852V4.63235V2.31617L106.773 2.32345C93.1848 2.32963 90.767 2.35422 90.2722 2.49132ZM129.939 2.58595C128.725 3.02724 127.948 3.64455 127.255 4.71871C126.339 6.13676 126.386 5.58088 126.386 15C126.386 24.4069 126.34 23.8489 127.245 25.2698C127.83 26.1888 128.418 26.7131 129.437 27.2252L130.239 27.6287L146.428 27.6582L162.616 27.6879V25.3708V23.0539L148.4 23.0251L134.183 22.9963L133.656 22.6615C133.301 22.4359 133.016 22.1316 132.781 21.7288L132.434 21.131V19.1409V17.1507L146.401 17.1803L160.369 17.2098V14.8365V12.4632H146.394H132.419L132.453 10.6066C132.487 8.76264 132.489 8.74643 132.808 8.21658C133.008 7.88415 133.331 7.55514 133.664 7.34338L134.2 7.00367L148.408 6.97455L162.616 6.94533V4.6308V2.31617L146.642 2.31849L130.668 2.3208L129.939 2.58595ZM166.148 15V27.6838H181.867C191.878 27.6838 197.796 27.6438 198.163 27.5736C199.619 27.2955 201.176 26.1109 201.826 24.7871C202.439 23.5392 202.429 23.6884 202.431 14.9373C202.432 6.16047 202.448 6.4147 201.818 5.13176C201.48 4.44463 200.409 3.34599 199.695 2.95301C198.478 2.28374 199.377 2.31617 182.02 2.31617H166.148V15ZM172.249 14.998V23.0515H183.149C194.96 23.0515 194.619 23.0682 195.405 22.4504C195.614 22.2861 195.896 21.9695 196.031 21.7468L196.278 21.3419L196.331 15.3175C196.366 11.4599 196.346 9.15628 196.278 8.91275C196.067 8.16308 195.643 7.64525 194.919 7.25327L194.458 7.00367L183.354 6.97411L172.249 6.94455V14.998Z" fill="#2F3140"/>
</svg>
