<svg width="195" height="24" viewBox="0 0 195 24" fill="none" xmlns="http://www.w3.org/2000/svg">
<path d="M174.386 14.7628V0H163.538V24H194.014V14.7628H174.386Z" fill="#2F3140"/>
<path d="M23.4817 7.09015H10.8613V0H0.0133057V24H10.8613V16.3273H23.4817V24H34.3297V0H23.4817V7.09015Z" fill="#2F3140"/>
<path d="M67.7786 0H67.1386H54.6002L60.8694 11.018L68.2546 24H81.4494L67.795 0H67.7786Z" fill="#2F3140"/>
<path d="M40.8267 23.9993H53.4799L60.2086 12.1823L53.8902 1.06445L40.8267 23.9993Z" fill="#2F3140"/>
<path d="M143.354 0H142.714H130.159L136.445 11.018L143.83 24H157.008H157.025L143.354 0Z" fill="#2F3140"/>
<path d="M116.412 23.9993H129.049L135.777 12.1823L129.459 1.06445L116.412 23.9993Z" fill="#2F3140"/>
<path d="M119.245 0H106.067L98.6653 12.982L92.3961 24H104.934H105.575H105.591L119.262 0H119.245Z" fill="#2F3140"/>
<path d="M91.2758 0H78.6226L91.6861 22.9348L98.0045 11.8336L91.2758 0Z" fill="#2F3140"/>
</svg>
