<svg width="183" height="29" viewBox="0 0 183 29" fill="none" xmlns="http://www.w3.org/2000/svg">
<path d="M34.1842 4.18604L30.0553 11.2959L29.8598 11.2815C29.8574 11.2815 28.3033 11.26 26.281 11.2863C23.8196 11.3198 21.6453 11.4947 20.3156 11.7726L19.5868 11.9499L24.0802 4.18843H14.5143L2.66797 25.2689H12.2387L14.8425 20.4587C16.0226 18.3075 18.5974 15.8785 21.4619 15.5862C22.4103 15.4904 23.4817 15.4473 24.6425 15.4473C26.0614 15.4473 27.1232 15.5264 27.1353 15.5264L27.6493 15.5383L22.3331 25.2665H31.9134L43.7598 4.18604H34.1842Z" fill="#2F3140"/>
<path d="M34.1842 4.18604L30.0553 11.2959L29.8598 11.2815C29.8574 11.2815 28.3033 11.26 26.281 11.2863C23.8196 11.3198 21.6453 11.4947 20.3156 11.7726L19.5868 11.9499L24.0802 4.18843H14.5143L2.66797 25.2689H12.2387L14.8425 20.4587C16.0226 18.3075 18.5974 15.8785 21.4619 15.5862C22.4103 15.4904 23.4817 15.4473 24.6425 15.4473C26.0614 15.4473 27.1232 15.5264 27.1353 15.5264L27.6493 15.5383L22.3331 25.2665H31.9134L43.7598 4.18604H34.1842Z" fill="#2F3140"/>
<path d="M108.349 4.18624L93.6989 16.1087L93.2645 4.10479L84.1595 4.01855L84.5505 25.2667H95.0213L120.172 4.18624H108.349Z" fill="#2F3140"/>
<path d="M108.349 4.18624L93.6989 16.1087L93.2645 4.10479L84.1595 4.01855L84.5505 25.2667H95.0213L120.172 4.18624H108.349Z" fill="#2F3140"/>
<path d="M58.2646 7.46809C56.3848 8.75447 54.1839 10.4289 53.6144 10.9583L37.5812 25.317H46.2252L48.887 22.7418C50.1732 21.5656 53.1559 20.3224 56.1652 20.3224H56.3124C59.4013 20.3631 62.215 20.5571 62.2416 20.5595L62.7194 20.5931L60.5692 25.317H67.9729L78.0094 4.13354H70.3523C65.2557 4.13354 59.9635 6.30387 58.2646 7.46809ZM64.551 16.3794H55.7887L59.394 12.961C59.5557 12.8196 63.1176 9.71507 64.7682 8.74968C65.8372 8.12445 66.9497 7.9927 67.6954 7.9927C68.1201 7.9927 68.3904 8.03582 68.4025 8.03822L68.8537 8.11248L64.551 16.3794Z" fill="#2F3140"/>
<path d="M58.2646 7.46809C56.3848 8.75447 54.1839 10.4289 53.6144 10.9583L37.5812 25.317H46.2252L48.887 22.7418C50.1732 21.5656 53.1559 20.3224 56.1652 20.3224H56.3124C59.4013 20.3631 62.215 20.5571 62.2416 20.5595L62.7194 20.5931L60.5692 25.317H67.9729L78.0094 4.13354H70.3523C65.2557 4.13354 59.9635 6.30387 58.2646 7.46809ZM64.551 16.3794H55.7887L59.394 12.961C59.5557 12.8196 63.1176 9.71507 64.7682 8.74968C65.8372 8.12445 66.9497 7.9927 67.6954 7.9927C68.1201 7.9927 68.3904 8.03582 68.4025 8.03822L68.8537 8.11248L64.551 16.3794Z" fill="#2F3140"/>
<path d="M138.902 4.13354C133.807 4.13354 128.515 6.30627 126.816 7.46809C124.936 8.75208 122.736 10.4289 122.166 10.9583L106.133 25.317H114.777L117.439 22.7418C118.725 21.5656 121.708 20.3224 124.719 20.3224H124.866C127.955 20.3631 130.769 20.5571 130.796 20.5595L131.273 20.5931L129.123 25.317H136.527L146.563 4.13354H138.902ZM133.103 16.3794H124.34L127.946 12.961C128.107 12.8196 131.669 9.71507 133.32 8.74968C134.389 8.12445 135.501 7.9927 136.247 7.9927C136.672 7.9927 136.944 8.03582 136.954 8.03822L137.408 8.11248L133.103 16.3794Z" fill="#2F3140"/>
<path d="M138.902 4.13354C133.807 4.13354 128.515 6.30627 126.816 7.46809C124.936 8.75208 122.736 10.4289 122.166 10.9583L106.133 25.317H114.777L117.439 22.7418C118.725 21.5656 121.708 20.3224 124.719 20.3224H124.866C127.955 20.3631 130.769 20.5571 130.796 20.5595L131.273 20.5931L129.123 25.317H136.527L146.563 4.13354H138.902ZM133.103 16.3794H124.34L127.946 12.961C128.107 12.8196 131.669 9.71507 133.32 8.74968C134.389 8.12445 135.501 7.9927 136.247 7.9927C136.672 7.9927 136.944 8.03582 136.954 8.03822L137.408 8.11248L133.103 16.3794Z" fill="#2F3140"/>
<path d="M158.827 20.2362L158.752 20.2554C158.726 20.241 158.074 19.9104 157.891 19.2349C157.782 18.83 157.859 18.4252 158.122 18.0012C158.161 17.9341 162.575 10.132 163.55 8.48625C164.819 6.33988 166.658 4.90737 167.816 4.18872H156.484C155.615 5.62602 149.14 17.0909 148.139 18.8396C147.096 20.6626 146.959 23.0677 149.003 24.4211C150.074 25.1302 153.269 25.2691 154.411 25.2691H175.437L180.053 20.2386H158.827V20.2362Z" fill="#2F3140"/>
<path d="M158.827 20.2362L158.752 20.2554C158.726 20.241 158.074 19.9104 157.891 19.2349C157.782 18.83 157.859 18.4252 158.122 18.0012C158.161 17.9341 162.575 10.132 163.55 8.48625C164.819 6.33988 166.658 4.90737 167.816 4.18872H156.484C155.615 5.62602 149.14 17.0909 148.139 18.8396C147.096 20.6626 146.959 23.0677 149.003 24.4211C150.074 25.1302 153.269 25.2691 154.411 25.2691H175.437L180.053 20.2386H158.827V20.2362Z" fill="#2F3140"/>
</svg>
