<svg width="113" height="71" viewBox="0 0 113 71" fill="none" xmlns="http://www.w3.org/2000/svg">
<g clip-path="url(#clip0_259_6239)">
<path d="M13.659 59.4253L15.3486 59.6227C16.1076 59.7104 16.1879 60.3535 16.1879 60.7481V62.7506H8.40788V60.7518C8.40788 60.3462 8.48817 59.714 9.24719 59.6263L10.9367 59.429V57.7152H0.828613V59.429L2.51817 59.6263C3.27354 59.714 3.35747 60.3571 3.35747 60.7518V67.2927C3.35747 67.6983 3.27354 68.3304 2.51817 68.4181L0.828613 68.6191V70.3292H10.9367V68.6191L9.24719 68.4181C8.48817 68.3341 8.40788 67.6873 8.40788 67.2927V65.2902H16.1879V67.2927C16.1879 67.6983 16.1039 68.3304 15.3486 68.4181L13.659 68.6191V70.3292H23.7708V68.6191L22.0812 68.4181C21.3259 68.3341 21.2419 67.6873 21.2419 67.2927V60.7518C21.2419 60.3462 21.3259 59.714 22.0812 59.6263L23.7708 59.429V57.7152H13.659V59.4253Z" fill="#2F3140"/>
<path d="M81.0769 57.7152H68.5969V59.429L70.0894 59.5861C70.6221 59.6518 70.9688 59.8784 70.9688 60.6165V67.2926C70.9688 67.6982 70.8849 68.3304 70.1295 68.4181L68.4399 68.6191V70.3292H81.0769C85.5982 70.3292 89.3167 68.5021 89.3167 64.0149C89.3167 59.5276 85.5982 57.7006 81.0769 57.7006M80.1574 67.9065H75.9243V60.1342H80.161C82.657 60.1342 83.5073 61.3218 83.5073 64.0295C83.5073 66.7372 82.657 67.9248 80.161 67.9248" fill="#2F3140"/>
<path d="M110.569 68.451C109.77 68.3596 109.518 67.8408 109.27 67.4608L103.45 58.5557C103.03 57.9162 102.72 57.7152 102.107 57.7152H92.5243V59.429L94.8087 59.6884C94.9208 59.7094 95.0257 59.7589 95.1132 59.8322C95.2006 59.9055 95.2678 60.0002 95.3081 60.107C95.3484 60.2139 95.3606 60.3294 95.3434 60.4423C95.3263 60.5552 95.2804 60.6618 95.2101 60.7518L90.9114 67.7531C90.8301 67.9308 90.7063 68.0858 90.5511 68.2044C90.3958 68.3229 90.2137 68.4013 90.021 68.4327L88.3096 68.63V70.3402H96.3888V68.63L94.9948 68.4876C94.4 68.4254 94.0825 68.0089 94.3781 67.5229L95.024 66.4705H102.778L103.351 67.3438C103.851 68.1112 103.22 68.44 102.673 68.4839L101.242 68.63V70.3402H112.171V68.63L110.569 68.451ZM96.3997 64.2378L98.7863 60.3498L101.341 64.2378H96.3997Z" fill="#2F3140"/>
<path d="M59.5688 59.4253L61.2438 59.619C61.9991 59.7067 62.0831 60.3498 62.0831 60.7445V67.0624L55.4051 58.2487C55.1059 57.8431 54.8432 57.7115 54.1279 57.7115H45.4722V59.4253L47.1617 59.6226C47.9171 59.7103 48.001 60.3535 48.001 60.7481V67.2926C48.001 67.6982 47.9171 68.3304 47.1617 68.4181L45.4722 68.6191V70.3292H53.5477V68.6191L51.8582 68.4181C51.1028 68.3341 51.0189 67.6873 51.0189 67.2926V60.971L57.6932 69.7884C57.996 70.194 58.2588 70.3255 58.974 70.3255H65.1155V60.7518C65.1155 60.3461 65.1994 59.714 65.9548 59.6263L67.6444 59.429V57.7152H59.5688V59.4253Z" fill="#2F3140"/>
<path d="M34.6051 57.2804C26.3946 57.2804 24.2744 60.8761 24.2744 64.0296C24.2744 67.1831 26.3946 70.7787 34.6051 70.7787C42.8157 70.7787 44.9359 67.1794 44.9359 64.0296C44.9359 60.8797 42.8084 57.2804 34.6051 57.2804ZM34.6051 68.3706C31.4231 68.3706 30.0948 67.0369 30.0948 64.0296C30.0948 61.0222 31.4231 59.6885 34.6051 59.6885C37.7872 59.6885 39.1155 61.0259 39.1155 64.0296C39.1155 67.0332 37.7872 68.3706 34.6051 68.3706Z" fill="#2F3140"/>
<path d="M70.4982 4.39429C69.1042 10.6063 68.5568 13.4602 67.4256 17.9547C66.3309 22.2702 65.5025 26.2788 64.0501 28.2191C62.5978 30.1595 60.609 30.6199 59.2698 30.777C57.4718 30.9348 55.6634 30.9348 53.8654 30.777C52.5262 30.6272 50.5593 30.196 49.085 28.2191C47.6108 26.2422 46.7934 22.2739 45.7059 17.9547C44.5783 13.4602 44.0273 10.6026 42.637 4.39429C42.637 4.39429 41.2503 4.4491 40.6372 4.4893C39.8052 4.55142 39.1557 4.62084 38.4478 4.71585C38.4478 4.71585 39.2469 17.5052 39.6082 22.9024C39.9731 28.5955 40.6555 38.1875 41.2831 45.43C41.2831 45.43 42.4472 45.6164 44.3813 45.726C46.4138 45.8429 47.3225 45.8575 47.3225 45.8575C48.1581 42.6675 49.1945 38.2387 50.3695 36.3568C51.3256 34.8221 52.7962 34.6577 53.6318 34.5298C54.5987 34.392 55.5746 34.3285 56.5512 34.3398C57.5277 34.3286 58.5036 34.3921 59.4705 34.5298C60.3061 34.6431 61.7731 34.8075 62.7328 36.3568C63.9078 38.246 64.9442 42.6712 65.7798 45.8575C65.7798 45.8575 66.6848 45.8575 68.7174 45.726C70.6551 45.6164 71.8192 45.43 71.8192 45.43C72.4468 38.1875 73.1146 28.5955 73.4941 22.9024C73.8591 17.4906 74.6546 4.71585 74.6546 4.71585C73.9466 4.6245 73.2971 4.55142 72.4651 4.4893C71.852 4.44545 70.4654 4.39429 70.4654 4.39429" fill="#2F3140"/>
<path d="M86.5725 11.9328C85.7478 3.82062 80.3434 2.10684 75.5959 1.31024C72.4911 0.867046 69.3658 0.581661 66.2322 0.455179C63.853 0.30536 58.2369 0.228622 56.5729 0.224968C54.9089 0.221314 49.2746 0.30536 46.91 0.455179C43.769 0.580839 40.6364 0.866227 37.5244 1.31024C32.7805 2.10684 27.3725 3.82062 26.5478 11.9328C26.3182 14.6596 26.2354 17.3968 26.2996 20.1326C26.3614 23.8158 26.6159 27.4932 27.0623 31.1497C27.2374 32.7978 27.9235 37.76 28.8066 40.3252C30.0217 43.8478 31.1092 44.8746 32.3973 45.9233C34.7474 47.8418 38.6009 48.4301 39.4402 48.5799C43.8192 49.3692 52.6501 49.508 56.551 49.5044C60.452 49.5007 69.2938 49.3692 73.6619 48.5799C74.4866 48.4301 78.3547 47.8491 80.7047 45.9233C81.9892 44.8746 83.0803 43.8478 84.2955 40.3252C85.1786 37.7674 85.8682 32.8014 86.0398 31.1497C86.487 27.4933 86.7415 23.8158 86.8024 20.1326C86.8666 17.3968 86.7837 14.6596 86.5543 11.9328M83.5839 25.5626C83.1058 32.0413 82.5293 35.9293 81.7046 38.7174C80.9747 41.173 80.088 42.821 78.7853 44.0049C76.5958 45.9818 73.5962 46.4093 71.8336 46.6688C68.0239 47.2352 61.616 47.4325 56.562 47.4325C51.5079 47.4325 45.1 47.2352 41.2866 46.6688C39.5241 46.4057 36.5172 45.9818 34.335 44.0049C33.0286 42.821 32.1455 41.1693 31.4157 38.7174C30.591 35.9184 30.0144 32.0304 29.5364 25.5626C29.2445 21.6564 29.3065 15.3311 29.7408 11.9255C30.3867 6.85354 32.9009 4.29931 38.2907 3.33828C41.3108 2.84939 44.357 2.53947 47.4136 2.41013C49.968 2.23474 54.2229 2.15069 56.5875 2.16896C58.9522 2.18723 63.1852 2.23474 65.7578 2.41013C68.8144 2.53907 71.8607 2.849 74.8807 3.33828C80.2705 4.29931 82.7847 6.85354 83.4306 11.9255C83.8649 15.3274 83.9269 21.6564 83.635 25.5626" fill="#2F3140"/>
</g>
<defs>
<clipPath id="clip0_259_6239">
<rect width="111.35" height="70.55" fill="white" transform="translate(0.824951 0.224976)"/>
</clipPath>
</defs>
</svg>
