<svg width="144" height="84" viewBox="0 0 144 84" fill="none" xmlns="http://www.w3.org/2000/svg">
<path fill-rule="evenodd" clip-rule="evenodd" d="M69.8115 14.5904C69.5708 14.6136 68.6844 14.6844 67.8418 14.7478C53.9159 15.7967 44.0076 21.0079 42.0093 28.3342C41.7361 29.3357 41.6826 31.4242 41.9004 32.5849C42.663 36.6497 45.7311 40.3695 50.1591 42.5982C53.0657 44.0609 57.4923 45.3502 62.2064 46.1068C64.9559 46.5481 64.7012 46.5447 64.8196 46.1412C64.8761 45.9488 65.1691 45.0743 65.4709 44.1979C68.5503 35.2551 71.5231 26.5823 72.0255 25.0763C72.2977 24.2603 72.5562 23.5529 72.5999 23.5042C72.6436 23.4557 73.0523 24.4942 73.5081 25.812C73.964 27.13 74.8857 29.7908 75.5563 31.7249C76.227 33.659 77.1699 36.3789 77.6515 37.7691C78.1332 39.1593 78.7167 40.8406 78.9483 41.5055C79.1798 42.1704 79.6158 43.4314 79.917 44.3078C80.2183 45.1842 80.5137 46.0302 80.5734 46.1878L80.6819 46.4742L81.7576 46.326C86.1468 45.7213 90.6535 44.5479 93.9176 43.1601C98.1506 41.3602 101.328 38.3276 102.79 34.6913C104.61 30.1634 103.196 25.4816 98.9299 21.9133C93.4268 17.3101 84.3575 14.7155 73.3131 14.5847C71.628 14.5647 70.0522 14.5672 69.8115 14.5904ZM71.0152 16.4685C61.9482 16.8336 54.0999 19.4641 50.0336 23.5006C48.1579 25.3628 47.3862 26.9321 47.395 28.8676C47.402 30.4247 47.9851 31.6854 49.2995 32.9852C51.2778 34.9414 55.3637 36.7387 58.7681 37.1503L59.4856 37.2371L61.0995 35.0854C61.9871 33.902 64.8962 30.016 67.5641 26.45C70.232 22.8839 72.4704 19.905 72.5383 19.8302C72.6737 19.6808 72.2951 19.1937 79.2217 28.4281C82.8006 33.1993 85.6789 37.0163 85.8052 37.1587C85.8749 37.2372 87.6803 36.9527 88.5995 36.7183C91.8527 35.8889 94.5634 34.4691 96.203 32.7356C97.5371 31.3251 98.1065 29.7637 97.8777 28.1431C97.615 26.2834 96.8294 24.8992 95.0746 23.2049C91.1406 19.4063 84.1136 17.0307 75.2597 16.5062C73.4805 16.4008 72.8382 16.3951 71.0152 16.4685ZM8.25977 67.9351V74.7486H9.84643H11.4331V67.9351V61.1217H9.84643H8.25977V67.9351ZM22.7039 67.9351V74.7486H23.9623H25.2207V69.2905C25.2207 66.2886 25.246 63.8577 25.2768 63.8887C25.3303 63.9425 27.2888 69.1129 28.5788 72.6056C28.9624 73.6442 29.2859 74.3455 29.4535 74.5013C29.7092 74.7391 29.7963 74.7486 31.7376 74.7486H33.7559V67.9351V61.1217H32.4985H31.241L31.2127 66.6355L31.1844 72.1494L30.18 69.4653C27.5161 62.3472 27.15 61.3869 27.051 61.259C26.9725 61.1575 26.391 61.1217 24.8243 61.1217H22.7039V67.9351ZM44.589 67.9351V74.7486H46.1209H47.6529V71.8364V68.9242H50.3338H53.0147V67.6604V66.3966H50.3338H47.6529V65.0248V63.6531L50.3611 63.6236L53.0694 63.5943L53.1004 62.358L53.1314 61.1217H48.8602H44.589V67.9351ZM63.629 67.9351V74.7486H65.2156H66.8023V67.9351V61.1217H65.2156H63.629V67.9351ZM78.0731 67.9351V74.7486H79.3852H80.6972L80.7257 69.3363L80.754 63.924L81.1009 64.8581C81.2916 65.3718 82.0466 67.3747 82.7785 69.3088C83.5104 71.2429 84.2323 73.1716 84.3826 73.5947C84.8009 74.7722 84.7438 74.7486 87.1676 74.7486H89.2345V67.9351V61.1217H87.9224H86.6104L86.5819 66.5497L86.5536 71.9777L85.5754 69.3795C85.0375 67.9504 84.1474 65.5851 83.5976 64.1232C83.0476 62.6613 82.5338 61.3878 82.4558 61.2934C82.3361 61.1485 81.9827 61.1217 80.1936 61.1217H78.0731V67.9351ZM100.286 67.9351V74.7486H101.928H103.569V67.9351V61.1217H101.928H100.286V67.9351ZM113.855 62.4404V63.7591H115.496H117.136L117.164 69.2264L117.193 74.6936H118.725H120.257L120.285 69.2264L120.313 63.7591H121.954H123.594V62.4404V61.1217H118.725H113.855V62.4404ZM133.797 67.9076L133.825 74.6936L135.439 74.7241L137.053 74.7544V67.9381V61.1217H135.411H133.769L133.797 67.9076Z" fill="#2F3140"/>
</svg>
