<svg width="178" height="21" viewBox="0 0 178 21" fill="none" xmlns="http://www.w3.org/2000/svg">
<g clip-path="url(#clip0_255_672)">
<path d="M66.7651 16.3275V20.625H85.7121V16.3275H66.7651ZM152.531 3.93V17.0869L155.888 20.5654L155.946 20.6239H164.703V16.3264H159.464L157.636 14.4319V6.5715L159.328 4.6725H164.703V0.375H155.694L152.531 3.93ZM121.444 3.93V17.0869L124.799 20.5654L124.855 20.6239H133.615V16.3264H128.374L126.547 14.4319V6.5715L128.239 4.6725H133.615V0.375H124.607L121.444 3.93ZM143.707 0.375H134.693V4.6725H140.069L141.738 6.5535V14.4375L139.916 16.3275H134.693V20.625H143.462L146.803 17.16L146.863 17.0993V3.91875L143.769 0.4425L143.707 0.37725V0.375ZM174.799 0.375H165.782V4.6725H171.158L172.827 6.5535V14.4375L171.004 16.3275H165.782V20.625H174.551L177.892 17.16L177.953 17.0993V3.91875L174.857 0.4425L174.799 0.37725V0.375ZM91.1674 3.86925L91.1136 3.93112V17.0869L94.5255 20.625H96.2096V0.376125H94.2751L91.1652 3.86925H91.1674ZM97.2919 20.625H116.242V16.3275H97.2919V20.625ZM64.8228 0.375H60.5856V20.625H65.6839V0.376125H64.8228V0.375ZM18.1019 0.375V20.625H22.8352L26.2393 17.0993V0.376125H18.103L18.1019 0.375ZM4.22165 20.625H17.0218V16.3275H0.564941L4.22165 20.625ZM84.375 12.6488V8.35125H66.7651V12.6488H84.375ZM97.2919 4.6725H116.242V0.375H97.2919V4.6725ZM66.7651 0.375V4.6725H85.7121V0.375H66.7651ZM34.2432 0.375H39.6211L38.7554 4.6725H38.7509L35.5366 20.625H30.1621L34.2443 0.376125L34.2432 0.375ZM46.3944 0.375H51.5017L55.5828 20.625H50.1971L46.9827 4.6725H39.9163L40.7808 0.375H46.3944Z" fill="#2F3140"/>
</g>
<defs>
<clipPath id="clip0_255_672">
<rect width="177.39" height="20.25" fill="white" transform="translate(0.564941 0.375)"/>
</clipPath>
</defs>
</svg>
