<svg width="198" height="42" viewBox="0 0 198 42" fill="none" xmlns="http://www.w3.org/2000/svg">
<path d="M47.5246 2.29688C24.1302 2.29688 4.68364 8.95503 0.761244 17.7206C0.275549 18.7622 0.0218164 19.8928 0.0168457 21.0373C0.0221733 22.1668 0.279462 23.2817 0.770787 24.3042C0.770787 24.3353 0.802599 24.3663 0.815323 24.3975C0.828048 24.4285 0.882128 24.5374 0.917121 24.6057C5.18626 33.2097 24.4356 39.7031 47.5406 39.7031C73.7822 39.7031 95.0516 31.3291 95.0516 21C95.0516 10.6709 73.7662 2.29688 47.5246 2.29688ZM44.0031 6.25695C45.6668 7.78627 44.6393 11.1122 41.4582 15.7064C37.9206 20.7949 34.5231 23.5893 30.4862 24.6151L39.26 5.37418H39.2949C41.5376 5.2747 43.055 5.39593 44.0031 6.25695ZM63.9078 25.0129C63.8599 24.982 63.8205 24.94 63.7933 24.8906C63.7661 24.8414 63.7518 24.7861 63.7518 24.73C63.7516 24.6516 63.7788 24.5753 63.8293 24.5142C63.8797 24.4531 63.9501 24.4107 64.0287 24.3944L67.9829 23.5924C68.0315 23.5822 68.0765 23.5595 68.1134 23.5267C68.1503 23.494 68.1776 23.4522 68.1927 23.4058L68.8291 21.5128C68.8416 21.4731 68.8448 21.4309 68.8383 21.3896C68.8319 21.3484 68.8159 21.3091 68.7918 21.2748C68.7677 21.2404 68.7359 21.2118 68.6988 21.1911C68.6616 21.1704 68.6203 21.1582 68.5777 21.1554L61.1879 20.7451C60.9353 20.7332 60.6856 20.8006 60.4752 20.9378L57.5136 22.9147C57.2565 23.0842 57.0557 23.3233 56.9358 23.6027C56.816 23.8822 56.7824 24.1898 56.8392 24.4876C57.6662 28.8394 56.0406 31.2048 47.5183 32.2337C35.9005 33.6325 27.0123 32.4047 24.3688 31.957L24.2829 31.9415C24.0953 31.9093 23.902 31.9392 23.7338 32.0265C23.5655 32.1138 23.4319 32.2534 23.354 32.4232L22.5141 34.2696C13.7659 31.6493 7.69304 27.6768 6.2297 23.1262C6.2297 23.1106 6.2297 23.0981 6.2297 23.0858C6.18834 22.9582 6.15335 22.8277 6.11835 22.6971V22.6692C5.97871 22.1201 5.90821 21.5565 5.9084 20.9907C5.9084 13.4404 18.5249 7.06824 35.7829 5.06645H35.8434C35.8434 5.06645 27.006 24.4658 25.5013 27.7576C25.4778 27.8099 25.4678 27.8672 25.4723 27.9243C25.4768 27.9813 25.4955 28.0364 25.5271 28.0846C25.5585 28.1329 25.6016 28.1728 25.6526 28.2008C25.7035 28.229 25.7608 28.2443 25.8194 28.2456H26.3093C31.4947 28.4228 37.7616 28.6093 45.5936 26.6665C53.9156 24.5995 60.1985 18.6656 62.6034 14.3481C65.0434 9.96524 63.6469 6.59887 63.3765 5.44566C78.732 7.82047 88.5556 13.8041 88.7719 20.7637C88.7164 22.184 88.3337 23.5738 87.6521 24.8295C84.7699 29.6724 76.5784 33.6884 65.6765 35.8457C69.9679 31.1022 66.6086 26.7877 63.9078 25.0223V25.0129Z" fill="#2F3140"/>
<path d="M110.404 10.7328H105.689V31.5341H122.476V27.3719H110.404V10.7328Z" fill="#2F3140"/>
<path d="M134.245 10.7328L124.632 31.5341H129.592L131.393 27.4931H141.846L143.675 31.5341H148.625L139.021 10.7328H134.245ZM136.616 15.041L140.201 23.3217H133.094L136.616 15.041Z" fill="#2F3140"/>
<path d="M161.12 10.7328H151.663V31.5341H160.296C162.239 31.5535 164.177 31.3647 166.076 30.9714C167.763 30.6117 169.318 29.8101 170.575 28.6526C172.484 26.7875 173.438 24.2812 173.438 21.1334C173.438 17.9049 172.495 15.4088 170.609 13.6454C168.561 11.7036 165.398 10.7328 161.12 10.7328ZM166.471 25.7804C165.173 26.8435 163.034 27.3741 160.055 27.3719H156.374V14.8546H160.602C163.359 14.8546 165.397 15.4388 166.716 16.6077C167.913 17.6707 168.51 19.1638 168.51 21.0868C168.51 23.101 167.831 24.6656 166.471 25.7804Z" fill="#2F3140"/>
<path d="M193.041 31.5341H197.997L188.39 10.7328H183.618L174.007 31.5341H178.964L180.768 27.4931H191.218L193.041 31.5341ZM185.985 15.041L189.566 23.3217H182.461L185.985 15.041Z" fill="#2F3140"/>
</svg>
