<svg width="168" height="59" viewBox="0 0 168 59" fill="none" xmlns="http://www.w3.org/2000/svg">
<g clip-path="url(#clip0_1763_74428)">
<mask id="mask0_1763_74428" style="mask-type:luminance" maskUnits="userSpaceOnUse" x="0" y="0" width="168" height="59">
<path d="M168 0H0V59H168V0Z" fill="white"/>
</mask>
<g mask="url(#mask0_1763_74428)">
<path d="M18.6554 10.4206L13.9939 0.41884C13.7342 -0.139776 12.9427 -0.139776 12.6831 0.41884L1.01067 25.4562C-0.124975 27.8947 -0.124975 30.7097 1.01067 33.1482L4.91502 41.5242C5.17469 42.0829 5.9662 42.0829 6.22587 41.5242L18.6554 14.8644C19.3124 13.4585 19.3124 11.8297 18.6554 10.4206Z" fill="#2F3140"/>
<path d="M20.4479 17.0799L8.01838 43.7398C7.36139 45.1488 7.36139 46.7776 8.01838 48.1835L12.6798 58.1853C12.9395 58.7438 13.731 58.7438 13.9907 58.1853L25.663 33.148C26.7986 30.7095 26.7986 27.8943 25.663 25.456L21.7586 17.0799C21.499 16.5212 20.7076 16.5212 20.4479 17.0799Z" fill="#2F3140"/>
<path d="M135.699 39.2257L124.905 19.6927L114.112 39.2257H118.911L124.905 28.2227L131.034 39.2257H135.699Z" fill="#2F3140"/>
<path d="M90.1919 19.6927L100.985 39.2257L111.778 19.6927H106.979L100.985 30.6957L94.8564 19.6927H90.1919Z" fill="#2F3140"/>
<path d="M80.3305 19.6927H76.1541V39.2257H80.3305V19.6927Z" fill="#2F3140"/>
<path d="M49.8529 28.4738H45.6763V39.2257H67.3567V35.3215L49.8529 35.3247V28.4738Z" fill="#2F3140"/>
<path d="M150.875 19.6927H150.221H146.001V39.2257H150.221V25.2602L162.798 39.2257H163.593H167.813L150.875 19.6927Z" fill="#2F3140"/>
<path d="M47.766 23.8792C48.9184 23.8792 49.8526 22.9422 49.8526 21.786C49.8526 20.63 48.9184 19.6927 47.766 19.6927C46.6134 19.6927 45.6792 20.63 45.6792 21.786C45.6792 22.9422 46.6134 23.8792 47.766 23.8792Z" fill="#2F3140"/>
<path d="M165.726 23.8792C166.878 23.8792 167.813 22.9422 167.813 21.786C167.813 20.63 166.878 19.6927 165.726 19.6927C164.574 19.6927 163.639 20.63 163.639 21.786C163.639 22.9422 164.574 23.8792 165.726 23.8792Z" fill="#2F3140"/>
</g>
</g>
<defs>
<clipPath id="clip0_1763_74428">
<rect width="168" height="59" fill="white"/>
</clipPath>
</defs>
</svg>
