<svg width="187" height="44" viewBox="0 0 187 44" fill="none" xmlns="http://www.w3.org/2000/svg">
<g clip-path="url(#clip0_259_6203)">
<mask id="mask0_259_6203" style="mask-type:luminance" maskUnits="userSpaceOnUse" x="0" y="0" width="187" height="44">
<path d="M186.875 0.25H0.125V43.75H186.875V0.25Z" fill="white"/>
</mask>
<g mask="url(#mask0_259_6203)">
<path d="M182.171 43.7189H8.57654L10.2157 39.5959H183.818L182.171 43.7189Z" fill="#2F3140"/>
<path d="M130.396 32.3931C130.12 33.3626 129.212 33.9537 128.369 33.7124C127.525 33.4716 127.065 32.4902 127.341 31.5207C127.617 30.5512 128.525 29.96 129.368 30.2014C130.211 30.4421 130.672 31.4235 130.396 32.3931ZM132.924 19.0105C132.924 19.0105 132.745 24.1924 129.357 27.1403L132.924 19.0105ZM60.3888 31.8538C59.8767 33.0348 58.5997 33.6593 57.6444 33.2434C56.6882 32.8275 56.4133 31.5415 56.9259 30.3605C57.4388 29.1794 58.6548 28.574 59.6101 28.9905C60.5663 29.4064 60.9008 30.6727 60.3888 31.8538ZM35.8233 13.1142C35.8233 13.1142 37.0717 17.8492 31.8105 23.4779L35.8233 13.1142ZM178.94 32.8084C178.137 32.8084 178.411 31.8877 178.411 31.8877L181.042 25.7072L173.353 25.7185L171.956 28.9989H175.881L174.253 32.8084H157.298C156.436 32.8429 156.642 32.1434 156.642 32.1434L158.987 25.7125L155.345 25.7185L152.763 32.6791C152.668 32.9007 152.336 33.2803 151.726 33.1421C151.06 32.9353 151.425 32.0093 151.425 32.0093L153.519 25.7185L149.867 25.7161L147.499 32.8084L132.701 32.8132C133.637 29.4631 130.962 28.1229 130.962 28.1229C140.057 19.2787 132.589 12.3682 132.589 12.3682L123.892 32.8084C123.892 32.8084 108.822 32.8203 107.271 32.8084C105.72 32.7971 106.225 32.0147 106.513 31.7614C107.811 30.5774 113.173 25.7113 113.173 25.7113H108.493L103.617 29.8504L109.429 16.1968H104.882L98.6321 32.7971C98.6321 32.7971 83.1814 32.803 80.3875 32.8042C80.0879 32.8042 79.8144 32.6231 79.7107 32.3412C79.4946 31.7519 79.5304 31.0118 79.8649 30.3229C80.4375 29.1413 81.6705 28.5573 82.6184 29.0185C83.1654 29.2849 83.4967 29.8409 83.5705 30.4904H86.5764C86.615 28.4602 85.7276 26.6451 84.0826 25.8448C81.6319 24.6524 78.4443 26.1618 76.9636 29.2158C76.3855 30.4087 76.1579 31.6595 76.235 32.8132H63.43C64.4872 29.8605 63.5764 26.8227 61.2005 25.7882C58.6929 24.6959 55.5016 26.2834 54.1576 29.3814C53.6598 30.5297 53.446 31.7149 53.5015 32.8084H53.4987H41.327C39.1878 32.6749 39.8806 30.5351 39.8806 30.5351L47.5039 12.7126H41.8867L36.2687 26.6487C34.4791 30.3235 32.8395 31.3246 32.4993 31.4623C29.7337 32.5808 30.2505 29.1949 30.2505 29.1949C44.8289 14.5884 35.3326 0.518311 35.3326 0.518311L25.3022 28.3911C11.1247 34.5549 4.30358 26.3811 4.30358 26.3811L0.558472 33.8852C13.2652 41.3898 24.6332 33.2154 24.6332 33.2154C25.5425 35.9493 26.8034 37.1369 28.1279 37.4534C32.0199 38.1768 34.798 34.0192 34.798 34.0192C35.6466 36.6644 37.8668 36.9016 38.1749 36.9057C38.483 36.9105 49.811 36.9057 49.811 36.9057C52.7531 36.9057 54.0535 35.0728 54.0861 35.0734C54.5142 35.9011 55.1662 36.5643 56.0403 36.9451C58.0018 37.7996 60.4755 36.9766 62.1044 35.0972C62.7128 36.808 64.2123 36.9057 64.2123 36.9057C64.2123 36.9057 71.6685 36.9159 73.4401 36.9057C75.1659 36.8968 76.7948 35.2015 76.8797 35.1127C77.3032 35.8879 77.9758 36.8545 79.161 36.9057C79.1601 36.9057 93.299 36.9028 94.325 36.9057C95.7795 36.9105 97.8168 35.0871 97.8168 35.0871L97.0702 36.9057H100.619L101.872 33.971C102.733 36.5375 104.764 36.9016 105.019 36.9057C105.273 36.9105 120.549 36.9057 120.549 36.9057C122.778 36.9403 124.283 35.0644 124.283 35.0644C125.119 36.6137 126.037 37.1477 127.011 37.2525C129.555 37.5261 131.229 35.6275 131.229 35.6275C131.497 36.6996 132.471 36.9069 132.704 36.9057C132.936 36.9045 143.789 36.9057 143.789 36.9057C146.144 36.6757 147.43 35.1222 147.43 35.1222C147.962 36.7734 149.206 37.1775 150.062 37.2698C152.469 37.4319 153.7 35.0912 153.7 35.0912C154.541 36.6876 155.905 36.9069 156.241 36.9057C156.577 36.9045 171.071 36.9057 171.071 36.9057C173.077 36.7723 174.012 35.0757 174.012 35.0757C174.477 36.5875 175.368 36.9069 175.804 36.9057C176.239 36.9045 184.982 36.9057 184.982 36.9057L186.731 32.8054L178.94 32.8084Z" fill="#2F3140"/>
</g>
</g>
<defs>
<clipPath id="clip0_259_6203">
<rect width="186.75" height="43.5" fill="white" transform="translate(0.125 0.25)"/>
</clipPath>
</defs>
</svg>
