<svg width="88" height="73" viewBox="0 0 88 73" fill="none" xmlns="http://www.w3.org/2000/svg">
<g clip-path="url(#clip0_259_6226)">
<path d="M51.1743 39.3869C51.1055 39.404 50.8302 39.404 50.7098 39.404H41.8333V41.46H50.8646C50.9334 41.46 51.4667 41.46 51.5699 41.4428C53.4106 41.2715 54.2535 39.7467 54.2535 38.4103C54.2535 37.0397 53.3762 35.5662 51.7075 35.412C51.3807 35.3778 51.1055 35.3778 50.985 35.3778H45.0846C44.8266 35.3778 44.5341 35.3606 44.4309 35.3264C43.9664 35.2064 43.7944 34.7952 43.7944 34.4526C43.7944 34.1442 43.9664 33.733 44.4481 33.5959C44.5857 33.5617 44.7406 33.5445 45.0674 33.5445H53.5826V31.5228H44.9298C44.5685 31.5228 44.2933 31.54 44.0697 31.5742C42.5903 31.7798 41.5581 32.962 41.5581 34.4697C41.5581 35.7033 42.3322 37.1425 44.0353 37.3823C44.3449 37.4166 44.775 37.4166 44.9642 37.4166H50.7098C50.813 37.4166 51.0711 37.4166 51.1227 37.4337C51.7764 37.5194 52 37.9991 52 38.4274C52 38.8386 51.742 39.2841 51.1743 39.3869Z" fill="#2F3140"/>
<path d="M34.3503 39.3869C34.2815 39.404 34.0062 39.404 33.903 39.404H25.0094V41.46H34.0407C34.1095 41.46 34.6427 41.46 34.746 41.4428C36.5866 41.2715 37.4295 39.7467 37.4295 38.4103C37.4295 37.0397 36.5522 35.5662 34.8836 35.412C34.5567 35.3778 34.2815 35.3778 34.1611 35.3778H28.2606C28.0026 35.3778 27.7102 35.3606 27.6069 35.3264C27.1425 35.2064 26.9704 34.7952 26.9704 34.4526C26.9704 34.1442 27.1425 33.733 27.6241 33.5959C27.7618 33.5617 27.9166 33.5445 28.2434 33.5445H36.7586V31.5228H28.1058C27.7446 31.5228 27.4693 31.54 27.2457 31.5742C25.7663 31.7798 24.7341 32.962 24.7341 34.4697C24.7341 35.7033 25.5082 37.1425 27.2113 37.3823C27.5209 37.4166 27.951 37.4166 28.1402 37.4166H33.8858C33.989 37.4166 34.2471 37.4166 34.2987 37.4337C34.9524 37.5194 35.176 37.9991 35.176 38.4274C35.176 38.8386 34.9352 39.2841 34.3503 39.3869Z" fill="#2F3140"/>
<path d="M20.3818 31.4543H18.1455V41.5114H20.3818V31.4543Z" fill="#2F3140"/>
<path d="M13.2084 41.5114V31.4543H10.9721V38.9586L3.52344 31.4543H0.650635V41.5114H2.88695V33.9729L10.3872 41.5114H13.2084Z" fill="#2F3140"/>
<path d="M85.1318 31.4543V38.9586L77.6831 31.4543H74.8103V41.5114H77.0466V33.9729L84.5297 41.5114H87.3509V31.4543H85.1318Z" fill="#2F3140"/>
<path d="M63.1643 31.4543L56.8682 41.5114H59.5862L60.7043 39.7125H68.0498L69.1679 41.5114H71.8687L65.5726 31.4543H63.1643ZM66.8972 37.8107H61.8569L64.3856 33.7673L66.8972 37.8107Z" fill="#2F3140"/>
<path d="M13.0879 25.749C17.595 12.6422 30.0151 3.83587 44.0179 3.83587C58.0207 3.83587 70.4581 12.6422 74.9479 25.749L74.9823 25.8518H84.8393V24.6696L80.7452 24.1899C78.2164 23.8986 77.6831 22.785 76.995 21.3801L76.823 21.0374C70.9054 8.49605 58.0207 0.375 44.0179 0.375C29.9979 0.375 17.1305 8.49605 11.2129 21.0717L11.0408 21.4143C10.3528 22.8193 9.81947 23.9329 7.29071 24.2242L3.19653 24.7039V25.8861H13.0363L13.0879 25.749Z" fill="#2F3140"/>
<path d="M74.9825 47.131L74.9481 47.2338C70.441 60.3406 58.0209 69.1298 44.0181 69.1298C30.0153 69.1298 17.5779 60.3235 13.0881 47.2167L13.0537 47.1139H3.21387V48.2961L7.30805 48.7758C9.83681 49.0671 10.3701 50.1807 11.0582 51.5856L11.2302 51.9283C17.1478 64.5039 30.0325 72.625 44.0353 72.625C58.0381 72.625 70.9227 64.5039 76.8403 51.9454L77.0124 51.6027C77.7005 50.1978 78.2337 49.0842 80.7625 48.7929L84.8567 48.3132V47.131H74.9825Z" fill="#2F3140"/>
</g>
<defs>
<clipPath id="clip0_259_6226">
<rect width="86.7" height="72.25" fill="white" transform="translate(0.649902 0.375)"/>
</clipPath>
</defs>
</svg>
