<svg width="194" height="26" viewBox="0 0 194 26" fill="none" xmlns="http://www.w3.org/2000/svg">
<g clip-path="url(#clip0_255_638)">
<mask id="mask0_255_638" style="mask-type:luminance" maskUnits="userSpaceOnUse" x="0" y="0" width="194" height="26">
<path d="M0.25 0.25H193.75V25.75H0.25V0.25Z" fill="white"/>
</mask>
<g mask="url(#mask0_255_638)">
<path d="M184.388 1.13841L184.307 0.974781H178.63L187.584 24.6962V24.8619H193.344L184.388 1.13841ZM169.11 1.05766L162.15 24.8619H167.43L172.869 7.25628H179.349L177.029 0.972656L169.11 1.05766ZM5.21979 12.3797L5.13898 12.2968V7.75141L7.86074 4.77641H24.4167L32.414 12.9577V4.94428L28.4164 1.05766L3.6973 0.972656L0.0186768 4.94216V10.1484L5.21766 15.769L5.21979 12.3797Z" fill="#2F3140"/>
<path d="M27.2954 18.166H27.2146V18.3318L24.3355 20.9753H7.7795L0.0161133 12.2139V20.8945L4.01795 24.8619H28.4138L32.4922 20.8117V15.1082L27.2954 9.98266V18.166ZM87.7652 12.3797L87.6844 12.2968V7.75141L90.404 4.77641H106.881L114.879 12.9577V4.94428L110.96 1.05766L86.2448 0.972656L82.4854 4.94216V10.1484L87.7652 15.769V12.3797Z" fill="#2F3140"/>
<path d="M109.839 18.166H109.761V18.3318L106.882 20.9753H90.3236L82.4858 12.2139V20.8945L86.4834 24.8619H110.96L114.958 20.8117V15.1082L109.842 9.98266L109.839 18.166ZM61.2901 0.972656L58.1686 17.5052L59.4486 24.779L61.609 24.8619L64.7284 7.25628H68.6473V25.0255H73.8463V5.02503L70.2506 0.972656H61.2922H61.2901ZM44.2514 1.05766L40.7323 5.18866V24.9427H46.0121V7.33916H49.931L52.8101 25.0255H58.0899L53.7712 1.05766H44.2514ZM145.913 0.972656L151.272 5.27153V18.2489L147.434 20.9753H129.517V4.94216H148.314L143.434 0.972656H124.078V24.8577H152.714L156.552 20.8924V4.94216L151.674 0.972656H145.913Z" fill="#2F3140"/>
</g>
</g>
<defs>
<clipPath id="clip0_255_638">
<rect width="193.5" height="25.5" fill="white" transform="translate(0.25 0.25)"/>
</clipPath>
</defs>
</svg>
