<svg width="138" height="94" viewBox="0 0 138 94" fill="none" xmlns="http://www.w3.org/2000/svg">
<path fill-rule="evenodd" clip-rule="evenodd" d="M63.7913 8.61528C62.4024 8.82721 61.0617 9.11214 60.114 9.3967C51.3244 12.0363 44.6818 18.9636 42.5243 27.7407C41.9245 30.1805 41.7569 31.8203 41.8279 34.548C41.9338 38.6117 42.7923 42.0004 44.6051 45.51C50.149 56.2435 62.5685 61.6368 74.1474 58.3393C78.3706 57.1366 82.0994 54.9558 85.1809 51.8864C87.2176 49.8576 88.6091 47.9335 89.9466 45.2965C94.3491 36.6162 93.3935 26.1628 87.4885 18.4069C86.5023 17.1115 84.5336 15.0868 83.2779 14.0763C79.573 11.095 75.3612 9.28598 70.5319 8.60161C68.9843 8.38223 65.2694 8.3898 63.7913 8.61528ZM65.2441 10.6319C59.9504 11.1025 54.9238 13.391 51.0625 17.0883C46.9937 20.9845 44.5219 26.2295 43.9883 32.0995C43.615 36.2056 44.6674 41.1422 46.7171 44.8998C52.7416 55.944 66.393 60.2751 77.5797 54.6915C88.3091 49.3362 93.2632 36.7501 89.0165 25.6364C87.1807 20.8322 83.8549 16.7728 79.5365 14.0647C78.3922 13.3471 75.8676 12.1653 74.5635 11.7366C73.0083 11.2254 70.798 10.7806 69.0612 10.6293C67.4233 10.4866 66.874 10.487 65.2441 10.6319ZM63.9138 13.9116C62.626 14.1416 61.2049 14.4883 60.9359 14.6381C60.8266 14.6989 61.1647 15.0833 62.0149 15.8648C64.2458 17.9153 66.7365 21.0703 67.7265 23.0998C68.0911 23.8473 68.0908 23.8565 67.7033 23.9748C67.4952 24.0384 67.2476 23.835 66.3552 22.8675C64.8714 21.259 61.9621 18.7016 60.5435 17.7589C59.9031 17.3332 58.9538 16.784 58.4338 16.5383L57.4884 16.0913L56.7821 16.4938C55.6049 17.1648 53.8028 18.5908 52.6692 19.7487C52.0794 20.351 51.5968 20.8991 51.5968 20.9666C51.5968 21.0341 52.1344 21.4077 52.7917 21.7968C54.4084 22.7537 56.3302 24.0302 57.6634 25.0322C58.9855 26.0259 60.5785 27.5459 60.5106 27.7489C60.4105 28.0484 60.041 27.9563 59.2316 27.4305C58.0575 26.6678 56.4219 25.8733 54.8195 25.2875C53.1617 24.6815 49.7373 23.6816 49.6029 23.7644C49.3781 23.9029 48.3541 26.1454 47.918 27.4547C47.4461 28.8707 47.0621 30.486 47.0621 31.055C47.0621 31.3241 47.1384 31.3724 47.7668 31.502C50.188 32.0008 53.4077 33.2876 55.1888 34.468C56.2454 35.1682 57.5174 36.4071 58.2112 37.4115C59.0836 38.6746 59.8894 40.9449 60.1085 42.7578L60.1935 43.4597H59.2656C58.3075 43.4597 58.0469 43.3723 55.5799 42.2244C54.9952 41.9524 54.8198 41.9375 51.75 41.8986C48.7811 41.8611 48.5328 41.8741 48.5328 42.0666C48.5328 42.5971 50.4826 45.7327 51.7713 47.2747L52.4601 48.0987H53.9303H55.4005L56.8169 47.3655L58.2332 46.6323L67.853 46.6636L77.4728 46.6948L77.7436 47.3662C78.0051 48.0145 78.0292 48.0364 78.4402 48.0023C79.1432 47.9438 80.5112 47.4956 81.5029 46.9989C82.3916 46.5539 84.1971 45.2405 84.1971 45.0392C84.1971 44.9869 83.8939 44.675 83.5232 44.3459C82.2923 43.2532 80.3505 42.319 78.6814 42.0169L78.0478 41.9021L77.8312 42.4063C77.712 42.6836 77.5752 43.0339 77.5272 43.1851C77.4458 43.4413 77.3707 43.4597 76.4065 43.4597C75.8381 43.4597 75.373 43.4447 75.373 43.4264C75.373 43.4081 75.5416 42.957 75.7476 42.4239C76.2265 41.1853 76.9236 38.5482 77.2124 36.8819C78.5081 29.4105 76.9346 22.5764 72.701 17.2884C71.8618 16.2403 70.1933 14.5604 69.481 14.0463L68.9632 13.6727L67.0513 13.6827C65.7917 13.6893 64.7214 13.7673 63.9138 13.9116ZM69.8591 36.1668C69.6239 36.2452 69.207 36.5328 68.9327 36.806C67.3248 38.4077 68.4369 41.0649 70.7158 41.0663C72.1514 41.0671 73.1669 40.0201 73.1669 38.5387C73.1669 36.854 71.4633 35.6323 69.8591 36.1668ZM14.8766 70.7584C14.1618 71.011 13.4329 71.6773 13.0631 72.4165C12.757 73.0285 12.746 73.1271 12.7472 75.2544C12.7483 77.3166 12.767 77.4977 13.038 78.0688C13.393 78.8167 13.8429 79.2504 14.6456 79.6187C15.2562 79.899 15.2803 79.9001 21.4892 79.9358L27.7201 79.9715L27.6784 81.2591C27.6159 83.1924 28.3291 83.013 20.7067 83.013H14.3553L13.3667 84.602C12.8231 85.4759 12.3783 86.219 12.3783 86.2533C12.3783 86.2876 16.1148 86.3004 20.6816 86.2819C28.3535 86.2506 29.015 86.2317 29.3816 86.0321C30.0511 85.6676 30.6395 85.0787 30.9843 84.4279C31.3097 83.8136 31.3135 83.7787 31.3135 81.3649V78.9234L30.9355 78.2519C30.4841 77.4501 29.6929 76.8669 28.797 76.6754C28.4009 76.5908 26.1229 76.5429 22.5023 76.5429C17.1611 76.5429 16.8165 76.5298 16.6255 76.3196C16.4493 76.1257 16.4227 75.7327 16.4227 73.3287V70.561L15.9018 70.5707C15.6153 70.5759 15.154 70.6605 14.8766 70.7584ZM19.0335 72.148L20.0361 73.7351L24.5104 73.7294L28.9849 73.7238L29.9041 72.2414C30.4096 71.4261 30.8416 70.7145 30.864 70.66C30.8866 70.6056 28.0083 70.561 24.468 70.561H18.031L19.0335 72.148ZM35.4609 75.7188C35.5033 78.5555 35.539 82.099 35.54 83.5929L35.5417 86.3091H37.378H39.2141L39.247 83.2877L39.2797 80.2662L41.8089 80.2333L44.3382 80.2003L47.5079 83.2538L50.6776 86.3073L53.2513 86.3053L55.825 86.3032L54.5382 85.0544C53.8304 84.3674 52.038 82.6529 50.555 81.2441C49.0721 79.8353 47.8432 78.625 47.8242 78.5546C47.8052 78.4843 49.4873 76.7993 51.5622 74.8103C53.6371 72.8214 55.4685 71.0517 55.6319 70.8776L55.9291 70.561L53.3645 70.5642L50.8001 70.5674L47.6749 73.6121L44.5497 76.6568L41.9147 76.6303L39.2797 76.6039L39.247 73.5825L39.2141 70.561H37.2989H35.3836L35.4609 75.7188ZM61.1563 70.7913C59.1419 71.44 57.8133 72.8131 57.2998 74.777C57.0701 75.6555 57.0318 80.911 57.2478 81.9388C57.5494 83.3749 58.7551 84.9826 60.0023 85.6117C61.3574 86.2953 61.5008 86.3091 67.2229 86.3091C72.945 86.3091 73.0884 86.2953 74.4435 85.6117C75.7234 84.9661 76.8943 83.3742 77.2126 81.8474C77.3035 81.4113 77.337 80.0814 77.3084 78.0361C77.2676 75.1086 77.2457 74.8472 76.9852 74.1959C76.3409 72.5845 74.9661 71.311 73.3256 70.8063C72.5772 70.576 72.2009 70.5614 67.1794 70.5676C62.3986 70.5735 61.7588 70.5972 61.1563 70.7913ZM81.6234 78.4351V86.3091H89.0421C96.227 86.3091 96.4846 86.3012 97.2228 86.0554C99.1376 85.4182 100.564 83.8517 100.972 81.9388C101.177 80.9781 101.152 75.5508 100.939 74.7544C100.558 73.3296 99.417 71.8623 98.2197 71.2585C96.823 70.554 96.9179 70.561 88.9546 70.561H81.6234V78.4351ZM110.724 72.0542C110.265 72.878 109.284 74.6232 108.545 75.9325C107.805 77.2418 106.913 78.8349 106.562 79.4727C106.212 80.1106 105.255 81.8253 104.435 83.2831C103.615 84.741 102.912 86.0182 102.872 86.1215C102.809 86.2858 103.057 86.309 104.866 86.3081L106.932 86.3073L107.187 85.8503C109.545 81.6267 110.226 80.4635 110.31 80.5153C110.365 80.5492 110.616 80.9191 110.868 81.3372C111.12 81.7553 111.539 82.4132 111.799 82.7993L112.272 83.5013L116.036 83.5034L119.8 83.5054L120.592 84.9073L121.384 86.3091H123.503C124.668 86.3091 125.622 86.2883 125.622 86.2628C125.622 86.2374 125.19 85.4545 124.664 84.5232C124.137 83.5919 123.366 82.2256 122.95 81.487C122.535 80.7484 120.987 78.0017 119.51 75.3831L116.825 70.6221L114.192 70.5892L111.558 70.5564L110.724 72.0542ZM113.889 73.8744C113.114 75.1545 110.404 80.1037 110.453 80.1517C110.484 80.1831 112.173 80.1943 114.205 80.1765L117.899 80.1441L116.112 76.9701C115.129 75.2244 114.283 73.7214 114.231 73.6302C114.163 73.5085 114.072 73.5735 113.889 73.8744ZM61.7986 74.3448C61.5789 74.4783 61.2881 74.7664 61.1524 74.9853C60.9191 75.3614 60.9075 75.5573 60.9391 78.5798L60.9724 81.7766L61.3401 82.163C61.5423 82.3754 61.8457 82.6052 62.0142 82.6737C62.3772 82.8213 70.0394 82.8963 71.5481 82.767C72.3769 82.6961 72.6218 82.6264 72.8772 82.3887C73.5121 81.7979 73.5346 81.661 73.5341 78.4106C73.5337 75.6049 73.5159 75.3539 73.2901 74.9853C73.1562 74.7664 72.8669 74.4783 72.6472 74.3448C72.2658 74.1131 72.0211 74.1021 67.2229 74.1021C62.4246 74.1021 62.18 74.1131 61.7986 74.3448ZM85.4227 78.4351V82.7688H90.7008C94.3699 82.7688 96.0603 82.727 96.2465 82.6315C96.6658 82.4164 97.0804 82.0039 97.2126 81.6701C97.2824 81.4943 97.3276 80.0712 97.3193 78.313C97.3032 74.9319 97.3084 74.955 96.4541 74.376C96.0493 74.1015 96.0441 74.1013 90.7358 74.1013H85.4227V78.4351Z" fill="#2F3140"/>
</svg>
