<svg width="102" height="69" viewBox="0 0 102 69" fill="none" xmlns="http://www.w3.org/2000/svg">
<path fill-rule="evenodd" clip-rule="evenodd" d="M8.52937 52.3056C4.80573 52.5387 2.46478 53.7858 1.75629 55.9138C1.5953 56.3975 1.54018 56.8263 1.56604 57.3939C1.67578 59.7989 3.16876 60.9631 7.00136 61.6321C8.08401 61.8211 9.35465 61.9704 10.3316 62.0234C11.8586 62.1063 12.6241 62.3666 12.9086 62.8997C13.0027 63.0763 12.9957 63.4507 12.8945 63.6439C12.6641 64.0836 11.9451 64.3271 10.8769 64.3271C10.2516 64.3271 10.0529 64.2872 9.59893 64.0701C9.1533 63.8571 8.7264 63.4604 8.39439 62.9509L8.17181 62.6093H4.70688H1.24194L1.24218 62.8728C1.2423 63.0178 1.26768 63.3034 1.29856 63.5074C1.67245 65.9789 3.67371 67.2181 7.96126 67.633C9.00316 67.7338 12.1396 67.7341 12.9763 67.6334C14.4837 67.4521 15.5833 67.1668 16.5586 66.704C17.9794 66.0298 18.8727 65.0765 19.2271 63.856C19.3344 63.4865 19.3744 62.6593 19.3056 62.2342C19.0223 60.4841 17.5122 59.2506 14.7506 58.5134C13.8576 58.275 12.9427 58.1202 11.0369 57.8851C9.79977 57.7324 9.33302 57.6634 8.91454 57.5711C8.00134 57.3697 7.5887 57.1154 7.58929 56.7543C7.59007 56.249 7.94304 55.9139 8.68867 55.7105C8.88661 55.6565 9.09641 55.6416 9.66558 55.6411C10.3789 55.6406 10.3958 55.6425 10.7324 55.7625C10.9205 55.8296 11.1965 55.9567 11.3457 56.0451C11.6862 56.2467 12.1833 56.7123 12.3886 57.0221L12.5453 57.2586L15.709 57.2597L18.8728 57.2607V57.1719C18.8728 56.9977 18.7927 56.4508 18.7347 56.2289C18.4472 55.1287 17.6148 54.1702 16.3653 53.5005C15.6915 53.1392 14.6714 52.7986 13.6619 52.5977C12.2621 52.319 10.1948 52.2014 8.52937 52.3056ZM20.724 58.0513C20.7374 64.0239 20.7206 63.6475 21.0125 64.5223C21.2292 65.1719 21.4599 65.553 21.9158 66.0146C22.8075 66.9173 24.2128 67.4204 26.5324 67.6672C27.3282 67.7518 29.9708 67.7878 30.9405 67.7272C34.901 67.4797 36.7553 66.509 37.3816 64.3553C37.6229 63.5257 37.6156 63.713 37.6298 57.9537L37.6428 52.693H34.9575H32.2723V57.3326C32.2723 61.833 32.2699 61.9813 32.1945 62.2753C32.1517 62.4419 32.0603 62.6775 31.9914 62.7988C31.8372 63.0699 31.46 63.4436 31.1632 63.6191C30.2961 64.1319 28.7636 64.2379 27.6726 63.8607C26.9032 63.5946 26.3528 63.0413 26.1362 62.3165C26.0711 62.0984 26.0653 61.7583 26.0528 57.3876L26.0394 52.693H23.3758H20.7121L20.724 58.0513ZM39.0503 54.5667V56.4405L43.102 56.4505L47.1537 56.4604L42.9649 60.3562L38.7761 64.252V65.8317V67.4113H47.3368H55.8976V65.518V63.6247L51.6673 63.6148L47.4369 63.6049L51.6854 59.7203L55.9339 55.8358L55.9353 54.2644L55.9368 52.693H47.4936H39.0503V54.5667ZM57.2006 57.9147C57.216 63.6208 57.2095 63.4536 57.4475 64.3076C58.0537 66.4831 59.9429 67.4869 63.8824 67.7267C64.7559 67.7799 67.4648 67.7536 68.1413 67.6854C70.5651 67.441 72.0019 66.9425 72.9226 66.0264C73.5323 65.4197 73.8651 64.7055 74.0647 63.575C74.1208 63.2572 74.1302 62.5903 74.1437 57.9537L74.159 52.693H71.4734H68.7877V57.2819C68.7877 62.3967 68.7963 62.2202 68.5212 62.7432C68.0979 63.5477 67.1809 64.0174 65.908 64.0817C64.2199 64.167 63.0183 63.5176 62.6415 62.3165C62.5877 62.145 62.5788 61.5501 62.5681 57.4072L62.556 52.693H59.8713H57.1866L57.2006 57.9147ZM75.5266 60.0522V67.4113H78.328H81.1293V64.8346C81.1293 63.4175 81.1387 62.258 81.1502 62.258C81.1616 62.258 82.3914 63.4165 83.8829 64.8325L86.5949 67.4071L90.3268 67.4092C92.3793 67.4104 94.0586 67.3971 94.0586 67.3797C94.0586 67.3623 92.2423 65.6658 90.0224 63.6097C87.8025 61.5536 85.9959 59.8556 86.0078 59.8364C86.0197 59.8172 87.888 58.2195 90.1595 56.2859C92.431 54.3523 94.3003 52.7529 94.3135 52.7317C94.3293 52.7062 93.0845 52.693 90.6777 52.693H87.0178L84.0736 55.2122L81.1293 57.7313V55.2122V52.693H78.328H75.5266V60.0522ZM95.1653 60.0424L95.1752 67.3918L97.9668 67.4018L100.758 67.4118V60.0524V52.693H97.9569H95.1555L95.1653 60.0424Z" fill="#2F3140"/>
<path fill-rule="evenodd" clip-rule="evenodd" d="M50.7056 1.51397C50.3792 1.84851 49.2616 2.81434 48.4535 3.46019C47.0139 4.61064 45.6709 5.58037 43.7484 6.85751C38.6781 10.2259 32.9372 13.2995 29.3889 14.5457C29.1068 14.6448 28.8706 14.7434 28.8642 14.7649C28.853 14.8017 31.6945 16.791 49.9645 29.5371C54.1005 32.4225 57.5002 34.7976 57.5194 34.8151C57.5493 34.8423 56.5042 35.5584 56.3467 35.6186C56.3151 35.6307 55.6307 35.188 54.7332 34.5747C53.876 33.989 51.5173 32.3765 49.4918 30.9914C47.4662 29.6063 45.6237 28.3604 45.3975 28.2227C44.0832 27.4231 42.6319 26.9151 40.9506 26.6661C40.2749 26.5661 38.3929 26.5657 37.6203 26.6654C35.5136 26.9375 33.4215 27.6 31.2598 28.6798C30.3261 29.1462 28.8113 30.0637 28.8376 30.1469C28.8533 30.1966 27.517 29.2734 42.3415 39.4764C46.9206 42.628 50.7255 45.2501 50.7969 45.3033L50.9267 45.4L51.3454 44.9943C53.72 42.6941 58.7248 39.2145 63.8707 36.2863C67.1164 34.4393 70.7264 32.7115 72.6959 32.0624C72.8737 32.0039 73.0188 31.9442 73.0185 31.9298C73.0181 31.9155 70.9158 30.4368 68.3466 28.6439C63.6989 25.4004 60.0328 22.8415 50.3929 16.1128C47.6131 14.1724 45.103 12.4186 44.8149 12.2153L44.2911 11.8457L44.911 11.4437C45.252 11.2226 45.5494 11.053 45.5719 11.0668C45.6088 11.0892 51.7998 15.3185 54.781 17.3577C56.2487 18.3617 56.4684 18.5017 57.0742 18.8191C58.2583 19.4397 59.5549 19.8419 61.0106 20.0401C61.7722 20.1439 63.3737 20.1354 64.244 20.0231C66.3304 19.7539 68.3623 19.1162 70.4485 18.076C71.2946 17.654 71.9218 17.2996 72.5635 16.8809L73.0678 16.5519L72.1326 15.9081C71.6182 15.554 66.6488 12.1324 61.0896 8.30463C55.5304 4.47681 50.9637 1.33801 50.9413 1.32946C50.919 1.32091 50.8129 1.40395 50.7056 1.51397Z" fill="#2F3140"/>
</svg>
