<svg width="71" height="71" viewBox="0 0 71 71" fill="none" xmlns="http://www.w3.org/2000/svg">
<g clip-path="url(#clip0_259_6218)">
<path d="M35.5423 67.5255C17.9524 67.5255 3.54137 53.0439 3.54137 35.454C3.54137 31.498 4.24779 27.754 5.58999 24.2219L24.3102 61.8742C24.5221 62.3687 24.8753 62.7925 25.4404 62.7925C26.0056 62.7925 26.3588 62.3687 26.5707 61.8742L35.1891 42.5889C35.2597 42.3769 35.401 42.165 35.6129 42.165C35.8248 42.165 35.8955 42.3769 36.0368 42.5889L44.6551 61.8742C44.867 62.3687 45.2202 62.7925 45.7854 62.7925C46.3505 62.7925 46.7037 62.3687 46.9156 61.8742L65.6358 24.2219C66.978 27.754 67.6844 31.498 67.6844 35.454C67.5432 53.0439 53.1322 67.5255 35.5423 67.5255ZM35.5423 28.1779C35.3303 28.1779 35.2597 27.9659 35.1184 27.754L25.0872 5.14853C28.3368 3.94761 31.8689 3.31183 35.5423 3.31183C39.2157 3.31183 42.7478 3.94761 45.9973 5.14853L35.9661 27.754C35.8248 28.0366 35.7542 28.1779 35.5423 28.1779ZM25.2992 51.4191C25.0872 51.4191 25.0166 51.2072 24.8753 50.9953L8.62761 18.2173C11.5239 13.7669 15.4093 10.0228 20.1423 7.40908L31.8689 33.476C32.0102 33.8999 32.3634 34.0412 32.7166 34.0412H38.368C38.7918 34.0412 39.0744 33.9705 39.2863 33.476L51.0129 7.40908C55.6753 10.0228 59.6312 13.7669 62.5276 18.2173L46.1386 50.9953C46.0679 51.2072 45.9267 51.4191 45.7147 51.4191C45.5028 51.4191 45.4322 51.2072 45.2909 50.9953L39.145 37.0081C38.9331 36.5136 38.6505 36.443 38.2267 36.443H32.5753C32.1514 36.443 31.8689 36.5136 31.6569 37.0081L25.723 50.9953C25.6524 51.2072 25.5111 51.4191 25.2992 51.4191ZM35.5423 70.7751C55.1101 70.7751 70.8633 55.0219 70.8633 35.454C70.8633 15.8861 55.1101 0.132935 35.5423 0.132935C15.9744 0.132935 0.221191 15.8861 0.221191 35.454C0.221191 55.0219 15.9744 70.7751 35.5423 70.7751Z" fill="#2F3140"/>
</g>
<defs>
<clipPath id="clip0_259_6218">
<rect width="71" height="71" fill="white"/>
</clipPath>
</defs>
</svg>
