<svg width="31" height="30" viewBox="0 0 31 30" fill="none" xmlns="http://www.w3.org/2000/svg">
<path d="M15.8409 30C24.1455 30 30.8777 23.2843 30.8777 15C30.8777 6.71573 24.1455 0 15.8409 0C7.53629 0 0.804077 6.71573 0.804077 15C0.804077 23.2843 7.53629 30 15.8409 30Z" fill="url(#paint0_linear_290_860)"/>
<path fill-rule="evenodd" clip-rule="evenodd" d="M7.61989 14.8365C11.9998 12.9206 14.9275 11.6823 16.3797 11.0748C20.5487 9.34585 21.4154 9.04211 21.9775 9.04211C22.0946 9.04211 22.3756 9.06548 22.563 9.20567C22.7036 9.32249 22.7504 9.48604 22.7738 9.60286C22.7972 9.71968 22.8207 9.97669 22.7972 10.187C22.563 12.5468 21.6027 18.3178 21.0874 20.958C20.8766 22.0795 20.4551 22.4533 20.0569 22.5001C19.1903 22.5702 18.511 21.9159 17.6679 21.3786C16.3562 20.5141 15.6067 19.9767 14.3185 19.1356C12.843 18.1543 13.8033 17.6169 14.6464 16.7524C14.8572 16.5187 18.7218 13.0374 18.7921 12.7103C18.7921 12.6636 18.8155 12.5234 18.7218 12.4533C18.6282 12.3832 18.511 12.4066 18.4174 12.43C18.2768 12.4533 16.1689 13.8552 12.07 16.6122C11.4611 17.0328 10.9224 17.2197 10.4305 17.2197C9.89181 17.2197 8.86125 16.9159 8.08833 16.6589C7.15145 16.3552 6.40195 16.1916 6.47222 15.6776C6.54249 15.3973 6.91723 15.1169 7.61989 14.8365Z" fill="white"/>
<defs>
<linearGradient id="paint0_linear_290_860" x1="0.826375" y1="14.9891" x2="30.8783" y2="14.9891" gradientUnits="userSpaceOnUse">
<stop stop-color="#2AABEE"/>
<stop offset="1" stop-color="#229ED9"/>
</linearGradient>
</defs>
</svg>
