<svg width="30" height="30" viewBox="0 0 30 30" fill="none" xmlns="http://www.w3.org/2000/svg">
<path d="M0 14.375C0 7.59856 0 4.21034 2.10517 2.10517C4.21034 0 7.59856 0 14.375 0H15.625C22.4014 0 25.7897 0 27.8948 2.10517C30 4.21034 30 7.59856 30 14.375V15.625C30 22.4014 30 25.7897 27.8948 27.8948C25.7897 30 22.4014 30 15.625 30H14.375C7.59856 30 4.21034 30 2.10517 27.8948C0 25.7897 0 22.4014 0 15.625L0 14.375Z" fill="#2787F5"/>
<path fill-rule="evenodd" clip-rule="evenodd" d="M7.829 10.0625H5.72086C5.11852 10.0625 4.99805 10.3469 4.99805 10.6605C4.99805 11.2206 5.71276 13.9985 8.32587 17.6725C10.0679 20.1816 12.5223 21.5417 14.7558 21.5417C16.0959 21.5417 16.2616 21.2396 16.2616 20.7193V18.8229C16.2616 18.2187 16.3886 18.0982 16.8129 18.0982C17.1256 18.0982 17.6616 18.255 18.9124 19.4647C20.3418 20.8985 20.5774 21.5417 21.3814 21.5417H23.4895C24.0919 21.5417 24.3931 21.2396 24.2193 20.6435C24.0292 20.0493 23.3468 19.1872 22.4412 18.1654C21.9498 17.5829 21.2128 16.9557 20.9894 16.642C20.6768 16.2388 20.7661 16.0595 20.9894 15.7011C20.9894 15.7011 23.5579 12.0719 23.8259 10.8398C23.9599 10.3917 23.8259 10.0625 23.1884 10.0625H21.0802C20.5442 10.0625 20.2971 10.3469 20.1631 10.6605C20.1631 10.6605 19.091 13.2816 17.5723 14.9842C17.0809 15.477 16.8576 15.6339 16.5895 15.6339C16.4556 15.6339 16.2616 15.477 16.2616 15.0291V10.8398C16.2616 10.3021 16.106 10.0625 15.6593 10.0625H12.3464C12.0115 10.0625 11.81 10.312 11.81 10.5486C11.81 11.0582 12.5694 11.1758 12.6477 12.6095V15.7235C12.6477 16.4062 12.5247 16.53 12.2567 16.53C11.542 16.53 9.80358 13.8972 8.77251 10.8846C8.57048 10.299 8.36778 10.0625 7.829 10.0625Z" fill="white"/>
</svg>
