<svg width="31" height="30" viewBox="0 0 31 30" fill="none" xmlns="http://www.w3.org/2000/svg">
<g clip-path="url(#clip0_290_847)">
<path d="M30.8041 22.387C30.8041 22.5514 30.7989 22.9058 30.7887 23.1832C30.763 23.8562 30.7116 24.7243 30.6294 25.1199C30.5061 25.7158 30.3263 26.2757 30.0849 26.7432C29.8024 27.2979 29.4428 27.7911 29.0113 28.2175C28.5849 28.6438 28.0918 29.0034 27.537 29.286C27.0695 29.5274 26.5044 29.7072 25.9034 29.8305C25.513 29.9075 24.65 29.964 23.9822 29.9846C23.7048 29.9949 23.3503 30 23.1859 30H8.41195C8.24757 30 7.89312 29.9949 7.61572 29.9846C6.94278 29.9589 6.07463 29.9075 5.67908 29.8253C5.08319 29.7021 4.52326 29.5223 4.05579 29.2808C3.50099 28.9983 3.00784 28.6387 2.58147 28.2072C2.1551 27.7808 1.79552 27.2877 1.51298 26.7329C1.27154 26.2654 1.09175 25.7003 0.968461 25.0993C0.891406 24.7089 0.834899 23.8459 0.814351 23.1781C0.809214 22.9058 0.804077 22.5514 0.804077 22.387V7.61301C0.804077 7.44863 0.809214 7.09418 0.819488 6.81678C0.845173 6.14384 0.896543 5.27569 0.978735 4.88014C1.10202 4.28425 1.28182 3.72432 1.52326 3.25685C1.80579 2.70205 2.16538 2.2089 2.59175 1.78253C3.01812 1.35616 3.51127 0.996575 4.06606 0.714041C4.53353 0.472603 5.0986 0.292808 5.69963 0.169521C6.09004 0.0924658 6.95305 0.0359589 7.62086 0.015411C7.89826 0.00513699 8.25271 0 8.41709 0H23.1911C23.3554 0 23.7099 0.00513699 23.9873 0.015411C24.6602 0.0410959 25.5284 0.0924658 25.9239 0.174658C26.5198 0.297945 27.0798 0.47774 27.5472 0.719178C28.102 1.00171 28.5952 1.3613 29.0215 1.79281C29.4479 2.21918 29.8075 2.71233 30.09 3.26712C30.3315 3.73459 30.5113 4.29966 30.6346 4.90069C30.7116 5.2911 30.7681 6.15411 30.7887 6.82192C30.7989 7.09932 30.8041 7.45377 30.8041 7.61815V22.387Z" fill="url(#paint0_linear_290_847)"/>
<path fill-rule="evenodd" clip-rule="evenodd" d="M23.6945 7.18154C21.6757 5.1627 18.989 4.04797 16.1277 4.04797C10.2305 4.04797 5.43768 8.84592 5.43254 14.738C5.43254 16.6233 5.92569 18.4624 6.86063 20.0805L5.34521 25.6233L11.0164 24.1387C12.5781 24.9915 14.3349 25.4384 16.1277 25.4384H16.1329C22.025 25.4384 26.823 20.6404 26.8281 14.7483C26.8281 11.887 25.7134 9.20037 23.6945 7.18154ZM16.1329 23.6302C14.5353 23.6302 12.9685 23.1987 11.6072 22.3921L11.2836 22.2021L7.91884 23.0856L8.81782 19.8082L8.6072 19.4743C7.7185 18.0617 7.2459 16.423 7.2459 14.7432C7.2459 9.84249 11.2373 5.85619 16.138 5.85619C18.5113 5.85619 20.7459 6.78085 22.4206 8.46064C24.1004 10.1404 25.025 12.375 25.0199 14.7483C25.0147 19.6439 21.0284 23.6302 16.1329 23.6302ZM21.0079 16.9778C20.7408 16.8442 19.4257 16.1969 19.1843 16.1096C18.9377 16.0223 18.763 15.9761 18.5832 16.2432C18.4034 16.5103 17.8949 17.1113 17.7356 17.2911C17.5815 17.4709 17.4223 17.4915 17.1551 17.3579C16.888 17.2243 16.025 16.9418 15.0079 16.0326C14.2117 15.3237 13.6774 14.4504 13.5233 14.1832C13.3692 13.9161 13.5079 13.7723 13.6414 13.6387C13.7596 13.5206 13.9086 13.3254 14.0421 13.1713C14.1757 13.0172 14.2219 12.9041 14.3093 12.7243C14.3966 12.5445 14.3555 12.3904 14.2887 12.2569C14.2219 12.1233 13.6877 10.8082 13.4668 10.274C13.251 9.75517 13.0301 9.82195 12.8658 9.81681C12.7117 9.80654 12.5319 9.80653 12.3521 9.80653C12.1723 9.80653 11.8846 9.87332 11.638 10.1404C11.3914 10.4076 10.7031 11.0548 10.7031 12.3699C10.7031 13.685 11.6586 14.9538 11.7921 15.1336C11.9257 15.3134 13.6774 18.0103 16.3589 19.1661C16.9959 19.4435 17.4942 19.6079 17.8846 19.7312C18.5267 19.9367 19.1072 19.9059 19.5695 19.8391C20.0832 19.762 21.1517 19.1918 21.3726 18.5702C21.5935 17.9487 21.5935 17.4093 21.5267 17.3014C21.4497 17.1781 21.275 17.1113 21.0079 16.9778Z" fill="white"/>
</g>
<defs>
<linearGradient id="paint0_linear_290_847" x1="15.8052" y1="30.0023" x2="15.8052" y2="0" gradientUnits="userSpaceOnUse">
<stop stop-color="#25CF43"/>
<stop offset="1" stop-color="#61FD7D"/>
</linearGradient>
<clipPath id="clip0_290_847">
<rect width="30" height="30" fill="white" transform="translate(0.804077)"/>
</clipPath>
</defs>
</svg>
