<svg width="50" height="50" viewBox="0 0 50 50" fill="none" xmlns="http://www.w3.org/2000/svg">
<path d="M32.3125 5.89583H17.6875C12.5 5.89583 11.3542 8.47916 10.6875 11.6458L8.33337 22.9167H41.6667L39.3125 11.6458C38.6459 8.47916 37.5 5.89583 32.3125 5.89583Z" stroke="#2F3140" stroke-width="3" stroke-linecap="round" stroke-linejoin="round"/>
<path d="M45.8124 41.2917C46.0416 43.7292 44.0833 45.8333 41.5833 45.8333H37.6666C35.4166 45.8333 35.1041 44.875 34.7083 43.6875L34.2916 42.4375C33.7083 40.7292 33.3333 39.5833 30.3333 39.5833H19.6666C16.6666 39.5833 16.2291 40.875 15.7083 42.4375L15.2916 43.6875C14.8958 44.875 14.5833 45.8333 12.3333 45.8333H8.41661C5.91661 45.8333 3.95827 43.7292 4.18744 41.2917L5.35411 28.6042C5.64577 25.4792 6.24994 22.9167 11.7083 22.9167H38.2916C43.7499 22.9167 44.3541 25.4792 44.6458 28.6042L45.8124 41.2917Z" stroke="#2F3140" stroke-width="3" stroke-linecap="round" stroke-linejoin="round"/>
<path d="M8.33333 16.6667H6.25" stroke="#2F3140" stroke-width="3" stroke-linecap="round" stroke-linejoin="round"/>
<path d="M43.75 16.6667H41.6666" stroke="#2F3140" stroke-width="3" stroke-linecap="round" stroke-linejoin="round"/>
<path d="M25 6.25V10.4167" stroke="#2F3140" stroke-width="3" stroke-linecap="round" stroke-linejoin="round"/>
<path d="M21.875 10.4167H28.125" stroke="#2F3140" stroke-width="3" stroke-linecap="round" stroke-linejoin="round"/>
<path d="M12.5 31.25H18.75" stroke="#2F3140" stroke-width="3" stroke-linecap="round" stroke-linejoin="round"/>
<path d="M31.25 31.25H37.5" stroke="#2F3140" stroke-width="3" stroke-linecap="round" stroke-linejoin="round"/>
</svg>
