<svg width="50" height="50" viewBox="0 0 50 50" fill="none" xmlns="http://www.w3.org/2000/svg">
<path d="M41.2293 31.1042C36.9376 35.375 30.7918 36.6875 25.3959 35L15.5834 44.7917C14.8751 45.5208 13.4793 45.9583 12.4793 45.8125L7.9376 45.1875C6.4376 44.9792 5.04177 43.5625 4.8126 42.0625L4.1876 37.5208C4.04177 36.5208 4.52093 35.125 5.20843 34.4167L15.0001 24.625C13.3334 19.2083 14.6251 13.0625 18.9168 8.79166C25.0626 2.64582 35.0418 2.64582 41.2084 8.79166C47.3751 14.9375 47.3751 24.9583 41.2293 31.1042Z" stroke="#2F3140" stroke-width="3" stroke-miterlimit="10" stroke-linecap="round" stroke-linejoin="round"/>
<path d="M14.3542 36.4375L19.1459 41.2292" stroke="#2F3140" stroke-width="3" stroke-miterlimit="10" stroke-linecap="round" stroke-linejoin="round"/>
<path d="M30.2083 22.9167C31.9341 22.9167 33.3333 21.5175 33.3333 19.7917C33.3333 18.0658 31.9341 16.6667 30.2083 16.6667C28.4824 16.6667 27.0833 18.0658 27.0833 19.7917C27.0833 21.5175 28.4824 22.9167 30.2083 22.9167Z" stroke="#2F3140" stroke-width="3" stroke-linecap="round" stroke-linejoin="round"/>
</svg>
