<svg width="50" height="50" viewBox="0 0 50 50" fill="none" xmlns="http://www.w3.org/2000/svg">
<path d="M25 6.25L21.0167 18.3604C20.8128 18.9802 20.4662 19.5435 20.0049 20.0049C19.5435 20.4662 18.9802 20.8128 18.3604 21.0167L6.25 25L18.3604 28.9833C18.9802 29.1872 19.5435 29.5338 20.0049 29.9951C20.4662 30.4565 20.8128 31.0198 21.0167 31.6396L25 43.75L28.9833 31.6396C29.1872 31.0198 29.5338 30.4565 29.9951 29.9951C30.4565 29.5338 31.0198 29.1872 31.6396 28.9833L43.75 25L31.6396 21.0167C31.0198 20.8128 30.4565 20.4662 29.9951 20.0049C29.5338 19.5435 29.1872 18.9802 28.9833 18.3604L25 6.25Z" stroke="#2F3140" stroke-width="3" stroke-linecap="round" stroke-linejoin="round"/>
<path d="M10.4167 6.25V14.5833" stroke="#2F3140" stroke-width="3" stroke-linecap="round" stroke-linejoin="round"/>
<path d="M39.5833 35.4167V43.75" stroke="#2F3140" stroke-width="3" stroke-linecap="round" stroke-linejoin="round"/>
<path d="M6.25 10.4167H14.5833" stroke="#2F3140" stroke-width="3" stroke-linecap="round" stroke-linejoin="round"/>
<path d="M35.4167 39.5833H43.7501" stroke="#2F3140" stroke-width="3" stroke-linecap="round" stroke-linejoin="round"/>
</svg>
