<svg width="50" height="50" viewBox="0 0 50 50" fill="none" xmlns="http://www.w3.org/2000/svg">
<path d="M19.3958 30.625L22.5208 33.75L30.8541 25.4167" stroke="#2F3140" stroke-width="3" stroke-linecap="round" stroke-linejoin="round"/>
<path d="M20.8334 12.5H29.1667C33.3334 12.5 33.3334 10.4167 33.3334 8.33332C33.3334 4.16666 31.2501 4.16666 29.1667 4.16666H20.8334C18.7501 4.16666 16.6667 4.16666 16.6667 8.33332C16.6667 12.5 18.7501 12.5 20.8334 12.5Z" stroke="#2F3140" stroke-width="3" stroke-miterlimit="10" stroke-linecap="round" stroke-linejoin="round"/>
<path d="M33.3333 8.375C40.2708 8.75 43.75 11.3125 43.75 20.8333V33.3333C43.75 41.6667 41.6667 45.8333 31.25 45.8333H18.75C8.33333 45.8333 6.25 41.6667 6.25 33.3333V20.8333C6.25 11.3333 9.72917 8.75 16.6667 8.375" stroke="#2F3140" stroke-width="3" stroke-miterlimit="10" stroke-linecap="round" stroke-linejoin="round"/>
</svg>
