<svg width="50" height="50" viewBox="0 0 50 50" fill="none" xmlns="http://www.w3.org/2000/svg">
<path d="M25 31.25C28.4518 31.25 31.25 28.4518 31.25 25C31.25 21.5482 28.4518 18.75 25 18.75C21.5482 18.75 18.75 21.5482 18.75 25C18.75 28.4518 21.5482 31.25 25 31.25Z" stroke="#2F3140" stroke-width="3" stroke-miterlimit="10" stroke-linecap="round" stroke-linejoin="round"/>
<path d="M4.16663 26.8333V23.1667C4.16663 21 5.93746 19.2083 8.12496 19.2083C11.8958 19.2083 13.4375 16.5417 11.5416 13.2708C10.4583 11.3958 11.1041 8.95834 13 7.87501L16.6041 5.81251C18.25 4.83334 20.375 5.41668 21.3541 7.06251L21.5833 7.45834C23.4583 10.7292 26.5416 10.7292 28.4375 7.45834L28.6666 7.06251C29.6458 5.41668 31.7708 4.83334 33.4166 5.81251L37.0208 7.87501C38.9166 8.95834 39.5625 11.3958 38.4791 13.2708C36.5833 16.5417 38.125 19.2083 41.8958 19.2083C44.0625 19.2083 45.8541 20.9792 45.8541 23.1667V26.8333C45.8541 29 44.0833 30.7917 41.8958 30.7917C38.125 30.7917 36.5833 33.4583 38.4791 36.7292C39.5625 38.625 38.9166 41.0417 37.0208 42.125L33.4166 44.1875C31.7708 45.1667 29.6458 44.5833 28.6666 42.9375L28.4375 42.5417C26.5625 39.2708 23.4791 39.2708 21.5833 42.5417L21.3541 42.9375C20.375 44.5833 18.25 45.1667 16.6041 44.1875L13 42.125C11.1041 41.0417 10.4583 38.6042 11.5416 36.7292C13.4375 33.4583 11.8958 30.7917 8.12496 30.7917C5.93746 30.7917 4.16663 29 4.16663 26.8333Z" stroke="#2F3140" stroke-width="3" stroke-miterlimit="10" stroke-linecap="round" stroke-linejoin="round"/>
</svg>
