<svg width="50" height="50" viewBox="0 0 50 50" fill="none" xmlns="http://www.w3.org/2000/svg">
<path d="M19.0833 22.6458C18.875 22.625 18.625 22.625 18.3958 22.6458C13.4375 22.4792 9.5 18.4167 9.5 13.4167C9.5 8.31251 13.625 4.16667 18.75 4.16667C23.8542 4.16667 28 8.31251 28 13.4167C27.9792 18.4167 24.0417 22.4792 19.0833 22.6458Z" stroke="#2F3140" stroke-width="3" stroke-linecap="round" stroke-linejoin="round"/>
<path d="M34.1875 8.33333C38.2291 8.33333 41.4791 11.6042 41.4791 15.625C41.4791 19.5625 38.3541 22.7708 34.4583 22.9167C34.2916 22.8958 34.1041 22.8958 33.9166 22.9167" stroke="#2F3140" stroke-width="3" stroke-linecap="round" stroke-linejoin="round"/>
<path d="M8.66663 30.3333C3.62496 33.7083 3.62496 39.2083 8.66663 42.5625C14.3958 46.3958 23.7916 46.3958 29.5208 42.5625C34.5625 39.1875 34.5625 33.6875 29.5208 30.3333C23.8125 26.5208 14.4166 26.5208 8.66663 30.3333Z" stroke="#2F3140" stroke-width="3" stroke-linecap="round" stroke-linejoin="round"/>
<path d="M38.2084 41.6667C39.7084 41.3542 41.125 40.75 42.2917 39.8542C45.5417 37.4167 45.5417 33.3958 42.2917 30.9583C41.1459 30.0833 39.75 29.5 38.2709 29.1667" stroke="#2F3140" stroke-width="3" stroke-linecap="round" stroke-linejoin="round"/>
</svg>
