<svg width="23" height="22" viewBox="0 0 23 22" fill="none" xmlns="http://www.w3.org/2000/svg">
<path d="M20.4997 7.80998V3.64831C20.4997 2.35581 19.913 1.83331 18.4555 1.83331H14.7522C13.2947 1.83331 12.708 2.35581 12.708 3.64831V7.80081C12.708 9.10248 13.2947 9.61581 14.7522 9.61581H18.4555C19.913 9.62498 20.4997 9.10248 20.4997 7.80998Z" stroke="#B6B6B6" stroke-width="1.5" stroke-linecap="round" stroke-linejoin="round"/>
<path d="M20.4997 18.1225V14.4192C20.4997 12.9617 19.913 12.375 18.4555 12.375H14.7522C13.2947 12.375 12.708 12.9617 12.708 14.4192V18.1225C12.708 19.58 13.2947 20.1667 14.7522 20.1667H18.4555C19.913 20.1667 20.4997 19.58 20.4997 18.1225Z" stroke="#B6B6B6" stroke-width="1.5" stroke-linecap="round" stroke-linejoin="round"/>
<path d="M9.95768 7.80998V3.64831C9.95768 2.35581 9.37102 1.83331 7.91352 1.83331H4.21018C2.75268 1.83331 2.16602 2.35581 2.16602 3.64831V7.80081C2.16602 9.10248 2.75268 9.61581 4.21018 9.61581H7.91352C9.37102 9.62498 9.95768 9.10248 9.95768 7.80998Z" stroke="#B6B6B6" stroke-width="1.5" stroke-linecap="round" stroke-linejoin="round"/>
<path d="M9.95768 18.1225V14.4192C9.95768 12.9617 9.37102 12.375 7.91352 12.375H4.21018C2.75268 12.375 2.16602 12.9617 2.16602 14.4192V18.1225C2.16602 19.58 2.75268 20.1667 4.21018 20.1667H7.91352C9.37102 20.1667 9.95768 19.58 9.95768 18.1225Z" stroke="#B6B6B6" stroke-width="1.5" stroke-linecap="round" stroke-linejoin="round"/>
</svg>
