<svg width="24" height="24" viewBox="0 0 24 24" fill="none" xmlns="http://www.w3.org/2000/svg">
<path d="M3.75469 6.62815C2.74687 6.62815 1.92188 5.80315 1.92188 4.79534C1.92188 3.78752 2.74219 2.96252 3.75469 2.96252C4.76719 2.96252 5.5875 3.78752 5.5875 4.79534C5.5875 5.80315 4.7625 6.62815 3.75469 6.62815ZM3.75469 3.41721C3 3.41721 2.38125 4.03596 2.38125 4.79065C2.38125 5.54534 3 6.16409 3.75469 6.16409C4.50937 6.16409 5.12813 5.54534 5.12813 4.79065C5.12813 4.03596 4.51406 3.41721 3.75469 3.41721ZM3.75469 21.0375C2.74687 21.0375 1.92188 20.2125 1.92188 19.2047C1.92188 18.1969 2.74687 17.3719 3.75469 17.3719C4.7625 17.3719 5.5875 18.1969 5.5875 19.2047C5.5875 20.2172 4.7625 21.0375 3.75469 21.0375ZM3.75469 17.8313C3 17.8313 2.38125 18.45 2.38125 19.2047C2.38125 19.9594 3 20.5781 3.75469 20.5781C4.50937 20.5781 5.12813 19.9594 5.12813 19.2047C5.12813 18.45 4.51406 17.8313 3.75469 17.8313Z" fill="#111111" stroke="#2F3140" stroke-width="0.6"/>
<path d="M3.7543 17.836C3.62773 17.836 3.5293 17.7328 3.5293 17.611V6.38909C3.5293 6.26252 3.63242 6.16409 3.7543 6.16409C3.87617 6.16409 3.9793 6.26721 3.9793 6.38909V17.6063C3.98398 17.7328 3.88086 17.836 3.7543 17.836ZM11.9996 6.62815C10.9918 6.62815 10.1668 5.80315 10.1668 4.79534C10.1668 3.78752 10.9918 2.96252 11.9996 2.96252C13.0074 2.96252 13.8324 3.78752 13.8324 4.79534C13.8324 5.80315 13.0074 6.62815 11.9996 6.62815ZM11.9996 3.41721C11.2449 3.41721 10.6262 4.03596 10.6262 4.79065C10.6262 5.54534 11.2449 6.16409 11.9996 6.16409C12.7543 6.16409 13.373 5.54534 13.373 4.79065C13.373 4.03596 12.7543 3.41721 11.9996 3.41721ZM11.9996 21.0375C10.9918 21.0375 10.1668 20.2125 10.1668 19.2047C10.1668 18.1969 10.9918 17.3719 11.9996 17.3719C13.0074 17.3719 13.8324 18.1969 13.8324 19.2047C13.8324 20.2172 13.0074 21.0375 11.9996 21.0375ZM11.9996 17.8313C11.2449 17.8313 10.6262 18.45 10.6262 19.2047C10.6262 19.9594 11.2449 20.5781 11.9996 20.5781C12.7543 20.5781 13.373 19.9594 13.373 19.2047C13.373 18.45 12.7543 17.8313 11.9996 17.8313Z" fill="#111111" stroke="#2F3140" stroke-width="0.6"/>
<path d="M12.0004 17.836C11.8738 17.836 11.7754 17.7328 11.7754 17.611V6.38909C11.7754 6.26252 11.8785 6.16409 12.0004 6.16409C12.127 6.16409 12.2254 6.26721 12.2254 6.38909V17.6063C12.2254 17.7328 12.127 17.836 12.0004 17.836ZM20.2457 6.62815C19.2379 6.62815 18.4129 5.80315 18.4129 4.79534C18.4129 3.78752 19.2379 2.96252 20.2457 2.96252C21.2535 2.96252 22.0785 3.78752 22.0785 4.79534C22.0785 5.80315 21.2582 6.62815 20.2457 6.62815ZM20.2457 3.41721C19.491 3.41721 18.8723 4.03596 18.8723 4.79065C18.8723 5.54534 19.491 6.16409 20.2457 6.16409C21.0004 6.16409 21.6191 5.54534 21.6191 4.79065C21.6191 4.03596 21.0051 3.41721 20.2457 3.41721Z" fill="#111111" stroke="#2F3140" stroke-width="0.6"/>
<path d="M20.2449 12.225H3.7543C3.62773 12.225 3.5293 12.1219 3.5293 12C3.5293 11.8781 3.63242 11.775 3.7543 11.775H20.0152V6.38906C20.0152 6.2625 20.1184 6.16406 20.2402 6.16406C20.3668 6.16406 20.4652 6.26719 20.4652 6.38906V12C20.4746 12.1266 20.3762 12.225 20.2449 12.225ZM19.0449 21.0375C18.9184 21.0375 18.8199 20.9344 18.8199 20.8125V15.4313C18.8199 15.3047 18.923 15.2062 19.0449 15.2062H20.109C20.9762 15.2062 21.6793 15.9141 21.6793 16.7766C21.6793 17.6391 20.9715 18.3469 20.109 18.3469H19.2746V20.8078C19.2746 20.9344 19.1715 21.0375 19.0449 21.0375ZM19.2746 17.8875H20.109C20.723 17.8875 21.2246 17.3859 21.2246 16.7719C21.2246 16.1578 20.723 15.6562 20.109 15.6562H19.2746V17.8875Z" fill="#111111" stroke="#2F3140" stroke-width="0.6"/>
<path d="M21.4505 21.0375C21.3661 21.0375 21.2864 20.9907 21.2442 20.911L19.9036 18.2204C19.8473 18.1079 19.8895 17.9672 20.0067 17.9157C20.1192 17.8594 20.2598 17.9016 20.3114 18.0188L21.652 20.7094C21.7083 20.8219 21.6661 20.9625 21.5489 21.0141C21.5255 21.0329 21.488 21.0375 21.4505 21.0375Z" fill="#111111" stroke="#2F3140" stroke-width="0.6"/>
</svg>
