<svg width="24" height="24" viewBox="0 0 24 24" fill="none" xmlns="http://www.w3.org/2000/svg">
<g clip-path="url(#clip0_1102_275)">
<path d="M24 13.6703C24 10.392 22.6781 7.41699 20.5399 5.24904C20.5232 5.2264 20.5049 5.20497 20.4852 5.18491C20.4652 5.1652 20.4438 5.14695 20.4212 5.1303C18.2532 2.9921 15.2782 1.67029 12 1.67029C8.72176 1.67029 5.74678 2.99218 3.57875 5.1303C3.55616 5.14699 3.53476 5.16524 3.5147 5.18491C3.49497 5.20496 3.47669 5.22639 3.46001 5.24904C1.32189 7.41699 0 10.392 0 13.6703C0 16.8752 1.24792 19.8881 3.51384 22.1546L3.51478 22.1556L3.51541 22.1561L3.51635 22.1571C3.57109 22.2119 3.63612 22.2554 3.70772 22.2851C3.77932 22.3147 3.85607 22.3299 3.93356 22.3298C4.08464 22.3298 4.23572 22.2722 4.35092 22.1569C4.36076 22.1471 4.36965 22.1366 4.37862 22.1262L6.19727 20.3075C6.30715 20.1967 6.36866 20.0468 6.36832 19.8907C6.36799 19.7347 6.30584 19.5851 6.19549 19.4747C6.08513 19.3644 5.93555 19.3022 5.77948 19.3018C5.62341 19.3015 5.47355 19.363 5.3627 19.4729L3.94348 20.8921C2.28858 19.0505 1.3285 16.7328 1.19646 14.2605H3.20357C3.5295 14.2605 3.79373 13.9963 3.79373 13.6703C3.79373 13.3443 3.5295 13.0801 3.20357 13.0801H1.19662C1.33385 10.5407 2.35082 8.23149 3.94733 6.45227L5.3627 7.86764C5.41745 7.92251 5.48249 7.96602 5.5541 7.99568C5.62571 8.02533 5.70248 8.04054 5.77999 8.04044C5.8967 8.04043 6.0108 8.00581 6.10784 7.94096C6.20488 7.87611 6.28052 7.78395 6.32518 7.67611C6.36985 7.56828 6.38153 7.44963 6.35877 7.33515C6.336 7.22068 6.2798 7.11553 6.19727 7.03299L4.78198 5.61754C6.56129 4.02103 8.8704 3.00406 11.4098 2.8669V4.87393C11.4098 5.19994 11.6741 5.4641 12 5.4641C12.3259 5.4641 12.5902 5.19994 12.5902 4.87393V2.8669C15.1296 3.00406 17.4387 4.02111 19.218 5.61762L17.8027 7.03299C17.6928 7.14383 17.6313 7.29368 17.6316 7.44975C17.6319 7.60582 17.6941 7.75541 17.8044 7.86578C17.9148 7.97614 18.0644 8.0383 18.2204 8.03865C18.3765 8.039 18.5264 7.97751 18.6372 7.86764L20.0526 6.45227C21.6491 8.23157 22.6662 10.5407 22.8033 13.0801H20.7963C20.4703 13.0801 20.2061 13.3443 20.2061 13.6703C20.2061 13.9963 20.4703 14.2605 20.7963 14.2605H22.8034C22.6713 16.7328 21.7113 19.0506 20.0564 20.8922L18.6372 19.4729C18.5259 19.3653 18.3768 19.3057 18.222 19.307C18.0672 19.3083 17.9191 19.3704 17.8096 19.4799C17.7001 19.5894 17.6381 19.7375 17.6368 19.8923C17.6355 20.0471 17.695 20.1962 17.8027 20.3075L19.6507 22.1555C19.7054 22.2104 19.7704 22.2539 19.8421 22.2835C19.9137 22.3132 19.9904 22.3284 20.0679 22.3283C20.1455 22.3284 20.2222 22.3132 20.2938 22.2835C20.3655 22.2538 20.4305 22.2104 20.4853 22.1555C22.7518 19.889 24 16.8755 24 13.6703Z" fill="#2F3140"/>
<path d="M14.7117 6.90248C14.6398 6.87364 14.5629 6.85925 14.4854 6.86015C14.4079 6.86104 14.3313 6.8772 14.2601 6.90769C14.1888 6.93819 14.1243 6.98242 14.0701 7.03787C14.0159 7.09331 13.9732 7.15889 13.9444 7.23084L12.239 11.4879C12.1598 11.4789 12.0802 11.4741 12.0005 11.4736C11.1699 11.4736 10.4196 11.9337 10.0423 12.6743C9.64789 13.4485 9.74893 14.3736 10.3123 15.1486C10.371 15.229 10.4418 15.2997 10.5221 15.3583C10.9799 15.6911 11.4911 15.867 12.0005 15.867C12.8312 15.867 13.5815 15.4069 13.9588 14.6663C14.3532 13.8921 14.2521 12.9671 13.6891 12.1925C13.6304 12.1119 13.5595 12.0409 13.4789 11.9821C13.4361 11.9515 13.3924 11.922 13.3479 11.8938L15.0401 7.66969C15.0983 7.5244 15.0964 7.36196 15.0348 7.21808C14.9732 7.07421 14.857 6.96068 14.7117 6.90248ZM12.9069 14.1305C12.8222 14.2981 12.6926 14.4388 12.5325 14.537C12.3724 14.6352 12.1882 14.687 12.0004 14.6866C11.7483 14.6866 11.4946 14.5985 11.2459 14.4248C10.9626 14.018 10.907 13.5771 11.094 13.21C11.1787 13.0424 11.3084 12.9016 11.4684 12.8034C11.6285 12.7052 11.8127 12.6535 12.0005 12.6539C12.1231 12.6539 12.246 12.6751 12.3686 12.7165C12.3726 12.7181 12.3763 12.7202 12.3804 12.7219C12.3933 12.727 12.4063 12.7312 12.4193 12.7353C12.5381 12.7816 12.6508 12.8421 12.755 12.9156C13.0382 13.3224 13.0939 13.7634 12.9069 14.1305Z" fill="#2F3140"/>
</g>
<defs>
<clipPath id="clip0_1102_275">
<rect width="24" height="24" fill="white"/>
</clipPath>
</defs>
</svg>
