<svg width="18" height="18" viewBox="0 0 18 18" fill="none" xmlns="http://www.w3.org/2000/svg">
<path d="M4.05078 1.57495H13.9508C14.7758 1.57495 15.4508 2.24995 15.4508 3.07495V4.72495C15.4508 5.32495 15.0758 6.07495 14.7008 6.44995L11.4758 9.29995C11.0258 9.67495 10.7258 10.425 10.7258 11.025V14.25C10.7258 14.7 10.4258 15.3 10.0508 15.525L9.00078 16.2C8.02578 16.8 6.67578 16.125 6.67578 14.925V10.95C6.67578 10.425 6.37578 9.74995 6.07578 9.37495L3.22578 6.37495C2.85078 5.99995 2.55078 5.32495 2.55078 4.87495V3.14995C2.55078 2.24995 3.22578 1.57495 4.05078 1.57495Z" stroke="#2F3140" stroke-width="1.5" stroke-miterlimit="10" stroke-linecap="round" stroke-linejoin="round"/>
<path d="M8.1975 1.57495L4.5 7.49995" stroke="#2F3140" stroke-width="1.5" stroke-miterlimit="10" stroke-linecap="round" stroke-linejoin="round"/>
</svg>
