<svg width="176" height="16" viewBox="0 0 176 16" fill="none" xmlns="http://www.w3.org/2000/svg">
<path d="M26.7059 11.9119H18.3055L16.5719 15.8235H14.252L21.4031 0.189453H23.6339L30.8105 15.8235H28.4395L26.7059 11.9119ZM25.9156 10.1201L22.5121 2.46075L19.1086 10.1201H25.9156Z" fill="white"/>
<path d="M87.6232 9.06011C88.1713 9.70364 88.4517 10.5365 88.4517 11.5459C88.4517 12.8961 87.9546 13.956 86.9476 14.7005C85.9405 15.445 84.4874 15.8235 82.5753 15.8235H75.3477V0.189453H82.1419C83.8755 0.189453 85.2267 0.530141 86.1955 1.22415C87.1643 1.91815 87.6487 2.915 87.6487 4.20206C87.6487 5.04749 87.432 5.77936 87.0113 6.37242C86.5779 6.96548 85.9788 7.41974 85.1885 7.70996C86.272 7.96233 87.075 8.41658 87.6232 9.06011ZM77.5912 7.06643H81.9889C83.0852 7.06643 83.9265 6.85192 84.5001 6.4229C85.0737 5.99388 85.3669 5.36296 85.3669 4.53015C85.3669 3.69734 85.0737 3.0538 84.4874 2.62478C83.901 2.18314 83.0597 1.96863 81.9762 1.96863H77.5784V7.06643H77.5912ZM86.17 11.3819C86.17 10.486 85.8641 9.82984 85.2522 9.40081C84.6403 8.97179 83.7353 8.7699 82.5371 8.7699H77.5912V14.0696H82.5371C84.959 14.057 86.17 13.1611 86.17 11.3819Z" fill="white"/>
<path d="M108.171 14.9653C106.896 14.2713 105.889 13.3123 105.163 12.0883C104.436 10.8644 104.066 9.50159 104.066 8.00001C104.066 6.49843 104.436 5.13565 105.163 3.91167C105.889 2.6877 106.896 1.7287 108.171 1.03469C109.446 0.340688 110.886 0 112.48 0C114.06 0 115.488 0.340688 116.763 1.03469C118.037 1.7287 119.044 2.67508 119.758 3.89906C120.485 5.11042 120.842 6.47319 120.842 8.00001C120.842 9.52682 120.485 10.8896 119.758 12.101C119.032 13.3123 118.037 14.2713 116.763 14.9653C115.488 15.6593 114.06 16 112.48 16C110.886 16 109.458 15.6593 108.171 14.9653ZM115.615 13.2366C116.546 12.7193 117.272 12 117.808 11.0789C118.343 10.1577 118.611 9.13565 118.611 8.01262C118.611 6.87698 118.343 5.85489 117.808 4.94637C117.272 4.02523 116.546 3.30599 115.615 2.78864C114.685 2.27129 113.652 2.00631 112.492 2.00631C111.332 2.00631 110.287 2.27129 109.344 2.78864C108.4 3.30599 107.661 4.02523 107.126 4.94637C106.59 5.86751 106.323 6.88959 106.323 8.01262C106.323 9.14827 106.59 10.1703 107.126 11.0789C107.661 12 108.4 12.7193 109.344 13.2366C110.287 13.754 111.332 14.0189 112.492 14.0189C113.64 14.0189 114.685 13.754 115.615 13.2366Z" fill="white"/>
<path d="M142.794 14.9653C141.519 14.2713 140.512 13.3123 139.786 12.0883C139.059 10.8644 138.689 9.50159 138.689 8.00001C138.689 6.49843 139.059 5.13565 139.786 3.91167C140.512 2.6877 141.519 1.7287 142.794 1.03469C144.069 0.340688 145.509 0 147.103 0C148.683 0 150.111 0.340688 151.386 1.03469C152.66 1.7287 153.667 2.67508 154.381 3.89906C155.108 5.11042 155.465 6.47319 155.465 8.00001C155.465 9.52682 155.108 10.8896 154.381 12.101C153.655 13.3123 152.66 14.2713 151.386 14.9653C150.111 15.6593 148.683 16 147.103 16C145.509 16 144.081 15.6593 142.794 14.9653ZM150.238 13.2366C151.169 12.7193 151.896 12 152.431 11.0789C152.966 10.1577 153.234 9.13565 153.234 8.01262C153.234 6.87698 152.966 5.85489 152.431 4.94637C151.896 4.02523 151.169 3.30599 150.238 2.78864C149.308 2.27129 148.275 2.00631 147.115 2.00631C145.955 2.00631 144.91 2.27129 143.967 2.78864C143.023 3.30599 142.284 4.02523 141.749 4.94637C141.213 5.86751 140.946 6.88959 140.946 8.01262C140.946 9.14827 141.213 10.1703 141.749 11.0789C142.284 12 143.023 12.7193 143.967 13.2366C144.91 13.754 145.955 14.0189 147.115 14.0189C148.263 14.0189 149.308 13.754 150.238 13.2366Z" fill="white"/>
<path d="M53.3354 11.8488V0.189453H51.1174V13.8803H44.5526V0.189453H42.3473V13.8803H35.7698V0.189453H33.5391V15.8235H51.5763L53.3354 11.8488Z" fill="white"/>
<path d="M102.843 0.214684V0.189453H89.8281V2.13267H95.2202V15.8235H97.4382V2.13267H102.002L102.843 0.214684Z" fill="white"/>
<path d="M2.23075 7.73519V2.0822H11.0645L11.9186 0.239929V0.189453H0V12.6185L2.23075 7.73519Z" fill="white"/>
<path d="M11.4462 7.70971C10.4646 6.93999 9.03697 6.54883 7.16313 6.54883H5.51875L4.72842 8.31539H6.67874C9.33015 8.31539 10.6559 9.26176 10.6559 11.1545C10.6559 12.1135 10.3117 12.8327 9.63608 13.3249C8.96048 13.817 7.97895 14.0567 6.67874 14.0567H2.22998V13.9305L1.9368 14.5993L1.38867 15.8233H6.76797C8.74378 15.8233 10.2607 15.4195 11.3187 14.5993C12.3767 13.7791 12.9121 12.6056 12.9121 11.0662C12.9121 9.60245 12.415 8.49204 11.4462 7.70971Z" fill="white"/>
<path d="M65.3169 0.189453H63.2137L56.0625 15.8235H58.3825L65.3169 0.189453Z" fill="white"/>
<path d="M70.021 10.1199H63.2395L63.2268 10.1577L62.4492 11.9117H68.5169L70.2632 15.8234H72.6342L70.021 10.1199Z" fill="white"/>
<path d="M175.975 0.164062H175.388L172.584 6.44798L173.808 4.41644L173.833 15.8108H176L175.975 0.164062Z" fill="white"/>
<path d="M167.472 10.9023L161.035 0.164062H159.174V15.8108H161.341V4.47953L166.503 13.0095L167.472 10.9023Z" fill="white"/>
<path d="M135.03 0.189453L129.332 8.00019L135.132 15.8109L135.145 15.8235H137.72L131.805 7.76044L137.452 0.189453H135.03Z" fill="white"/>
<path d="M126.732 6.97809V0.189453H124.514V15.8235H126.732V8.94656V6.97809Z" fill="white"/>
</svg>
