<svg width="293" height="28" viewBox="0 0 293 28" fill="none" xmlns="http://www.w3.org/2000/svg">
<path d="M44.4581 20.6011H30.4734L27.5873 27.2021H23.7251L35.6302 0.81958H39.3438L51.2913 27.2021H47.3442L44.4581 20.6011ZM43.1424 17.5775L37.4764 4.65239L31.8104 17.5775H43.1424Z" fill="#111111"/>
<path d="M145.874 15.7888C146.787 16.8748 147.253 18.2802 147.253 19.9836C147.253 22.262 146.426 24.0507 144.749 25.307C143.073 26.5633 140.654 27.2021 137.47 27.2021H125.438V0.81958H136.749C139.635 0.81958 141.884 1.39449 143.497 2.56563C145.11 3.73676 145.916 5.41894 145.916 7.59086C145.916 9.01752 145.556 10.2526 144.855 11.2533C144.134 12.2541 143.137 13.0207 141.821 13.5104C143.625 13.9363 144.962 14.7029 145.874 15.7888ZM129.173 12.4245H136.494C138.319 12.4245 139.72 12.0625 140.675 11.3385C141.63 10.6145 142.118 9.54987 142.118 8.14451C142.118 6.73915 141.63 5.65316 140.654 4.92919C139.677 4.18392 138.277 3.82194 136.473 3.82194H129.152V12.4245H129.173ZM143.455 19.7068C143.455 18.195 142.946 17.0877 141.927 16.3638C140.908 15.6398 139.402 15.2991 137.407 15.2991H129.173V24.2423H137.407C141.439 24.221 143.455 22.7092 143.455 19.7068Z" fill="#111111"/>
<path d="M180.082 25.754C177.96 24.5828 176.284 22.9645 175.074 20.899C173.865 18.8336 173.249 16.5339 173.249 14C173.249 11.4661 173.865 9.16641 175.074 7.10095C176.284 5.03549 177.96 3.41718 180.082 2.24605C182.205 1.07491 184.603 0.5 187.255 0.5C189.887 0.5 192.263 1.07491 194.385 2.24605C196.508 3.41718 198.184 5.0142 199.372 7.07966C200.582 9.12383 201.176 11.4235 201.176 14C201.176 16.5765 200.582 18.8762 199.372 20.9204C198.163 22.9645 196.508 24.5828 194.385 25.754C192.263 26.9251 189.887 27.5 187.255 27.5C184.603 27.5 182.226 26.9251 180.082 25.754ZM192.476 22.8368C194.025 21.9637 195.234 20.75 196.126 19.1956C197.017 17.6412 197.463 15.9164 197.463 14.0213C197.463 12.1049 197.017 10.3801 196.126 8.847C195.234 7.29258 194.025 6.07886 192.476 5.20583C190.926 4.3328 189.208 3.88565 187.276 3.88565C185.345 3.88565 183.605 4.3328 182.035 5.20583C180.464 6.07886 179.234 7.29258 178.342 8.847C177.451 10.4014 177.005 12.1262 177.005 14.0213C177.005 15.9377 177.451 17.6625 178.342 19.1956C179.234 20.75 180.464 21.9637 182.035 22.8368C183.605 23.7098 185.345 24.1569 187.276 24.1569C189.186 24.1569 190.926 23.7098 192.476 22.8368Z" fill="#111111"/>
<path d="M237.719 25.754C235.597 24.5828 233.92 22.9645 232.711 20.899C231.501 18.8336 230.886 16.5339 230.886 14C230.886 11.4661 231.501 9.16641 232.711 7.10095C233.92 5.03549 235.597 3.41718 237.719 2.24605C239.841 1.07491 242.239 0.5 244.892 0.5C247.523 0.5 249.9 1.07491 252.022 2.24605C254.144 3.41718 255.821 5.0142 257.009 7.07966C258.219 9.12383 258.813 11.4235 258.813 14C258.813 16.5765 258.219 18.8762 257.009 20.9204C255.799 22.9645 254.144 24.5828 252.022 25.754C249.9 26.9251 247.523 27.5 244.892 27.5C242.239 27.5 239.862 26.9251 237.719 25.754ZM250.112 22.8368C251.661 21.9637 252.871 20.75 253.762 19.1956C254.653 17.6412 255.099 15.9164 255.099 14.0213C255.099 12.1049 254.653 10.3801 253.762 8.847C252.871 7.29258 251.661 6.07886 250.112 5.20583C248.563 4.3328 246.844 3.88565 244.913 3.88565C242.982 3.88565 241.242 4.3328 239.671 5.20583C238.101 6.07886 236.87 7.29258 235.979 8.847C235.088 10.4014 234.642 12.1262 234.642 14.0213C234.642 15.9377 235.088 17.6625 235.979 19.1956C236.87 20.75 238.101 21.9637 239.671 22.8368C241.242 23.7098 242.982 24.1569 244.913 24.1569C246.823 24.1569 248.563 23.7098 250.112 22.8368Z" fill="#111111"/>
<path d="M88.7892 20.4947V0.81958H85.0967V23.9229H74.1678V0.81958H70.4966V23.9229H59.5465V0.81958H55.8328V27.2021H85.8606L88.7892 20.4947Z" fill="#111111"/>
<path d="M171.212 0.862156V0.81958H149.545V4.09877H158.522V27.2021H162.214V4.09877H169.811L171.212 0.862156Z" fill="#111111"/>
<path d="M3.7137 13.553V4.01359H18.4199L19.8417 0.904759V0.81958H0V21.7936L3.7137 13.553Z" fill="#111111"/>
<path d="M19.0564 13.5103C17.4224 12.2114 15.0457 11.5513 11.9262 11.5513H9.18862L7.87291 14.5323H11.1198C15.5337 14.5323 17.7407 16.1293 17.7407 19.3234C17.7407 20.9417 17.1678 22.1554 16.043 22.9858C14.9183 23.8162 13.2843 24.2208 11.1198 24.2208H3.71358V24.0079L3.22549 25.1364L2.31299 27.2019H11.2683C14.5576 27.2019 17.0829 26.5205 18.8442 25.1364C20.6056 23.7524 21.4969 21.7721 21.4969 19.1743C21.4969 16.7043 20.6693 14.8304 19.0564 13.5103Z" fill="#111111"/>
<path d="M108.737 0.81958H105.235L93.3304 27.2021H97.1927L108.737 0.81958Z" fill="#111111"/>
<path d="M116.568 17.5771H105.278L105.257 17.641L103.962 20.6008H114.064L116.971 27.2018H120.918L116.568 17.5771Z" fill="#111111"/>
<path d="M292.958 0.776855H291.982L287.313 11.381L289.35 7.95274L289.393 27.1807H293L292.958 0.776855Z" fill="#111111"/>
<path d="M278.803 18.8976L268.086 0.776855H264.988V27.1807H268.596V8.05921L277.19 22.4535L278.803 18.8976Z" fill="#111111"/>
<path d="M224.795 0.819336L215.309 13.9999L224.965 27.1805L224.986 27.2018H229.273L219.426 13.5954L228.827 0.819336H224.795Z" fill="#111111"/>
<path d="M210.98 12.2754V0.81958H207.288V27.2021H210.98V15.5972V12.2754Z" fill="#111111"/>
</svg>
