<svg width="131" height="20" viewBox="0 0 131 20" fill="none" xmlns="http://www.w3.org/2000/svg">
<path d="M24.3019 2.51685L21.334 7.59786L21.1935 7.58759C21.1918 7.58759 20.0747 7.57218 18.6211 7.59101C16.8518 7.61498 15.289 7.73995 14.3332 7.93854L13.8094 8.06522L17.0392 2.51856H10.1633L1.64819 17.5836H8.52755L10.3992 14.146C11.2474 12.6087 13.0982 10.8728 15.1571 10.6639C15.8388 10.5955 16.609 10.5646 17.4433 10.5646C18.4633 10.5646 19.2265 10.6211 19.2351 10.6211L19.6046 10.6297L15.7833 17.5819H22.6696L31.1847 2.51685H24.3019Z" fill="white"/>
<path d="M24.3019 2.51685L21.334 7.59786L21.1935 7.58759C21.1918 7.58759 20.0747 7.57218 18.6211 7.59101C16.8518 7.61498 15.289 7.73995 14.3332 7.93854L13.8094 8.06522L17.0392 2.51856H10.1633L1.64819 17.5836H8.52755L10.3992 14.146C11.2474 12.6087 13.0982 10.8728 15.1571 10.6639C15.8388 10.5955 16.609 10.5646 17.4433 10.5646C18.4633 10.5646 19.2265 10.6211 19.2351 10.6211L19.6046 10.6297L15.7833 17.5819H22.6696L31.1847 2.51685H24.3019Z" fill="white"/>
<path d="M77.6112 2.51687L67.0806 11.0372L66.7683 2.45866L60.2238 2.39703L60.5048 17.5819H68.0311L86.109 2.51687H77.6112Z" fill="white"/>
<path d="M77.6112 2.51687L67.0806 11.0372L66.7683 2.45866L60.2238 2.39703L60.5048 17.5819H68.0311L86.109 2.51687H77.6112Z" fill="white"/>
<path d="M41.6107 4.86226C40.2594 5.78157 38.6775 6.97821 38.2681 7.35654L26.7435 17.6179H32.9568L34.8701 15.7775C35.7946 14.937 37.9385 14.0485 40.1016 14.0485H40.2074C42.4276 14.0776 44.4502 14.2163 44.4693 14.218L44.8127 14.2419L43.2672 17.6179H48.5889L55.803 2.47925H50.2992C46.6358 2.47925 42.8318 4.03026 41.6107 4.86226ZM46.1293 11.2306H39.831L42.4224 8.78772C42.5387 8.68672 45.0989 6.46805 46.2854 5.77814C47.0538 5.33133 47.8534 5.23717 48.3894 5.23717C48.6947 5.23717 48.889 5.26799 48.8976 5.2697L49.222 5.32277L46.1293 11.2306Z" fill="white"/>
<path d="M41.6107 4.86226C40.2594 5.78157 38.6775 6.97821 38.2681 7.35654L26.7435 17.6179H32.9568L34.8701 15.7775C35.7946 14.937 37.9385 14.0485 40.1016 14.0485H40.2074C42.4276 14.0776 44.4502 14.2163 44.4693 14.218L44.8127 14.2419L43.2672 17.6179H48.5889L55.803 2.47925H50.2992C46.6358 2.47925 42.8318 4.03026 41.6107 4.86226ZM46.1293 11.2306H39.831L42.4224 8.78772C42.5387 8.68672 45.0989 6.46805 46.2854 5.77814C47.0538 5.33133 47.8534 5.23717 48.3894 5.23717C48.6947 5.23717 48.889 5.26799 48.8976 5.2697L49.222 5.32277L46.1293 11.2306Z" fill="white"/>
<path d="M99.5719 2.47925C95.9102 2.47925 92.1062 4.03197 90.8851 4.86226C89.5338 5.77985 87.9519 6.97821 87.5425 7.35654L76.0179 17.6179H82.2312L84.1445 15.7775C85.069 14.937 87.213 14.0485 89.3777 14.0485H89.4835C91.7038 14.0776 93.7263 14.2163 93.7454 14.218L94.0888 14.2419L92.5433 17.6179H97.865L105.079 2.47925H99.5719ZM95.4037 11.2306H89.1054L91.6969 8.78772C91.8131 8.68672 94.3733 6.46805 95.5598 5.77814C96.3282 5.33133 97.1278 5.23717 97.6638 5.23717C97.9691 5.23717 98.1651 5.26799 98.1721 5.2697L98.4982 5.32277L95.4037 11.2306Z" fill="white"/>
<path d="M99.5719 2.47925C95.9102 2.47925 92.1062 4.03197 90.8851 4.86226C89.5338 5.77985 87.9519 6.97821 87.5425 7.35654L76.0179 17.6179H82.2312L84.1445 15.7775C85.069 14.937 87.213 14.0485 89.3777 14.0485H89.4835C91.7038 14.0776 93.7263 14.2163 93.7454 14.218L94.0888 14.2419L92.5433 17.6179H97.865L105.079 2.47925H99.5719ZM95.4037 11.2306H89.1054L91.6969 8.78772C91.8131 8.68672 94.3733 6.46805 95.5598 5.77814C96.3282 5.33133 97.1278 5.23717 97.6638 5.23717C97.9691 5.23717 98.1651 5.26799 98.1721 5.2697L98.4982 5.32277L95.4037 11.2306Z" fill="white"/>
<path d="M113.894 13.9868L113.84 14.0005C113.821 13.9903 113.353 13.754 113.221 13.2713C113.143 12.9819 113.199 12.6926 113.388 12.3896C113.415 12.3417 116.588 6.76592 117.289 5.58982C118.201 4.05593 119.523 3.0322 120.355 2.51862H112.21C111.585 3.54578 106.931 11.7391 106.212 12.9888C105.462 14.2916 105.363 16.0104 106.833 16.9776C107.603 17.4843 109.899 17.5836 110.72 17.5836H125.833L129.152 13.9886H113.894V13.9868Z" fill="white"/>
<path d="M113.894 13.9868L113.84 14.0005C113.821 13.9903 113.353 13.754 113.221 13.2713C113.143 12.9819 113.199 12.6926 113.388 12.3896C113.415 12.3417 116.588 6.76592 117.289 5.58982C118.201 4.05593 119.523 3.0322 120.355 2.51862H112.21C111.585 3.54578 106.931 11.7391 106.212 12.9888C105.462 14.2916 105.363 16.0104 106.833 16.9776C107.603 17.4843 109.899 17.5836 110.72 17.5836H125.833L129.152 13.9886H113.894V13.9868Z" fill="white"/>
</svg>
