<svg width="162" height="38" viewBox="0 0 162 38" fill="none" xmlns="http://www.w3.org/2000/svg">
<mask id="mask0_259_5852" style="mask-type:luminance" maskUnits="userSpaceOnUse" x="0" y="0" width="162" height="38">
<path d="M162 0H0V38H162V0Z" fill="white"/>
</mask>
<g mask="url(#mask0_259_5852)">
<path d="M157.92 37.9728H7.33154L8.75348 34.3712H159.348L157.92 37.9728Z" fill="#DB1B1B"/>
<path d="M113.006 28.0791C112.767 28.926 111.979 29.4424 111.248 29.2316C110.516 29.0212 110.117 28.1639 110.356 27.317C110.595 26.47 111.383 25.9537 112.114 26.1645C112.846 26.3748 113.246 27.2321 113.006 28.0791ZM115.199 16.3886C115.199 16.3886 115.044 20.9153 112.105 23.4904L115.199 16.3886ZM52.2771 27.6079C51.8329 28.6397 50.7251 29.1852 49.8964 28.8219C49.0669 28.4585 48.8285 27.3352 49.2731 26.3035C49.7181 25.2717 50.7729 24.7429 51.6016 25.1067C52.4311 25.47 52.7213 26.5762 52.2771 27.6079ZM30.9673 11.2377C30.9673 11.2377 32.0502 15.374 27.4863 20.2911L30.9673 11.2377ZM155.116 28.4419C154.42 28.4419 154.658 27.6376 154.658 27.6376L156.94 22.2385L150.27 22.2484L149.058 25.114H152.463L151.051 28.4419H136.343C135.595 28.472 135.774 27.8609 135.774 27.8609L137.808 22.2432L134.649 22.2484L132.409 28.3289C132.327 28.5225 132.038 28.8541 131.509 28.7334C130.931 28.5527 131.248 27.7438 131.248 27.7438L133.065 22.2484L129.897 22.2463L127.843 28.4419L115.006 28.446C115.818 25.5195 113.498 24.3488 113.498 24.3488C121.387 16.6228 114.909 10.586 114.909 10.586L107.365 28.4419C107.365 28.4419 94.2912 28.4523 92.9458 28.4419C91.6005 28.432 92.0387 27.7485 92.2883 27.5273C93.4147 26.4929 98.0662 22.2421 98.0662 22.2421H94.0058L89.7767 25.8579L94.8178 13.9306H90.8733L85.452 28.432C85.452 28.432 72.049 28.4372 69.6254 28.4382C69.3655 28.4382 69.1283 28.28 69.0383 28.0337C68.8508 27.5189 68.8819 26.8724 69.172 26.2707C69.6688 25.2384 70.7383 24.7283 71.5606 25.1312C72.0351 25.3639 72.3225 25.8496 72.3866 26.4169H74.9941C75.0275 24.6434 74.2577 23.0578 72.8308 22.3587C70.7049 21.3171 67.9397 22.6357 66.6553 25.3035C66.1537 26.3456 65.9563 27.4382 66.0232 28.446H54.9152C55.8323 25.8667 55.0422 23.213 52.9812 22.3093C50.8059 21.3551 48.0376 22.7419 46.8718 25.4482C46.4399 26.4513 46.2544 27.4867 46.3026 28.4419H46.3002H35.7416C33.8858 28.3253 34.4869 26.456 34.4869 26.456L41.0999 10.8869H36.2271L31.3537 23.061C29.8013 26.2712 28.3789 27.1457 28.0838 27.2659C25.6847 28.243 26.1331 25.2853 26.1331 25.2853C38.7794 12.5256 30.5416 0.234436 30.5416 0.234436L21.8406 24.5831C9.54199 29.9676 3.62487 22.8272 3.62487 22.8272L0.376099 29.3825C11.3988 35.9383 21.2602 28.7974 21.2602 28.7974C22.049 31.1857 23.1428 32.2231 24.2917 32.4996C27.668 33.1315 30.0778 29.4996 30.0778 29.4996C30.814 31.8103 32.74 32.0175 33.0072 32.0212C33.2745 32.0253 43.1012 32.0212 43.1012 32.0212C45.6534 32.0212 46.7814 30.4199 46.8097 30.4205C47.181 31.1435 47.7466 31.7229 48.5049 32.0555C50.2065 32.802 52.3523 32.0831 53.7653 30.4413C54.2931 31.9358 55.5939 32.0212 55.5939 32.0212C55.5939 32.0212 62.062 32.03 63.5988 32.0212C65.0958 32.0134 66.5088 30.5324 66.5824 30.4548C66.9498 31.132 67.5333 31.9764 68.5615 32.0212C68.5607 32.0212 80.8257 32.0186 81.7157 32.0212C82.9775 32.0253 84.7447 30.4324 84.7447 30.4324L84.0971 32.0212H87.1759L88.2622 29.4575C89.0093 31.6995 90.7714 32.0175 90.9923 32.0212C91.2132 32.0253 104.465 32.0212 104.465 32.0212C106.398 32.0514 107.704 30.4127 107.704 30.4127C108.429 31.7661 109.225 32.2325 110.07 32.3241C112.276 32.5631 113.729 30.9046 113.729 30.9046C113.962 31.8411 114.806 32.0222 115.008 32.0212C115.21 32.0201 124.625 32.0212 124.625 32.0212C126.667 31.8202 127.783 30.4632 127.783 30.4632C128.244 31.9056 129.323 32.2585 130.066 32.3392C132.154 32.4808 133.221 30.4361 133.221 30.4361C133.951 31.8306 135.135 32.0222 135.426 32.0212C135.717 32.0201 148.291 32.0212 148.291 32.0212C150.031 31.9046 150.842 30.4225 150.842 30.4225C151.246 31.7432 152.019 32.0222 152.397 32.0212C152.774 32.0201 160.358 32.0212 160.358 32.0212L161.875 28.4393L155.116 28.4419Z" fill="#DB1B1B"/>
</g>
</svg>
