<svg width="148" height="20" viewBox="0 0 148 20" fill="none" xmlns="http://www.w3.org/2000/svg">
<mask id="mask0_259_5875" style="mask-type:luminance" maskUnits="userSpaceOnUse" x="0" y="0" width="148" height="20">
<path d="M0 0H147.971V19.5H0V0Z" fill="white"/>
</mask>
<g mask="url(#mask0_259_5875)">
<path d="M140.812 0.679423L140.75 0.554298H136.409L143.256 18.6942V18.8209H147.661L140.812 0.679423ZM129.129 0.617673L123.807 18.8209H127.844L132.004 5.3578H136.958L135.184 0.552673L129.129 0.617673ZM3.80105 9.27568L3.73926 9.2123V5.73642L5.8206 3.46142H18.481L24.5966 9.71768V3.5898L21.5396 0.617673L2.6368 0.552673L-0.17627 3.58817V7.56942L3.79942 11.8676L3.80105 9.27568Z" fill="white"/>
<path d="M20.6816 13.7005H20.6199V13.8272L18.4182 15.8487H5.75775L-0.178955 9.14886V15.787L2.88127 18.8209H21.5369L24.6557 15.7236V11.3621L20.6816 7.44261V13.7005ZM66.9233 9.27561L66.8615 9.21224V5.73636L68.9412 3.46136H81.5415L87.657 9.71761V3.58974L84.6602 0.617612L65.7607 0.552612L62.8858 3.58811V7.56936L66.9233 11.8675V9.27561Z" fill="white"/>
<path d="M83.8037 13.7005H83.7435V13.8272L81.5418 15.8487H68.8798L62.8862 9.14886V15.787L65.9431 18.8209H84.6606L87.7176 15.7236V11.3621L83.8053 7.44261L83.8037 13.7005ZM46.6777 0.552612L44.2906 13.1951L45.2695 18.7575L46.9216 18.8209L49.307 5.35774H52.3038V18.946H56.2795V3.65149L53.5299 0.552612H46.6793H46.6777ZM33.6481 0.617612L30.957 3.77661V18.8826H34.9945V5.42111H37.9913L40.193 18.946H44.2305L40.928 0.617612H33.6481ZM111.39 0.552612L115.487 3.83999V13.7639L112.552 15.8487H98.8511V3.58811H113.225L109.494 0.552612H94.6917V18.8176H116.59L119.525 15.7854V3.58811L115.795 0.552612H111.39Z" fill="white"/>
</g>
</svg>
