<svg width="40" height="40" viewBox="0 0 40 40" fill="none" xmlns="http://www.w3.org/2000/svg">
<path d="M15.5156 24.4999L18.0156 26.9999L24.6823 20.3333" stroke="#2F3140" stroke-width="3" stroke-linecap="round" stroke-linejoin="round"/>
<path d="M16.6693 9.99992H23.3359C26.6693 9.99992 26.6693 8.33325 26.6693 6.66659C26.6693 3.33325 25.0026 3.33325 23.3359 3.33325H16.6693C15.0026 3.33325 13.3359 3.33325 13.3359 6.66659C13.3359 9.99992 15.0026 9.99992 16.6693 9.99992Z" stroke="#2F3140" stroke-width="3" stroke-miterlimit="10" stroke-linecap="round" stroke-linejoin="round"/>
<path d="M26.6667 6.69995C32.2167 6.99995 35 9.04995 35 16.6666V26.6666C35 33.3333 33.3333 36.6666 25 36.6666H15C6.66667 36.6666 5 33.3333 5 26.6666V16.6666C5 9.06662 7.78333 6.99995 13.3333 6.69995" stroke="#2F3140" stroke-width="3" stroke-miterlimit="10" stroke-linecap="round" stroke-linejoin="round"/>
</svg>
