<svg width="40" height="40" viewBox="0 0 40 40" fill="none" xmlns="http://www.w3.org/2000/svg">
<path d="M36.6667 14.1999V6.63325C36.6667 4.28325 35.6 3.33325 32.95 3.33325H26.2167C23.5667 3.33325 22.5 4.28325 22.5 6.63325V14.1833C22.5 16.5499 23.5667 17.4833 26.2167 17.4833H32.95C35.6 17.4999 36.6667 16.5499 36.6667 14.1999Z" stroke="#2F3140" stroke-width="3" stroke-linecap="round" stroke-linejoin="round"/>
<path d="M36.6667 32.95V26.2167C36.6667 23.5667 35.6 22.5 32.95 22.5H26.2167C23.5667 22.5 22.5 23.5667 22.5 26.2167V32.95C22.5 35.6 23.5667 36.6667 26.2167 36.6667H32.95C35.6 36.6667 36.6667 35.6 36.6667 32.95Z" stroke="#2F3140" stroke-width="3" stroke-linecap="round" stroke-linejoin="round"/>
<path d="M17.5026 14.1999V6.63325C17.5026 4.28325 16.4359 3.33325 13.7859 3.33325H7.0526C4.4026 3.33325 3.33594 4.28325 3.33594 6.63325V14.1833C3.33594 16.5499 4.4026 17.4833 7.0526 17.4833H13.7859C16.4359 17.4999 17.5026 16.5499 17.5026 14.1999Z" stroke="#2F3140" stroke-width="3" stroke-linecap="round" stroke-linejoin="round"/>
<path d="M17.5026 32.95V26.2167C17.5026 23.5667 16.4359 22.5 13.7859 22.5H7.0526C4.4026 22.5 3.33594 23.5667 3.33594 26.2167V32.95C3.33594 35.6 4.4026 36.6667 7.0526 36.6667H13.7859C16.4359 36.6667 17.5026 35.6 17.5026 32.95Z" stroke="#2F3140" stroke-width="3" stroke-linecap="round" stroke-linejoin="round"/>
</svg>
